<svg enable-background="new 0 0 512 512" viewBox="0 0 512 512" xmlns="http://www.w3.org/2000/svg"><g fill="#30698d"><text font-family="'Raleway-Bold'" font-size="74.8692" transform="translate(67.4067 434.6426)">CLEAN FAST</text><text font-family="'Raleway-Medium'" font-size="33.1099" letter-spacing="1" transform="translate(105.998 484.2227)">The best services</text><path d="m409.6 43.1c.8-19.8-2.8-29.1-8.2-24.9s.3 32.5-10.7 77.2c-6 24.4-12.4 38.1-14.2 41.7-1.7-.1-3.4-.1-5.3.1-18.3 1.8-24.9 23.1-26.8 31.3l59.5 15.6c.6-4.7 1.2-12.3.1-18.3-1.8-9.8-6.2-21.9-17.6-26.6 2.3-4.3 5.5-11.3 9.2-22 7-21 13.2-54.3 14-74.1z"/><path d="m380.4 182.3c-3.2 16.7-11.2 28.8-19.5 39.4-2.4 3-5.7 6.9-9.4 10.4 4.9 1.8 9.1 3.2 12.7 4.2 12.9-11.5 25.9-33.2 27.1-51.1z"/><path d="m358.8 220c8.1-10.4 15.8-22.2 19-38.4l-10.3-2.8c-5.7 20.3-16.7 36.4-32 47.2 3.9 1.6 8.1 3.2 12.5 4.8.2.1.4.1.6.2 3.3-2.9 6.8-6.7 10.2-11z"/><path d="m394 185.9c-1.4 17.9-13.9 39.2-26.7 51.2 8.9 2.3 13.7 1.7 17.1-2.1 5.4-5.9 12.3-21.2 15.5-32.5 1-3.4 2.5-11.1 3.1-14.2z"/><path d="m352.4 174.7-8.7-2.3c-1.8 5.2-5.4 12.2-9.2 18.1-9.3 14.1-27.8 20-26.9 21.7.3.6 3 2.3 7.4 4.6 16.7-5 33.8-27 37.4-42.1z"/><path d="m355 175.4c-3.7 15.3-19.7 36.4-36.6 43 3.9 1.9 8.6 4 14.1 6.3 15.5-10.4 26.6-26.4 32.3-46.7z"/></g><path d="m278.1 307.5c38.7-7.2 74.7-30.1 98.9-60.8-.3 0-.6 0-.9 0-7 0-15.9-2.8-30.9-8.2-1.2-.4-5.1-1.9-10.1-3.8-22.3 22.4-50.1 33.9-82.8 34.2-.5 0-.9 0-1.4 0-60.7 0-111.1-41.6-127.7-102.3-2.3 8.9-5.6 24.7-5.6 43.6 26.9 59 85.4 111.2 160.5 97.3z" fill="#58bceb"/><path d="m204.8 191.9h77.4v-77.4h-77.4zm8.2-34.6h26.4v26.4h-26.4zm34.5 26.4v-26.4h26.4v26.4zm26.4-34.6h-26.4v-26.4h26.4zm-34.5-26.4v26.4h-26.4v-26.4z" fill="#30698d"/><path d="m257.8 36.2-.1-.1-.1.1-117.3 79.5 14.8 17 18.9-12.7v81.6c3 2.2 6.2 4.3 9.6 6.3v-94.4l74.2-50.3 102.6 69.5 14.8-17z" fill="#30698d"/><path d="m252.3 260.7c29.7-.3 54.2-10 74.6-29.4-10.6-4.5-22.3-10.1-25.9-14.4-16.2 7.7-42.3 15.8-77.6 12.6-45.5-4.1-76.4-38.5-90-57.8 17.8 53.6 64 89.5 118.9 89z" fill="#58bceb"/><path d="m279.6 315.5c-8.9 1.7-17.6 2.4-26 2.4-59.8 0-107.3-39.5-134.6-87.3 4.3 32.4 20.3 69 64.3 94.9 54.2 31.8 144.2 17.5 187.2-41.8 14.9-20.6 23.5-39.5 28.3-55.4-23.7 43.7-69.3 77.9-119.2 87.2z" fill="#58bceb"/><path d="m421.5 101.7c1.4 6.4 2.1 8.5 3.2 9.8 1.2 1.3 1.6 2 7.3 3.6-5.6 1.6-6.1 2.3-7.3 3.6s-1.8 3.4-3.2 9.8c-1.4-6.4-2-8.5-3.2-9.8s-1.6-2-7.3-3.7c5.7-1.6 6.1-2.3 7.3-3.7 1.2-1.1 1.8-3.2 3.2-9.6z" fill="#58bceb"/><path d="m313 128.8c2.2 10.1 3.3 13.4 5.1 15.4 1.8 2.1 2.6 3.2 11.5 5.7-8.9 2.5-9.6 3.6-11.5 5.7-1.8 2.1-2.9 5.4-5.1 15.4-2.2-10-3.2-13.3-5.1-15.4-1.8-2.1-2.6-3.2-11.5-5.8 8.9-2.5 9.7-3.7 11.5-5.8 1.8-1.8 2.8-5.1 5.1-15.2z" fill="#58bceb"/><path d="m422.6 183.5c2 9 2.9 12 4.6 13.8 1.6 1.8 2.3 2.9 10.2 5.1-7.9 2.2-8.6 3.3-10.2 5.1s-2.6 4.8-4.6 13.8c-2-8.9-2.9-11.9-4.5-13.8-1.6-1.8-2.3-2.9-10.3-5.1 8-2.3 8.7-3.3 10.3-5.1 1.7-1.9 2.6-4.8 4.5-13.8z" fill="#58bceb"/></svg>