<svg viewBox="0 0 91.79 126.6" xmlns="http://www.w3.org/2000/svg"
    xmlns:xlink="http://www.w3.org/1999/xlink">
    <filter id="a" color-interpolation-filters="sRGB" filterUnits="userSpaceOnUse" height="32766"
        width="26.65" x="0" y="-8164.19">
        <feFlood flood-color="#fff" result="bg" />
        <feBlend in="SourceGraphic" in2="bg" />
    </filter>
    <mask id="b" height="32766" maskUnits="userSpaceOnUse" width="26.65" x="0" y="-8164.19">
        <g filter="url(#a)" />
    </mask>
    <linearGradient id="c" gradientUnits="userSpaceOnUse" x1="14.23" x2="12.45" y1="7.16"
        y2="116.75">
        <stop offset="0" stop-color="#fff" />
        <stop offset="1" stop-color="#4d4d4d" />
    </linearGradient>
    <filter id="d" color-interpolation-filters="sRGB" filterUnits="userSpaceOnUse" height="125.65"
        width="26.65" x="0" y="0">
        <feFlood flood-color="#fff" result="bg" />
        <feBlend in="SourceGraphic" in2="bg" />
    </filter>
    <mask id="e" height="125.65" maskUnits="userSpaceOnUse" width="26.65" x="0" y="0">
        <g filter="url(#d)" mask="url(#b)">
            <path d="m0 0h26.65v125.65h-26.65z" fill="url(#c)" />
        </g>
    </mask>
    <linearGradient id="f" gradientUnits="userSpaceOnUse" x1="14.23" x2="12.45" y1="7.16"
        y2="116.75">
        <stop offset="0" stop-color="#b2dbdb" />
        <stop offset="1" stop-color="#b2dbdb" />
    </linearGradient>
    <path
        d="m74.65 119.4-.65 1.27-.15.27s-3.08-3.41-6.4-7.54-9.66-12.24-12.45-17.51-10.1-25.89-10.1-25.89a0 0 0 0 0 0 0l-4.3 26c1.06 2.76 1.46 7.3 0 14.59s-3.4 14.75-3.4 14.75h-.12l-1.75-.38s-2.33-19.42-2.59-36.77c0-1.64 0-3.23 0-4.75 0-14.62 1.21-23.87 1.08-24 .85.51 3.47 2.13 4.9 2.16 0 0 .11-1.93.25-4.56l1.5-.05 5.37-.18h1.3c.4 2.61.66 4.85.66 4.85a15.45 15.45 0 0 0 2.53-.29 11 11 0 0 0 4.62-1.93c1.27 1.94 3 8.18 3.66 13.45s2.77 22 2.77 22a17.26 17.26 0 0 1 6.32 6.24c2.08 3.92 6.95 18.27 6.95 18.27z"
        fill="#272b6a" />
    <path
        d="m74.65 119.4-.65 1.27c-1.43-3-6.66-16.13-7.52-18.21-1-2.35-6.41-5.84-6.41-5.84s-2.1-15.32-4-22.94a86.49 86.49 0 0 0 -3.47-11.51c-1.62.73-5.49 0-5.49 0l-1.3-5.34h1.3c.4 2.61.66 4.85.66 4.85a15.45 15.45 0 0 0 2.53-.29 11 11 0 0 0 4.62-1.93c1.27 1.94 3 8.18 3.66 13.45s2.77 22 2.77 22a17.26 17.26 0 0 1 6.32 6.24c2.11 3.9 6.98 18.25 6.98 18.25z"
        fill="#202259" />
    <path
        d="m40.44 57-1.66 6.21a9.42 9.42 0 0 0 -3 .65c-.38.28-1.84 10.65-3 19.56 0-14.62 1.21-23.87 1.08-24 .85.51 3.47 2.13 4.9 2.16 0 0 .11-1.93.25-4.56z"
        fill="#202259" />
    <path
        d="m40.6 96c1.06 2.76 1.46 7.3 0 14.59s-3.4 14.75-3.4 14.75h-.12c.56-3.78 1.6-10.85 1.86-13.35.36-3.49 1-8.76.83-10.29s-1-6.08-1-6.08 2.2-11.43 3.55-16c1.29-4.41 2.46-9.1 2.56-9.54z"
        fill="#202259" />
    <path
        d="m19.24 33s-.17.14-.43.31a4 4 0 0 1 -2.49.56h-.24a9.71 9.71 0 0 1 -3.15-.81 10.32 10.32 0 0 1 -1.27-.65s.05-.42.11-1.05c.14-1.37.38-3.73.52-5.05a19.65 19.65 0 0 0 -.37-4 12 12 0 0 1 -.35-3.31c.34-.41.9 1.9.9 1.9s-.16-3.31.37-3.62 1.16 2.46 1.16 2.46.2-4.38.93-4.63c.56-.18.88 1.64 1 2.46l.07.43s0-.22.07-.54c.14-1.1.55-3.46 1.27-3.4.93.08 1 5.68 1 5.68a5.21 5.21 0 0 1 .73 3c0 .45-.08.87-.14 1.24a8.2 8.2 0 0 1 -.39 1.8 40.41 40.41 0 0 0 .37 4.62c.17 1.41.33 2.6.33 2.6z"
        fill="#ffc40c" />
    <path
        d="m19.24 33s-.17.14-.43.31a4 4 0 0 1 -2.49.56c.14-.84.6-3.71.95-5.13a5.54 5.54 0 0 1 -1.89 1.88 14 14 0 0 1 -3.61.73c.14-1.37.38-3.73.52-5.05a19.65 19.65 0 0 0 -.37-4l4.9 1.15-1.44-3.7a9.74 9.74 0 0 1 .53-2.22.49.49 0 0 1 .12-.15c.08-.07.17 0 .25.11a57.57 57.57 0 0 1 2.62 6.41 8.2 8.2 0 0 1 -.39 1.8 40.41 40.41 0 0 0 .37 4.62c.2 1.49.36 2.68.36 2.68z"
        fill="#e6ab23" />
    <path
        d="m40.6 36.11a51.27 51.27 0 0 0 -1.1 8.89c-.09 2.92-.35 8.2-.56 12-.14 2.63-.25 4.56-.25 4.56-1.43 0-4-1.65-4.9-2.16a2.16 2.16 0 0 0 -.28-.15c-.12 0 .32-3.81.48-7 .08-1.53.18-4.22.26-6.58s.15-4.64.15-4.64a4 4 0 0 1 -2.4-3.19 15.76 15.76 0 0 1 .49-4.16c.25-1.2.53-2.36.71-3.2.41-1.95-.49-5.72-.49-5.72a3.2 3.2 0 0 1 1.21-.82 3.65 3.65 0 0 1 .5-.1h.11.33c1.16-.08 2.93 0 4.23.05-.22.17-.69.56-.75.78a24.44 24.44 0 0 0 .45 6.08 21.88 21.88 0 0 0 1.81 5.36z"
        fill="#f79738" />
    <path
        d="m34.25 45.78c.09-2.51.15-4.64.15-4.64a4 4 0 0 1 -2.4-3.3 15.76 15.76 0 0 1 .49-4.16c.28 1.92 1.22 6.87 3.8 8.55z"
        fill="#e18726" />
    <path
        d="m55.48 58.93c-.18.17-.37.33-.56.49-2.79 2.19-7.15 2.22-7.15 2.22s-.26-2.24-.66-4.85c-.13-.84-.27-1.72-.43-2.58s-.37-1.9-.57-2.72c-.06-.27-.13-.53-.2-.77-1-3.59-3.16-14.57-3.12-14.69a27.65 27.65 0 0 0 3.65-6.12 11.13 11.13 0 0 0 .38-5.1c-.06-.43-.13-.74-.16-.87h.63s3.63.32 6.29.83a15.87 15.87 0 0 0 -.86 3.31 31.8 31.8 0 0 0 -.17 5.36c.05 1.61.14 2.86.14 2.86-.14 1.45-.66 10.86-.25 13.13a49 49 0 0 0 1.56 5.26c.74 2.23 1.48 4.24 1.48 4.24z"
        fill="#f79738" />
    <path
        d="m54 54.69c-1.58-.29-3.79-.7-4.86-.95a3.66 3.66 0 0 0 -2.45.47c-.18-1-.37-1.9-.57-2.72l.19-.08 5.45.29c-1.27-3.7-.76-9.89-.76-9.89a7.66 7.66 0 0 1 -3.71 0 5.15 5.15 0 0 0 3-2.19c1.11-1.67 2.05-5.48 2.22-6.18.05 1.61.14 2.86.14 2.86-.14 1.45-.66 10.86-.25 13.13a49 49 0 0 0 1.6 5.26z"
        fill="#e18726" />
    <path
        d="m47.11 56.79a4.92 4.92 0 0 1 -1.34.22c-1.39.11-3.5.11-5.1.09h-1.73c.21-3.83.47-9.12.56-12 0-1 .11-2 .2-3a47.71 47.71 0 0 1 .9-6 21.88 21.88 0 0 1 -1.86-5.39 28 28 0 0 1 -.43-3.35v-.4a13.83 13.83 0 0 1 0-2.33c.06-.22.53-.61.75-.78l1.18.07h.22c-.11.32-1.55.8-1.24 1.51s1 1.95 3.35 1.62a6.57 6.57 0 0 0 4.27-2.26 12.48 12.48 0 0 1 .13 1.9v.38a9.53 9.53 0 0 1 -.5 2.82 27.65 27.65 0 0 1 -3.68 6.11c0 .06.07.47.19 1.13a1.55 1.55 0 0 1 0 .21c.58 3.06 2.08 10.5 2.89 13.34a58.75 58.75 0 0 1 1.24 6.11z"
        fill="#a6ddeb" />
    <path
        d="m63 49.19a7.39 7.39 0 0 0 -3.14-2.56 14 14 0 0 0 -1.44-.58 13.32 13.32 0 0 0 -2.36-.59h-.16c0-.18-.13-.43-.23-.73 0-.07 0-.15-.07-.23-.59-1.74-1.71-4.93-2.38-6.83-.21-.56-.37-1-.46-1.27 0 0 0-.08 0-.11s0-.29 0-.77a43.39 43.39 0 0 1 -.04-7.52 16.22 16.22 0 0 1 .86-3.32 7.91 7.91 0 0 1 2.59.81c1.25 1 4.09 8.79 4.86 12.24.46 2.05 1.06 5.72 1.48 8.35l.06.37c.16 1 .28 1.77.35 2.24.08.31.08.49.08.5z"
        fill="#a6ddeb" />
    <path
        d="m33.15 30.48c-.2.94-.53 2.31-.8 3.66a13.88 13.88 0 0 0 -.4 3.7l-.14-.19a26.35 26.35 0 0 1 -8.19 4.62 26.55 26.55 0 0 1 -3.54.85h-.28c-1.55.21-2.18 0-2.11 0s.42-.84.89-2a14.76 14.76 0 0 0 1.33-4.52 2.56 2.56 0 0 0 0-.39l.06-.15a9.93 9.93 0 0 0 .89-.66l.2-.17c2.19-1.77 6.87-5.82 8.63-7.48 1.38-1.3 2.26-2.38 3-3.08-.03.09.87 3.86.46 5.81z"
        fill="#a6ddeb" />
    <g fill="#66c8ce">
        <path
            d="m32 37.84-.14-.19a26.35 26.35 0 0 1 -8.19 4.62 26.55 26.55 0 0 1 -3.54.85h-.28c-1.55.21-2.18 0-2.11 0s.42-.84.89-2a24 24 0 0 0 7.59-2.39 29.34 29.34 0 0 0 6.18-4.68 13.88 13.88 0 0 0 -.4 3.79z" />
        <path
            d="m58.41 46.05-2.36-.59h-.17c0-.18-.13-.43-.23-.73 0-.07 0-.15-.07-.23-.59-1.74-2.2-6.32-2.88-8.21l.5-2.92z" />
        <path d="m41.05 37.55-.38 19.55h-1.73c.21-3.83.47-9.12.56-12 0-1 0-2.29.06-3.22l1-5.69z" />
        <path
            d="m47.11 56.79a4.92 4.92 0 0 1 -1.34.22c-.42-3-2-13.8-2.22-16-.18-1.37-.38-2.69-.53-3.62.58 3.06 2.08 10.5 2.89 13.34a58.75 58.75 0 0 1 1.2 6.06z" />
    </g>
    <path
        d="m51 16.7c-.06.12-.12.24-.19.36-1.37 2.39-4.81 5.83-6.09 6.16-.09-.94-.32-3.14-.56-4.64a7.06 7.06 0 0 0 .82-3s1.78-.78 2.21-2.07a4 4 0 0 0 -.38-2.68c-.26-.54-.56-.91-.77-.89a.32.32 0 0 0 -.15.06 9.65 9.65 0 0 0 -1.45 2.37s-1.25-3.18-2.44-4.21-2.1-1.68-3-.81a9 9 0 0 1 -2 1.62c-1.28.63-3 .86-3.46 1.19-.26.19-.42 1.79-.25 3.71l-.29-.24a9 9 0 0 1 -1.6-4.23 5.7 5.7 0 0 1 2.07-4.86 3 3 0 0 1 2.11-.32s2.06-3 5.26-3 7.3 4.7 9.29 7.25a8 8 0 0 1 .87 8.23z"
        fill="#721813" />
    <path
        d="m44.44 12.32s-1.25-3.13-2.44-4.16-2.1-1.68-3-.81a9 9 0 0 1 -2 1.62c-1.28.63-3 .86-3.46 1.19-.26.19-.42 1.79-.25 3.71l-.29-.24c-.26-1-.8-2.66-.35-3.47.59-1.08 2.85-.95 4.43-1.73s1.77-2.91 4.49-1.43a26.29 26.29 0 0 1 4.32 3 9.65 9.65 0 0 0 -1.45 2.32z"
        fill="#581210" />
    <path
        d="m51 16.7c-.06.12-.12.24-.19.36-1.37 2.39-4.81 5.83-6.09 6.16-.09-.94-.32-3.14-.56-4.64a7.06 7.06 0 0 0 .82-3s1.78-.78 2.21-2.07a4 4 0 0 0 -.38-2.68 15.66 15.66 0 0 1 4.19 5.87z"
        fill="#581210" />
    <path
        d="m46.82 24.81a6.57 6.57 0 0 1 -4.27 2.26c-2.33.33-3.08-1-3.35-1.62s1.13-1.19 1.24-1.51a1.2 1.2 0 0 0 0-.45 12.07 12.07 0 0 0 -.44-1.49 4.3 4.3 0 0 0 2.14-.94 7.24 7.24 0 0 0 1.86-2.06 3.59 3.59 0 0 0 .21-.38c0 .09 0 .18.05.28.18 1.23.35 2.83.46 3.83v.53s0 .45 0 .45l1.88.2v.07c.09.09.16.4.22.83z"
        fill="#f1b5ab" />
    <path
        d="m44.67 22.69a13.57 13.57 0 0 1 -4.28.8 12.07 12.07 0 0 0 -.39-1.49 4.3 4.3 0 0 0 2.14-.94 7.24 7.24 0 0 0 1.86-2.06l.26-.1c.13 1.19.3 2.79.41 3.79z"
        fill="#e98582" />
    <path
        d="m47.19 13.46c-.43 1.29-2.19 2.07-2.19 2.07a7.06 7.06 0 0 1 -.82 3 7.51 7.51 0 0 1 -2 2.52 6 6 0 0 1 -.52.36 3.92 3.92 0 0 1 -1.66.59c-2.48.27-4.59-1-5.83-4.11a14.86 14.86 0 0 1 -.9-4.07c-.17-1.92 0-3.52.25-3.71.43-.33 2.18-.56 3.46-1.19a9 9 0 0 0 2-1.62 1.22 1.22 0 0 1 1.66-.15 9.28 9.28 0 0 1 1.31 1c1.24 1 2.49 4.16 2.49 4.16s1.08-2.37 1.56-2.42 1.63 2.27 1.19 3.57z"
        fill="#f1b5ab" />
    <path
        d="m47.19 13.46c-.43 1.29-2.19 2.07-2.19 2.07a7.06 7.06 0 0 1 -.82 3 7.51 7.51 0 0 1 -2 2.52 6 6 0 0 1 -.52.36 17.54 17.54 0 0 0 2-6.74c.05-2.65-1.85-5.92-2.91-7.52a9.28 9.28 0 0 1 1.31 1c1.24 1 2.49 4.16 2.49 4.16s.97-2.37 1.45-2.42 1.63 2.27 1.19 3.57z"
        fill="#f5948d" />
    <path
        d="m19.91 36.69a7.55 7.55 0 0 1 -.44 2.13 36.17 36.17 0 0 1 -1.78 4.35 1.05 1.05 0 0 1 -.35.08c-1.09.08-2.84-1.19-3.81-3.8a15.83 15.83 0 0 1 -.81-6.45h.21a9.71 9.71 0 0 0 3.15.81 6.19 6.19 0 0 0 .74 0 3.59 3.59 0 0 0 2-.56 7.48 7.48 0 0 1 1.07 3 2.56 2.56 0 0 1 .02.44z"
        fill="#f1b5ab" />
    <path
        d="m19.91 36.69a7.55 7.55 0 0 1 -.44 2.13 11.17 11.17 0 0 0 -2.65-4.93 3.59 3.59 0 0 0 2-.56 7.48 7.48 0 0 1 1.07 3 2.56 2.56 0 0 1 .02.36z"
        fill="#f5948d" />
    <path
        d="m62.27 51.12c-.89.52-4.35 1-7.31 1 0-.39 0-1.18-.08-2.07-.13-1.84-.36-4.11-.36-4.11s.93-.37 1.52-.45a13.9 13.9 0 0 1 3.81 1.17 8 8 0 0 1 2.92 2.25 2.1 2.1 0 0 1 .22.31c.01.43.01 1.49-.72 1.9z"
        fill="#f1b5ab" />
    <path
        d="m62.27 51.12c-.89.52-4.35 1-7.31 1 0-.39 0-1.18-.08-2.07 3 .5 3.89.43 5.5 0a9.1 9.1 0 0 0 2.39-1.14 2.1 2.1 0 0 1 .22.31c.01.43.01 1.49-.72 1.9z"
        fill="#f5948d" />
    <path d="m41.33 11.15a3 3 0 0 0 -2.47-.29c-1.3.49-1 1.06-.53 1.14s2.47-.81 3-.85z"
        fill="#721813" />
    <path
        d="m35.62 12.46a1.94 1.94 0 0 0 -2.47.8l.05.65a5.83 5.83 0 0 1 1.63-.91c.71-.17 1.06-.41.79-.54z"
        fill="#721813" />
    <path d="m34.48 23.83h.33z" fill="#804f4a" />
    <path d="m34.37 23.84a2.42 2.42 0 0 0 -1.71.92 3.2 3.2 0 0 1 1.21-.82 3.65 3.65 0 0 1 .5-.1z"
        fill="#5e3431" />
    <path d="m63 49a.55.55 0 0 0 0-.24c0 .29.07.47.07.47s-.07-.23-.07-.23z" fill="#f1b5ab" />
    <path d="m34.78 14.72c0 .45-.17.81-.38.81s-.37-.36-.37-.81.17-.81.37-.81.38.36.38.81z"
        fill="#1e1724" />
    <path d="m38.66 13.68c0 .44-.17.81-.38.81s-.37-.37-.37-.81.17-.81.37-.81.38.36.38.81z"
        fill="#1e1724" />
    <path
        d="m37.09 19.21a3.94 3.94 0 0 0 1.84-.21 12.57 12.57 0 0 0 2.64-1.43s-.78 2.59-2.1 3-2.38-1.36-2.38-1.36z"
        fill="#fff" />
    <path
        d="m35.39 18.27a.06.06 0 0 1 -.06 0 .07.07 0 0 1 0-.07s.16-.77.32-2.05a17.08 17.08 0 0 0 0-3 .07.07 0 0 1 .05-.15.08.08 0 0 1 .09.07 17.53 17.53 0 0 1 0 3.05c-.12 1-.25 1.69-.3 1.95.34-.06 1.34-.28 1.52-.8a.09.09 0 0 1 .16.06c-.26.71-1.71.91-1.77.91z"
        fill="#983222" />
    <path
        d="m45 14.6a.09.09 0 0 1 -.08-.09 9.92 9.92 0 0 1 1-3.06.09.09 0 0 1 .11 0 .08.08 0 0 1 0 .11 9.77 9.77 0 0 0 -1 3 .08.08 0 0 1 -.03.04z"
        fill="#983222" />
    <path
        d="m45.39 13.76h-.16-.07a.09.09 0 0 1 -.06-.1c0-.09.12-.07.15-.07a.91.91 0 0 0 .74-.22.29.29 0 0 0 .15-.23c0-.25-.42-.54-.57-.64a.08.08 0 1 1 .08-.14c.06 0 .64.39.65.77a.43.43 0 0 1 -.22.38 1.26 1.26 0 0 1 -.69.25z"
        fill="#983222" />
    <path
        d="m47 26.71v.38a6.18 6.18 0 0 1 -4.44 1.67h-.08a5.6 5.6 0 0 1 -4.11-1.39v-.4c.6.72 1.81 1.56 4.21 1.55a5.72 5.72 0 0 0 4.42-1.81z"
        fill="#1e2d58" />
    <path
        d="m21.29 39.22a16.34 16.34 0 0 1 -1.21 3.9h-.28a16 16 0 0 0 1.25-4 9.08 9.08 0 0 0 -.22-3.7l.2-.17a9.08 9.08 0 0 1 .26 3.97z"
        fill="#1e2d58" />
    <path
        d="m52.69 36.37a.13.13 0 0 1 -.12-.11 26.3 26.3 0 0 1 1.43-6.75.12.12 0 0 1 .16-.06.12.12 0 0 1 .06.16 26.14 26.14 0 0 0 -1.36 6.64.11.11 0 0 1 -.11.12z"
        fill="#1e2d58" />
    <path d="m44.84 36.12.54 1.84 5.38-.19-.19-1.94z" fill="#d64e27" />
    <path
        d="m49.13 41.7a.11.11 0 0 1 -.11-.08.11.11 0 0 1 .08-.15 4.78 4.78 0 0 0 3.37-3.81.14.14 0 0 1 .13-.12.12.12 0 0 1 .11.13 5.05 5.05 0 0 1 -3.54 4z"
        fill="#47211f" />
    <path
        d="m35.49 41.81a8.19 8.19 0 0 1 -2.39-1.41.12.12 0 0 1 .18-.16 8.36 8.36 0 0 0 2.3 1.35.13.13 0 0 1 .07.16.14.14 0 0 1 -.16.06z"
        fill="#47211f" />
    <path d="m62.57 46.48a7.23 7.23 0 0 0 -6.93-1.79c0-.07 0-.15-.07-.23a7.45 7.45 0 0 1 6.94 1.65z"
        fill="#1e2d58" />
    <path
        d="m18.37 19.88a.1.1 0 0 1 -.1-.07c-.19-1-1.23-2.56-1.65-2.56a.22.22 0 0 0 -.14.12 3.53 3.53 0 0 0 -.17 1.63.09.09 0 0 1 -.18.06 3.68 3.68 0 0 1 .16-1.82.45.45 0 0 1 .28-.2c.62-.09 1.71 1.84 1.89 2.71a.09.09 0 0 1 -.08.11z"
        fill="#5c2f2c" />
    <path
        d="m17.69 27.09a8.37 8.37 0 0 1 -1.69 2.09 41 41 0 0 1 -5.86 4.08c-1.19.68-2.38.87-2.62.16a2.6 2.6 0 0 1 0-.89 14 14 0 0 1 .93-3.65c.51-1.08.13-1.91.3-3.21s.83-1.05 1.32-1.19.59-1.3 1.57-2.11a25.52 25.52 0 0 0 2.81-2.54 4.64 4.64 0 0 1 1.26-1.25 1 1 0 0 1 .47-.13s.29 1.3.51 2.49a9.93 9.93 0 0 0 1 2.56 26.34 26.34 0 0 1 0 3.59z"
        fill="#ee3852" />
    <path
        d="m17.69 27.09a8.37 8.37 0 0 1 -1.69 2.09 41 41 0 0 1 -5.86 4.08c-1.19.68-2.38.87-2.62.16a2.6 2.6 0 0 1 0-.89 27.45 27.45 0 0 0 5.76-3.77c1.14-1.23 2-4.61 2.1-5.61a30.85 30.85 0 0 1 .33-4.57 1 1 0 0 1 .47-.13s.29 1.3.51 2.49a9.93 9.93 0 0 0 1 2.56 26.34 26.34 0 0 1 0 3.59z"
        fill="#db2245" />
    <path
        d="m77.24 122.13s-.45.53-1.09 1.22a28.38 28.38 0 0 1 -2.52 2.51c-1.45 1.18-2.23.59-2.23.59.49-.43 2.23-5.74 2.23-5.74l.36-.47.66-.84z"
        fill="#d64e27" />
    <path d="m77.24 122.13s-.45.53-1.09 1.22l-2.15-3.11.66-.84z" fill="#bf3a27" />
    <path
        d="m37.2 125.31v1.14h-7.41a4.54 4.54 0 0 1 3.57-2.11 6.39 6.39 0 0 1 3.07.52 3.9 3.9 0 0 1 .77.45z"
        fill="#d64e27" />
    <path d="m37.2 125.31v1.14h-2.71l1.94-1.59a3.9 3.9 0 0 1 .77.45z" fill="#bf3a27" />
    <path d="m66.79 0h2.35v125.65h-2.35z" fill="#a6d6b4" />
    <path d="m25.47 0h2.35v125.65h-2.35z" fill="#a6d6b4" />
    <g mask="url(#e)">
        <path d="m0 0h26.65v125.65h-26.65z" fill="url(#f)" opacity=".4" />
    </g>
    <path d="m27.21.4h64.58v125.65h-64.58z" fill="#b2dbdb" opacity=".1" />
    <path
        d="m18.36 9.89s-3.53 1.95-3.7 1.46.08-1.38-1.34-.69a7.4 7.4 0 0 1 -3.11.69c-.21 0-.21 2.65-1.87 3.37s-1-1.35-1.46-.7-.88 2.68-1.13 2.19-1.22.16-1.38 1.17.32 3-.41 2.41-1.7-1.16-2.1.1.89 5.67 1.54 7.85-1 4.33-.9 5.28 2.11-.06 2 .85-2.11 4.54-1.3 4.83.81.67 1.46.92 1.57-2.44 1.9-1.62.35 2.45.94 2.23 1.57-2.23 1.57-1.41.32 2.27 1.7 1.67 1.69-2.16 1.86-1.79.82 1.6 2.44.54 2.07-2.34 2.61-1.86 1.66 0 2.12-1.64-.08-4.29.79-4 1 .41 1.77-1.29-1.85-4-1-4.32 1.14-.82 2.19-1.86 1.38-3.84.32-3.74-2.27-.46-1.54-1.11 2-3.48.73-3.32-2.66-.85-1.7-1.8-.54-3.77-.8-2.93-1.79 1.58-2 .6.58-1.68-.2-2.08z"
        fill="#7ec9d4" opacity=".2" />
    <path
        d="m49.82 65.55a4.53 4.53 0 0 1 -2.15 1.9 7.12 7.12 0 0 1 -1.86.61 5.33 5.33 0 0 1 -4.76-1s-1.31-8-1.48-10.25a6.56 6.56 0 0 1 1.62-4.21s.41 0 2-.16c.41 0 .78-.11 1.09-.17a6.27 6.27 0 0 0 1.4-.47c1.35.39 2.16 2.26 2.81 4.64a88.08 88.08 0 0 1 1.33 9.11z"
        fill="#d64e27" />
    <path d="m45.71 51.78c-1.11.69-4.52.8-4.52.8l-.14-7.58.68-.1 1-.14 1.31 3z" fill="#d64e27" />
    <path d="m43.99 47.82-1.12.05-1.14-2.93.95-.14z" fill="#c23827" />
    <path d="m48.38 43.66v1l-3.32-.18-6.28.86-.19-.65-.53-1.9 7-2.75z" fill="#2b91be" />
    <path
        d="m49.82 65.55a4.53 4.53 0 0 1 -2.15 1.9c-.16-2.34-.44-6.15-.77-8.93a11.49 11.49 0 0 0 -2.59-6.27 6.27 6.27 0 0 0 1.4-.47c1.35.39 2.16 2.26 2.81 4.64a88.08 88.08 0 0 1 1.3 9.13z"
        fill="#c23827" />
    <path
        d="m55 50.75v1.34a2.07 2.07 0 0 1 0 .23c-1.18.81-8.05-.17-8.05-.17a10.24 10.24 0 0 1 -4.84.86c-.92-.16-1.31-.49-1.46-.82a.94.94 0 0 1 -.07-.62.6.6 0 0 1 0-.16v-.06a1.06 1.06 0 0 1 -.83-1.41 1.24 1.24 0 0 1 0-.15s-1-.12-1-1c-.06-.6.74-.81 1.17-.88a1.47 1.47 0 0 1 .26 0l-.18-.13c-.4-.24-1.16-.79-.84-1.21s4.07-.49 4.07-.49a22 22 0 0 0 4.34.2c2-.16 6.59-.4 6.59-.4.84-.51.9 2.8.84 4.87z"
        fill="#ffc40c" />
    <path
        d="m42.87 47.87a.1.1 0 0 1 -.07.09 12.09 12.09 0 0 1 -1.3.07 14.18 14.18 0 0 1 -1.5-.09 1.47 1.47 0 0 1 .26 0l-.26-.16a12.44 12.44 0 0 0 2.78 0 .08.08 0 0 1 .09.09z"
        fill="#5c2f2c" />
    <path
        d="m42.33 49.86a.08.08 0 0 1 -.07.09 13.39 13.39 0 0 1 -1.34.07 6.85 6.85 0 0 1 -1.15-.08 1.24 1.24 0 0 1 0-.15 9.84 9.84 0 0 0 2.42 0 .07.07 0 0 1 .14.07z"
        fill="#5c2f2c" />
    <path
        d="m43.55 51.57a.08.08 0 0 1 -.08.09c-.38 0-.74 0-1.07 0a12.65 12.65 0 0 1 -1.87-.13.6.6 0 0 1 0-.16 14.39 14.39 0 0 0 2.88.09s.13.07.14.11z"
        fill="#5c2f2c" />
    <path
        d="m55 50.75v1.34a2.07 2.07 0 0 1 0 .23c-1.18.81-8.05-.17-8.05-.17a10.24 10.24 0 0 1 -4.84.86c-.92-.16-1.31-.49-1.46-.82a10.22 10.22 0 0 0 4.24-.49l3-1.21s4.29.99 7.11.26z"
        fill="#e6ab23" />
    <path d="m48.38 44.37v.29l-3.31-.18-6.29.86-.19-.65c1.53-.42 5.79-1.53 5.79-1.53z"
        fill="#0d64a5" />
    <path d="m38.6 44.72-1.32.13-.15-.49-.13-.51a8.8 8.8 0 0 0 1.26-.41l.16.55z" fill="#3d66b0" />
    <path d="m38.6 44.72-1.32.13-.15-.49 1.27-.37z" fill="#065c93" />
    <path
        d="m40.9 45a26.12 26.12 0 0 1 -2.9 3.19 2.34 2.34 0 0 1 -.51.37c-.61.24-.61-.33 0-1a10 10 0 0 0 .87-1.19c.38-.57.68-1.1.68-1.1z"
        fill="#1f4fa1" />
    <path d="m40.9 45a26.12 26.12 0 0 1 -2.9 3.19 5.37 5.37 0 0 0 .36-1.8c.38-.57.68-1.1.68-1.1z"
        fill="#1d4380" />
    <path
        d="m41.42 54.47c-.65-.12-1.61 1.53-.89 5.52s1.75 2.8 1.8 2.32-.26-1.89-.29-3.65.24-4.03-.62-4.19z"
        fill="#eb5729" />
</svg>