<svg viewBox="0 0 111.37 123.95" xmlns="http://www.w3.org/2000/svg"><path d="m36.78 120.82-.92.48h-.06s-9.64-15.24-10.73-19 .74-7.63.74-8.38-2.71-6.47-4.26-10.56-6.43-17.23-6.55-17.64.28 17.26.23 23.14-2.23 32.48-2.23 32.48l-.67.26-.11.05h-.13l-.25.1s-5.3-14.25-5.71-18.52 1.28-6.53 1.57-6.88a5 5 0 0 0 .46-1.56s-3.16-11.54-4.5-16.32-3.93-13.05-3.66-18.47 4.81-10.1 6-10.79a19.62 19.62 0 0 1 1.82.9l.23.13c.21.13.43.26.64.41a5.28 5.28 0 0 1 1.4 1.27c1 1.45 6.65 8.49 13.31 4.16 2.17 4.15 7 20.48 8 29.08s5.38 35.66 5.38 35.66z" fill="#c6662c"/><path d="m12.17 121.65h-.13l-.25.1s-5.3-14.25-5.71-18.52 1.33-6.53 1.62-6.88a5 5 0 0 0 .46-1.56s-3.16-11.54-4.5-16.32-3.93-13.05-3.66-18.47 4.81-10.1 6-10.79a19.62 19.62 0 0 1 1.82.9l.23.13c.21.13.43.26.64.41-1.41 2.17-4.52 6.69-4.69 12.87-.24 6.74 5.12 27.48 5.66 31.94 0 0-1.52 3.39-.66 9.74.65 4.91 2.41 13.03 3.17 16.45z" fill="#b85527"/><path d="m35.86 121.3h-.06s-9.64-15.24-10.73-19 .74-7.63.74-8.38-2.71-6.47-4.26-10.56-6.43-17.23-6.55-17.64l12.68 27.14c.25 4.94 1.4 13.24 2.81 16.88 1.03 2.65 3.9 8.55 5.37 11.56z" fill="#b85527"/><path d="m31.65 41.54a8.28 8.28 0 0 0 -3.72 1.71 10.25 10.25 0 0 0 -1.45 1.36 1.19 1.19 0 0 0 -.05-.25c-.15-.78-.65-2.86-.76-3.35a15.49 15.49 0 0 0 -.27-2 8.53 8.53 0 0 0 1.5-.57 4.35 4.35 0 0 0 2.1-1.86c.75-1.74.11-5-.35-7.16s-1-5.08-1-5.83l1.72 1.85s1.17 4 1.75 7a67.08 67.08 0 0 1 .53 9.1z" fill="#f79738"/><path d="m27.93 43.25a10.25 10.25 0 0 0 -1.45 1.36 1.19 1.19 0 0 0 -.05-.25c-.15-.78-.65-2.86-.76-3.35a15.49 15.49 0 0 0 -.27-2 8.53 8.53 0 0 0 1.5-.57 18.57 18.57 0 0 1 1.03 4.81z" fill="#e18726"/><path d="m16.07 24.92a46.63 46.63 0 0 1 -4.63 7.5c-.67.88-1.61 2.08-1.61 2.08a16.88 16.88 0 0 1 -5.24.88c-1 0-1.74 0-1.74 0-.4-1.43-.11-2.82 1.15-5.25a40.06 40.06 0 0 1 2.71-4.37 44.83 44.83 0 0 1 3.47-4.34c2.77-3.06 3.75-2.89 6.11-3.06 0-.02.93 3.69-.22 6.56z" fill="#f79738"/><path d="m5 31.15a11.51 11.51 0 0 0 -.4 4.23c-1 0-1.74 0-1.74 0-.4-1.43-.11-2.82 1.15-5.25a40.06 40.06 0 0 1 2.71-4.37c-.63 1.89-1.41 4.32-1.72 5.39z" fill="#e18726"/><path d="m29 36.58a5.19 5.19 0 0 1 -3 2.25c-.37.13-.62.2-.62.2a15.49 15.49 0 0 1 .27 2c.5 6.63-2.3 15.07-2.3 15.07-6.66 4.33-12.32-2.71-13.31-4.16a5.14 5.14 0 0 0 -1.33-1.23 17 17 0 0 0 -2.71-1.5 15.8 15.8 0 0 0 5.43-9.21 22.69 22.69 0 0 0 0-7.61 46.35 46.35 0 0 0 4.61-7.47c1.15-2.87.22-6.58.22-6.58l4.39 1.15 2.69 3.21 2.81-1.85 1.42 2.74c.06.75.58 3.64 1 5.83.16.76.35 1.65.48 2.55a9.33 9.33 0 0 1 -.05 4.61z" fill="#263b7f"/><path d="m13 35a10.53 10.53 0 0 1 -.43 7c-1 2.69-2.75 6.47-3.79 8.69a17 17 0 0 0 -2.78-1.48 15.8 15.8 0 0 0 5.43-9.21 22.69 22.69 0 0 0 0-7.61c.24-.31 2.17-2.77 2.46-3.37 0 .3-.91 6.31 2 7.5a4.25 4.25 0 0 1 -2.89-1.52z" fill="#212a60"/><path d="m38.25 8.43a4.21 4.21 0 0 1 -4.15 0 1.57 1.57 0 0 1 -.62-.43.71.71 0 0 1 -.08-.15s0 1-3.07.39a6.87 6.87 0 0 1 -2.71-1 1.63 1.63 0 0 1 -.71-.8s-1.17 1.77-1.91 2.9c0 0 .43-1.86-.74-2.12s-2.16 1.34-1.82 3a3.44 3.44 0 0 0 1.39 2.29v.31a10.85 10.85 0 0 0 .23 2.28.29.29 0 0 0 0 .09 6 6 0 0 0 1.7 3.25 5.43 5.43 0 0 0 .88.63l.23.13a7.22 7.22 0 0 0 5.67.32 6.36 6.36 0 0 0 .75-.34c2-1.13 3.72-4.55 4.41-6.76a10.76 10.76 0 0 0 .4-1.72 22.14 22.14 0 0 0 .15-2.27z" fill="#f1b5ab"/><path d="m27.62 7.24c-2.12 2.16-3.09 5.44-3.53 8a.29.29 0 0 1 0-.09 10.85 10.85 0 0 1 -.23-2.28v-.31a3.44 3.44 0 0 1 -1.39-2.29c-.34-1.69.65-3.29 1.82-3s.71 2.07.71 2.07c.73-1.13 1.9-2.9 1.9-2.9a1.63 1.63 0 0 0 .72.8z" fill="#f5948d"/><path d="m26.9 19.23c-.19.26-.5.7-.86 1.18-.83 1.1-1.94 2.41-2.42 2.39-.82-.05-1.6-2.73-1.51-3.33a12.8 12.8 0 0 1 .89-2.06 16.48 16.48 0 0 0 1.05-2.28 6 6 0 0 0 1.72 3.34 5.9 5.9 0 0 0 1.13.76z" fill="#f1b5ab"/><path d="m26.9 19.23c-.19.26-.5.7-.86 1.18a6.71 6.71 0 0 1 -3-3 16.48 16.48 0 0 0 1.05-2.28 6 6 0 0 0 1.72 3.34 5.9 5.9 0 0 0 1.09.76z" fill="#f5948d"/><path d="m10.67 37.25a54.79 54.79 0 0 1 -2.37 5.62c-.15.29-.3.56-.45.82-4.68-6.45-5-8.33-5-8.33a15.23 15.23 0 0 0 1.65 0 20.28 20.28 0 0 0 5.33-.88 1.67 1.67 0 0 0 .18 1c.2.52.51 1.37.66 1.77z" fill="#f1b5ab"/><path d="m8.3 42.87c-.15.29-.3.56-.45.82-4.68-6.45-5-8.33-5-8.33a15.23 15.23 0 0 0 1.65 0c.58 2.19 2.69 5.73 3.8 7.51z" fill="#f5948d"/><path d="m31.65 49a10.57 10.57 0 0 0 -3.46 1 9.59 9.59 0 0 0 -1.1.58c-.22-3.42-.59-5.86-.65-6.2a1.43 1.43 0 0 1 0 .21 10.05 10.05 0 0 1 1.56-1.4 8.11 8.11 0 0 1 3.64-1.65 27.38 27.38 0 0 1 .01 7.46z" fill="#f1b5ab"/><path d="m28.19 50a9.59 9.59 0 0 0 -1.1.58c-.22-3.42-.59-5.86-.65-6.2a1.43 1.43 0 0 1 0 .21 10.05 10.05 0 0 1 1.56-1.4 64.45 64.45 0 0 1 .19 6.81z" fill="#f5948d"/><path d="m58 123.87h19.2a3.44 3.44 0 0 1 2-.14c1.3.21 2.92.39 2.94-.06s-1.12-.77-3.11-.9a17.07 17.07 0 0 1 -2.8-.54 6.08 6.08 0 0 1 -2.45-.49 2.4 2.4 0 0 0 -2.11-.33c-1.13.22-1.93 1-3.72.76s-2.86-.72-4.88 0a5 5 0 0 1 -3.75.29c-.9-.23-2.95 1.15-1.32 1.41z" fill="#a6ddeb"/><path d="m60.44 118a3.83 3.83 0 0 0 -4 1.3c-.86 1.12-.95 3.14-.2 3.72a2.43 2.43 0 0 0 2.22.43 2.44 2.44 0 0 1 1.48-.11 1.31 1.31 0 0 0 1.06-.09c.41-.14.64.21 1.36.15s1.73-.52 1.82-.38a.62.62 0 0 0 .8.23 1.18 1.18 0 0 1 1.19 0 2.91 2.91 0 0 0 2.3-.46c.52-.46.06-1.09 0-1.3s-.14-.56-.86-1.09a13.37 13.37 0 0 0 -3.34-1.7c-1.08-.39-2.82-.36-3.83-.7z" fill="#d64e27"/><path d="m22.28 19-1.6.53.32 5.39 2.4-2.22a5.59 5.59 0 0 1 -1.12-3.7z" fill="#f79738"/><path d="m24.07 22.6 1.75 2.61.92-2.41-.74-2.39a14.87 14.87 0 0 1 -1.93 2.19z" fill="#f79738"/><path d="m11.79 121.8c.31-.12 2-1.33 3.24-1a4.89 4.89 0 0 1 2.19 2h-5.43z" fill="#1e2d58"/><path d="m35.8 121.34a4.09 4.09 0 0 1 2.71-1c1.67 0 2.54 2.19 2.54 2.19h-4.79z" fill="#1e2d58"/><path d="m12.2 40.32a9.66 9.66 0 0 1 -.87 2c-.39.7-.85 1.44-1.27 2.07s-.77 1.14-1 1.43l-.19.27a5.19 5.19 0 0 1 -1.3-1.93c.09-.13.18-.28.27-.44s.32-.57.48-.88a55.73 55.73 0 0 0 2.34-5.56l.26-.73 1.34 3.45a1.08 1.08 0 0 1 -.06.32z" fill="#a6ddeb"/><path d="m31.13 56.28c-.52 2.74-1.42 6.92-1.42 6.92a9.47 9.47 0 0 1 .43 3.7c-.2 1.87-1.15 2.22-1.47 2s.06-1.35 0-2.45a5.81 5.81 0 0 0 -.57-2.1s-.81 1.47-1.29 1.2a.05.05 0 0 1 0 0c-.38-.32.46-1.75.46-1.75s0-2 0-3.69-.27-6.92-.27-6.95a6 6 0 0 0 1-.63 10.76 10.76 0 0 1 2.19-1.39 13 13 0 0 1 1.75-.48c-.08.42-.34 3.1-.81 5.62z" fill="#a6ddeb"/><path d="m32.51 48.69-.17 1.91s-.16 0-.45.06a13 13 0 0 0 -1.75.48 10.76 10.76 0 0 0 -2.14 1.39 6 6 0 0 1 -1 .63c-.26.13-.47.16-.59 0a2.55 2.55 0 0 1 -.41-1.82 12.36 12.36 0 0 1 2.16-1.34 12.59 12.59 0 0 1 4.35-1.31z" fill="#a6ddeb"/><path d="m38.25 8.43a22.24 22.24 0 0 1 -.12 2.3 10.24 10.24 0 0 0 .12-2.3z" fill="#f1b5ab"/><path d="m61.57 118.91a.69.69 0 0 1 -.58-.31l-43.18-65.69a.69.69 0 1 1 1.19-.76l43.18 65.69a.69.69 0 0 1 -.2 1 .65.65 0 0 1 -.41.07z" fill="#a6d6b4"/><path d="m19.24 53.51c-.44.32-.38-.75-.38-.75s-.08 1.24-.47 1.24-.48-1.3-.63-1.36.47 1.38 0 1.36c-.28 0-.48-.38-.6-.67.09.31.13.73-.3.66a1.64 1.64 0 0 1 -.51-.19c-1.38-.75-2-3.7-2-3.7a17.64 17.64 0 0 1 -5.32-4.34c-.03-.05-.03-.09-.03-.11l.85-1.41 2.35-3.92 4.7 7.59a14.72 14.72 0 0 1 2.34 2.34 3.08 3.08 0 0 1 0 3.26z" fill="#a6ddeb"/><path d="m18.82 37.3c-2.48-.23-4.28-1-5.35-2.45a5.52 5.52 0 0 1 -1-4 .07.07 0 0 1 0-.06 7.79 7.79 0 0 0 1.75-8.46.13.13 0 0 1 .06-.17.12.12 0 0 1 .17.06 8 8 0 0 1 -1.77 8.71 5.42 5.42 0 0 0 1 3.8c1 1.34 2.76 2.13 5.16 2.35a.13.13 0 0 1 .12.14.14.14 0 0 1 -.14.08z" fill="#a6ddeb"/><path d="m28.65 52.15a.11.11 0 0 1 -.1 0 .13.13 0 0 1 0-.18 7.14 7.14 0 0 1 3.76-1.45.11.11 0 0 1 .14.11.12.12 0 0 1 -.11.14 7 7 0 0 0 -3.61 1.4.16.16 0 0 1 -.08-.02z" fill="#263b7f"/><path d="m12.28 121.6-.24.1c-.79-3.15-3.58-14.39-3.95-17.53a33.57 33.57 0 0 1 .42-7.51 26.7 26.7 0 0 0 .36-4c-.1-1.71-1.38-6.56-2.51-10.84-.37-1.44-.74-2.83-1-4-1.96-7.7-2.56-13.36-1.86-17.39a29.52 29.52 0 0 1 4.29-10.32l.23.13a29.15 29.15 0 0 0 -4.26 10.23c-.7 4-.1 9.62 1.81 17.21.31 1.2.67 2.58 1 4 1.18 4.32 2.43 9.18 2.55 10.92a25.84 25.84 0 0 1 -.35 4.1 33.62 33.62 0 0 0 -.43 7.44c.37 3.12 3.14 14.28 3.94 17.46z" fill="#f79738"/><path d="m23.71 11a.1.1 0 0 1 -.05-.12 5.48 5.48 0 0 0 0-2.92.08.08 0 0 1 .05-.11.09.09 0 0 1 .11.06 5.4 5.4 0 0 1 0 3 .08.08 0 0 1 -.11.09z" fill="#983222"/><path d="m23.78 10.22a.48.48 0 0 1 -.32-.11.62.62 0 0 1 -.18-.54.63.63 0 0 1 .24-.57.5.5 0 0 1 .48 0 .09.09 0 0 1 -.06.16.39.39 0 0 0 -.29 0 .49.49 0 0 0 -.16.39.53.53 0 0 0 .12.4.39.39 0 0 0 .31 0 .09.09 0 0 1 .1.06.09.09 0 0 1 -.06.11.49.49 0 0 1 -.18.1z" fill="#983222"/><path d="m31 17.93a3.92 3.92 0 0 1 -2.91-1.65.13.13 0 0 1 0-.18.13.13 0 0 1 .18 0 3.61 3.61 0 0 0 2.94 1.53.14.14 0 0 1 .14.12.13.13 0 0 1 -.12.14z" fill="#cb3d27"/><path d="m33.06 16.94a4.74 4.74 0 0 1 -1.75-.78.08.08 0 0 1 0-.11.08.08 0 0 1 .12 0c1 .59 1.59.8 1.7.74a27.46 27.46 0 0 0 .77-4.09.08.08 0 0 1 .1-.1.1.1 0 0 1 .08.1c-.22 1.52-.62 4.1-.86 4.22z" fill="#983222"/><path d="m28.18 9.94a2.65 2.65 0 0 1 2.22-.88 2.09 2.09 0 0 1 1.6 1.54s-.34-.6-1.92-.78-1.9.12-1.9.12z" fill="#601818"/><path d="m34.27 11.88s1.07-.81 1.9-.49.78 1.67.78 1.67a2.63 2.63 0 0 0 -1.18-.87 2.63 2.63 0 0 0 -1.5-.31z" fill="#601818"/><path d="m30.9 12.71c-.36.52-.81.84-1 .7s-.07-.67.29-1.2.81-.83 1-.7.07.68-.29 1.2z" fill="#1e1724"/><path d="m35.42 14.61c-.34.49-.78.78-1 .64s-.09-.65.25-1.14.77-.77 1-.64.08.65-.25 1.14z" fill="#1e1724"/><path d="m10.66 43.55a.1.1 0 0 1 -.07 0 .13.13 0 0 1 0-.18c1.58-2.17 1.54-3.37 1.54-3.37a.12.12 0 0 1 .12-.14.13.13 0 0 1 .14.12c0 .05.06 1.3-1.62 3.53a.13.13 0 0 1 -.11.04z" fill="#263b7f"/><path d="m40.24 11.24c-.73 2.6-2.77 2-2.77 2a11.5 11.5 0 0 0 .66-2.48 10.24 10.24 0 0 0 .12-2.3 4.21 4.21 0 0 1 -4.15 0 3.21 3.21 0 0 1 -.62-.46.71.71 0 0 1 -.08-.15s0 1-3.07.39-3.42-1.77-3.42-1.77-1.17 1.74-1.91 2.87a2.92 2.92 0 0 0 -.08-1.59.89.89 0 0 0 -.66-.53c-1.17-.26-2.16 1.34-1.82 3a4 4 0 0 0 .67 1.57 2.62 2.62 0 0 0 .72.72v.31c-.11.67.35 2 .22 2.87a8.09 8.09 0 0 1 -2 4.48 4.3 4.3 0 0 1 -2.55.91c-1.81.17-3.83-.28-4-1.43-.3-1.82.69-4.76 4.67-10s7.91-8.23 11.48-9.31 4.3.78 4.3.78c1-.82 2.43.52 3.12 1.95a14.92 14.92 0 0 1 .93 2.93 11.44 11.44 0 0 1 .24 5.24z" fill="#732725"/><path d="m24.06 15.72a8.09 8.09 0 0 1 -2 4.48 4.3 4.3 0 0 1 -2.55.91 6.8 6.8 0 0 0 2.83-4.91 28.42 28.42 0 0 1 .74-4.38 2.62 2.62 0 0 0 .72.72v.31c-.07.67.39 2.04.26 2.87z" fill="#591918"/><path d="m40.24 11.24c-.73 2.6-2.77 2-2.77 2a11.5 11.5 0 0 0 .66-2.48 10.24 10.24 0 0 0 .12-2.3 4.21 4.21 0 0 1 -4.15 0 3.21 3.21 0 0 1 -.62-.46.71.71 0 0 1 -.08-.15s0 1-3.07.39-3.42-1.77-3.42-1.77-1.17 1.74-1.91 2.87a2.92 2.92 0 0 0 -.08-1.59 6 6 0 0 1 1.81-1.66s.66 1.08 3.36 1.13 3.38-.48 3.38-.48a2.62 2.62 0 0 0 3.53 1.45 6.22 6.22 0 0 0 3-2.19 11.44 11.44 0 0 1 .24 5.24z" fill="#591918"/><path d="m31.65 26.87c-1.65.84-3.65-1.75-4.49-2.87a.86.86 0 0 0 -.07-.1 5.63 5.63 0 0 1 -1-3.58l.58-1.24.23.13a7.14 7.14 0 0 0 5.67.32s0 .2 0 .54c.19 1.58.43 6.08-.92 6.8z" fill="#732725"/><path d="m32.62 20.09c-1.52.26-5 1.17-5.46 3.93a.86.86 0 0 0 -.07-.1 5.63 5.63 0 0 1 -1-3.58l.58-1.24.23.13a7.14 7.14 0 0 0 5.67.32s.03.2.05.54z" fill="#591918"/><path d="m29 36.58a5.19 5.19 0 0 1 -3 2.25c3.06-1.68 3-7 3-7l.07.13a9.33 9.33 0 0 1 -.07 4.62z" fill="#212a60"/><path d="m25.4 39.16a.15.15 0 0 1 -.13-.11.13.13 0 0 1 .11-.15s2.58-.55 3.49-2.38-.19-6.29-.2-6.34a.13.13 0 0 1 .09-.16.14.14 0 0 1 .16.1c0 .19 1.15 4.57.18 6.51s-3.56 2.5-3.67 2.52z" fill="#a6ddeb"/><path d="m15 50.31a11.59 11.59 0 0 0 1.86 3.69 1.64 1.64 0 0 1 -.51-.19c-1.38-.75-2-3.7-2-3.7a17.64 17.64 0 0 1 -5.32-4.34l-.19.27a5.19 5.19 0 0 1 -1.3-1.93c.09-.13.18-.28.27-.44s.32-.57.48-.88a6.18 6.18 0 0 0 1.52 1.43l.21.12a2.9 2.9 0 0 0 .61.25s2.79 4.85 4.37 5.72z" fill="#66c8ce"/><path d="m28 52.53v.26s0 10.65-.55 11.71c-.15.29-.37.66-.61 1-.38-.32.46-1.75.46-1.75s0-2 0-3.69-.3-6.87-.3-6.9c-.26.13-.47.16-.59 0a2.55 2.55 0 0 1 -.41-1.82 12.36 12.36 0 0 1 2.16-1.34c-.07.84-.16 2-.16 2.53z" fill="#66c8ce"/><path d="m58.73 118.91c-1.06 1.09-.43 2.11 1.68 2.14s5.14.12 5-1.1-1.68-1.79-3.8-1.76-2.61.43-2.88.72z" fill="#212a60"/><path d="m76.45 119.65a.35.35 0 0 1 -.35-.35v-2.8a.35.35 0 0 1 .7 0v2.8a.35.35 0 0 1 -.35.35z" fill="#49405e"/><path d="m105.31 120a.35.35 0 0 1 -.34-.35v-3.15a.35.35 0 1 1 .69 0v3.19a.35.35 0 0 1 -.35.31z" fill="#49405e"/><path d="m91.38 95.17v19.48h-14.19l-4.52-17.94-.08-.35-.3-1.19z" fill="#f79738"/><path d="m111.2 95.17-.36 1.19-.1.35-5.43 17.94h-13.93v-19.48z" fill="#d64e27"/><path d="m75.19 114.22h31.25v2.6h-31.25z" fill="#a6d6b4"/><path d="m77.7 120.42c0 1-.56 1.79-1.25 1.79s-1.26-.8-1.26-1.79.57-1.79 1.26-1.79 1.25.8 1.25 1.79z" fill="#1e2d58"/><path d="m106.7 120.47c0 1-.56 1.79-1.26 1.79s-1.25-.8-1.25-1.79.56-1.79 1.25-1.79 1.26.81 1.26 1.79z" fill="#1e2d58"/><g fill="#212a60"><path d="m73.87 107.09a.15.15 0 0 1 -.11 0 .17.17 0 0 1 0-.24l9.52-11.74a.18.18 0 0 1 .25 0 .17.17 0 0 1 0 .24l-9.53 11.65a.16.16 0 0 1 -.13.09z"/><path d="m108.72 107.09a.19.19 0 0 1 -.15-.08l-7.43-11.74a.18.18 0 0 1 .3-.19l7.43 11.75a.17.17 0 0 1 -.06.23.16.16 0 0 1 -.09.03z"/><path d="m76.06 95.35a.18.18 0 0 1 -.16-.18c0-.07.36-6.65 6-6.54 3.18.06 5.07 2.13 5.62 6.13 0 .13 0 .26.05.31a.19.19 0 0 1 0 .1.17.17 0 0 1 -.17.18c-.18 0-.19-.13-.25-.54-.2-1.42-.79-5.74-5.29-5.84-5.25-.12-5.59 6.15-5.6 6.21a.17.17 0 0 1 -.2.17z"/><path d="m90.82 109.17a.18.18 0 0 1 -.16-.11c-.06-.14-.07-.17 10.2-13.57 4.48-5.86 9-11.71 10-13h-8.27l-9.08 12.81a.17.17 0 0 1 -.28-.2l9.12-12.92a.15.15 0 0 1 .14-.07h8.71a.17.17 0 0 1 .16.09.17.17 0 0 1 0 .18c-6.89 9-20 26.05-20.36 26.68a.24.24 0 0 1 -.1.1z"/><path d="m110.84 96.36-.1.35h-38.07l-.08-.35z"/><path d="m77.16 98.38a.18.18 0 0 1 -.16-.18v-1.67a.17.17 0 0 1 .18-.17.17.17 0 0 1 .17.17v1.67a.18.18 0 0 1 -.19.18z"/></g><path d="m84.54 98.23a.17.17 0 0 1 -.17-.15v-1.59a.17.17 0 0 1 .17-.16.17.17 0 0 1 .18.16v1.59a.17.17 0 0 1 -.18.15z" fill="#5b1615"/><path d="m96.14 98.38a.17.17 0 0 1 -.14-.18v-1.67a.17.17 0 1 1 .34 0v1.67a.17.17 0 0 1 -.2.18z" fill="#212a60"/><path d="m107.33 98.38a.18.18 0 0 1 -.17-.18v-1.67a.17.17 0 0 1 .17-.17.17.17 0 0 1 .18.17v1.67a.18.18 0 0 1 -.18.18z" fill="#212a60"/><path d="m93.14 90.93h-4.33l-4.81 23.29h1l3.41-14.11h5.13l2.89 14.11h1.21zm-3.92 3.87.4-2.65h2.83l.29 2.65z" fill="#a8d7b4"/></svg>