<svg viewBox="0 0 115.77 118.31" xmlns="http://www.w3.org/2000/svg"><path d="m51.52 73.82c-.52.6-.88-1.51-.88-1.51s-.07 1.19-.43 1.28-.87-1.43-.87-1.43 0 .79-.36.79c-.22 0-.47-.47-.65-.89-.14-.32-.23-.61-.23-.61a5.67 5.67 0 0 1 -.47-3.22s-.72-2.5-1.15-3.53-1.15-2.3-1.15-2.3l.5-.38c.47-.38 1-.86 1.76-1.36a14.37 14.37 0 0 1 3.11-1.6l.58-.2s-.71 8.22-.64 8.34a7.76 7.76 0 0 1 1.36 2.14c.11.66 0 3.89-.48 4.48z" fill="#d64e27"/><path d="m48.33 72.05c-.14-.32-.23-.61-.23-.61a5.67 5.67 0 0 1 -.47-3.22s-.72-2.5-1.15-3.53-1.15-2.3-1.15-2.3l.5-.38c.47-.38 1-.86 1.76-1.36 0 1.89.31 6.31.74 7.26a12.71 12.71 0 0 0 0 4.14z" fill="#bf3b27"/><path d="m48 77.75a78.38 78.38 0 0 1 .32 11.47c-.26 7.15-1.32 19.78-1.32 19.78h-1.24s-5-18.11-5.67-21.84a10 10 0 0 1 .79-6.39s-4.65-6.71-6.15-9.13-6.8-10.64-6.8-10.64l-2.57 1.9s-.64 4.33-1.27 7.47-2.07 13-2.07 13c2.38 7.11.48 13.94-.2 16.16s-3.33 10.47-3.33 10.47l-.36-.06-1.13-.19s-1.11-22.51-1.19-26c0-1.06-.08-2.77-.14-4.82-.13-4.82-.3-11.47-.22-15.59.1-4.72.78-11.06 1.15-15.59v-.3c.07-1 .14-1.88.17-2.65v-.45c0-.12 0-.24 0-.36a63 63 0 0 1 1.23-7.99.52.52 0 0 0 0-.16s0 0 0 0a0 0 0 0 1 0 0s.72-.33 2-1c.8-.42 1.82-1 3-1.68 3.14-1.83 5.24-3.26 5.24-3.26s1.67-3.53 2.86-6.07c.93-2 1.89-4.12 2.26-4.95.74.13 1.46.28 2.17.43a46.64 46.64 0 0 0 -2.28 4.4c-1.07 2.39-2.85 6.29-2.85 6.29 1.66.52 8 4.53 8 4.53a53.87 53.87 0 0 1 10.06-9.8c.66.5 1.24 1 1.73 1.45-1.22.92-4.11 3.13-5.68 4.58-2 1.86-5.08 5.2-5.08 5.2a31.45 31.45 0 0 1 .57 3.17c.14.88.25 1.6.25 1.6-.17.23-1.6 2.11-2.86 3.93-.76 1.1-1.79 2.89-2.54 4.25l-.16.3c-.41.76-.72 1.33-.81 1.51l.12.28z" fill="#2755a5"/><g fill="#214287"><path d="m20 34.73c-.92 4-2.64 16.33-3 20.47-.26 3.18-1 16.55-1.39 23.69-.13-4.82-.3-11.47-.22-15.59.1-4.72.78-11.06 1.15-15.59v-.3c.07-1 .14-1.88.17-2.65v-.45c0-.12 0-.24 0-.36a63 63 0 0 1 1.29-7.95.52.52 0 0 0 0-.16s0 0 0 0a0 0 0 0 1 0 0s.75-.42 2-1.11z"/><path d="m46 109h-.23s-5-18.11-5.67-21.84a10 10 0 0 1 .79-6.39s-4.65-6.71-6.15-9.13-6.81-10.64-6.81-10.64l-2.57 1.9s-.64 4.33-1.27 7.47-2.07 13-2.07 13c2.38 7.11.48 13.94-.2 16.16s-3.33 10.47-3.33 10.47l-.36-.06a140.45 140.45 0 0 0 3.47-14.5 46.24 46.24 0 0 0 -.48-11.33s.21-2.11.88-7.11 2.65-14 2.65-14l3.17-2.49s2.33 2.81 5 6.12 10.54 13.72 10.54 13.72-.16 2.75-.36 6.49 1.17 10.71 1.86 14.63c.47 2.79.96 5.91 1.14 7.53z"/><path d="m40.27 40.73c-.17.23-1.6 2.11-2.86 3.93-.76 1.1-1.79 2.89-2.54 4.25l-.16.3c-.41.76-.72 1.33-.81 1.51.29-1 4.92-10.11 6.14-11.61.12.89.23 1.62.23 1.62z"/></g><path d="m33.41 18.77c-.37.83-1.33 3-2.26 4.95-1.19 2.54-2.86 6.07-2.86 6.07s-2.1 1.43-5.24 3.26c-1.2.7-2.23 1.26-3 1.69-1.28.68-2 1-2 1a22.83 22.83 0 0 1 2.24-8.06s-5.08-1.47-7.94-1.23a29.56 29.56 0 0 0 -.92 9l-.75-.07a22.5 22.5 0 0 0 -4 0c-.25-1.23-1.4-7-1.57-9.76a28.85 28.85 0 0 1 .2-5.68s3.89-1.71 11.47-2.34a69.23 69.23 0 0 1 16.63 1.17z" fill="#a6ddeb"/><path d="m52.19 37.66c-.63 3.53-1.07 7.22-1.07 7.22a22.56 22.56 0 0 1 .24 4.73c-.11 2.57-.57 8.32-.66 9.44a14.33 14.33 0 0 0 -4 2.29c-.31.24-.58.47-.83.67-.19-.42-3.08-7.06-1.58-9.9 0 0-.44-3.7-.47-6.56s.35-7.66.35-7.66l-.75-.16-3.11 3-.19-1.25c-.19-1.19-.47-2.89-.67-3.53 0 0 3.06-3.34 5.08-5.2 1.57-1.45 4.46-3.66 5.68-4.58a9.64 9.64 0 0 1 2 2.27 30.64 30.64 0 0 1 -.02 9.22z" fill="#a6ddeb"/><path d="m48.44 24.72a53.87 53.87 0 0 0 -10.06 9.8s-6.32-4-8-4.53c0 0 1.78-3.89 2.9-6.39a46.64 46.64 0 0 1 2.28-4.4l1.31.29a37.8 37.8 0 0 1 5.51 1.69 25.82 25.82 0 0 1 5.25 2.95c.3.19.56.39.81.59z" fill="#a6ddeb"/><path d="m22.6 26.86s-1.71 4.59-2.6 7.88c-1.28.68-2 1-2 1a22.83 22.83 0 0 1 2.24-8.06s-5.08-1.47-7.94-1.23a29.56 29.56 0 0 0 -.92 9l-.75-.07c-.4-2-1.18-7 .19-10.31.03.01 7.18-.07 11.78 1.79z" fill="#66c8ce"/><path d="m46.66 61.34c-.31.24-.58.47-.83.67-.19-.42-3.08-7.06-1.58-9.9 0 0-.44-3.7-.47-6.56s.35-7.66.35-7.66l-.75-.16-3.11 3-.19-1.25a43.22 43.22 0 0 1 3.18-3.18 28.89 28.89 0 0 1 2.72-1c-.61 2.78 0 16.49 0 16.49-.55 2.13.26 7.21.68 9.55z" fill="#66c8ce"/><path d="m47.65 24.13a15.16 15.16 0 0 1 -6.92-.69 6 6 0 0 1 -3.84-4 37.8 37.8 0 0 1 5.51 1.69 25.82 25.82 0 0 1 5.25 3z" fill="#66c8ce"/><path d="m18 36a.52.52 0 0 0 0-.16 1.16 1.16 0 0 0 0 .16z" fill="#844741"/><path d="m56 113.05c0 .08-1.58.31-2.1 1.11s-.24 1.51.48 1.55 1.67.27 1.62.55.48-.31.72-.24-.2 1 .44 1.27.47.79 2.14 1 2.46-1 3-1.26a5.49 5.49 0 0 1 3.15-.08c1 .31 1.15.23 1.79-.16s1.47 0 2-.48.83-1.27 1.5-1.31 1.75.12 2.11-.44.24-1 .87-1 1.19.12 1.39-.35-.63-1.28 0-1.39 1.29-1.16 0-1.47a2.54 2.54 0 0 0 -2.17.47z" fill="#7bc6c9"/><path d="m61.2 114.16 12.15-3.77-3.93-1.39-13.42 3.57z" fill="#d64e27"/><path d="m18.49 110a4.7 4.7 0 0 0 -3.08 0 19.17 19.17 0 0 0 -3.87 2.06h7.46z" fill="#c72f47"/><path d="m46 112.05h7.66s-4.4-3.13-8-3.33z" fill="#c72f47"/><path d="m56 112.57v1.11l5.2 1.71v-1.23z" fill="#6e2c27"/><path d="m61.2 115.39 12.15-3.93v-1.07l-12.15 3.77z" fill="#ee7123"/><path d="m59.3 106.3a.48.48 0 0 1 -.37-.17l-58.82-72.94a.47.47 0 0 1 .07-.67.48.48 0 0 1 .67.07l58.82 72.94a.49.49 0 0 1 -.07.67.49.49 0 0 1 -.3.1z" fill="#ce8686"/><path d="m42.4 19.21s-.29.53-.68 1.18c-.65 1.07-1.57 2.45-2 2.34-.63-.19-.82-1.06-.87-2.49 0-.1 0-.21 0-.32s0-.39 0-.61c0-1.42.28-3.15.28-3.15a1.55 1.55 0 0 0 .14.29 8.93 8.93 0 0 0 3.09 2.76z" fill="#f1b5ab"/><path d="m58.51 106.77c.15-.08 1.55-1.94 1.55-1.94l6.11 6.43-3.42.4z" fill="#2b91be"/><path d="m36.73 38.06c-1.53-.78-9.42-4.72-9.49-4.76a.12.12 0 0 0 -.1 0 .16.16 0 0 0 -.07.07c-.09.22-2.23 5.34-.8 8.25a3.29 3.29 0 0 0 2.19 1.76 5.3 5.3 0 0 0 1.36.18c4.2 0 6.93-5.27 7-5.32a.14.14 0 0 0 -.09-.18zm-6.91 5.25a4.91 4.91 0 0 1 -1.3-.18 3 3 0 0 1 -2-1.63c-1.26-2.58.45-7.14.77-7.93 1 .48 7.62 3.81 9.26 4.65-.45.78-3 5.09-6.73 5.09z" fill="#a6ddeb"/><path d="m34.69 49.23.16-.3a28.42 28.42 0 0 1 -2.79.69v-.74a.1.1 0 0 0 -.05-.1.16.16 0 0 0 -.12 0l-.66.33a.11.11 0 0 0 -.06.11v.57a16.69 16.69 0 0 1 -6.34 0 11.8 11.8 0 0 1 -4.08-2l.12-.35a.12.12 0 0 0 -.05-.13l-.67-.5a.15.15 0 0 0 -.11 0 .14.14 0 0 0 -.08.09l-.06.25a19.64 19.64 0 0 1 -3.07-3.15v.36a19.44 19.44 0 0 0 3 3.1l-.47 2a14.32 14.32 0 0 1 -2.76-2v.3a15.44 15.44 0 0 0 2.73 1.92l-.21.9a.11.11 0 0 0 0 .13l.43.28h.1s.07 0 .08-.08l.27-.91a17.92 17.92 0 0 0 4.5 1.54 18.76 18.76 0 0 0 3.62.35 20.84 20.84 0 0 0 3-.23v.87a.12.12 0 0 0 0 .1.08.08 0 0 0 .07 0l.66-.24a.12.12 0 0 0 .07-.11v-.8a18.36 18.36 0 0 0 2.08-.48l-.12-.21a17.34 17.34 0 0 1 -1.8.45v-1.4c.99-.17 1.92-.4 2.61-.61zm-15.11 1.42-.23-.15.17-.75.06-.24.42-1.93.06-.26v-.19l.46.33-.06.2-.08.24-.57 1.78-.08.22zm5 .66a17.69 17.69 0 0 1 -4.47-1.52l.56-1.74a12.15 12.15 0 0 0 4.1 2 12.87 12.87 0 0 0 3 .32 22.3 22.3 0 0 0 3.4-.37v1.4a18.9 18.9 0 0 1 -6.59-.09zm7.25 0v.9l-.42.15v-3.08l.42-.21v2.25z" fill="#a6ddeb"/><path d="m50.12 73.66c-.08 0-.18 0-.3-.2a11.43 11.43 0 0 1 -1.25-3.83.11.11 0 0 1 .14-.09.11.11 0 0 1 .09.13 12.26 12.26 0 0 0 1.2 3.65c.07.1.11.11.11.11.28-.13.3-2.64.09-3.75a.12.12 0 0 1 .1-.14.11.11 0 0 1 .13.09c.14.73.33 3.78-.23 4-.01.03-.04.03-.08.03z" fill="#ab3424"/><path d="m42.4 19.21s-.29.53-.68 1.18a10.74 10.74 0 0 1 -2.83-1.08c0-1.42.28-3.15.28-3.15a1.55 1.55 0 0 0 .14.29 8.93 8.93 0 0 0 3.09 2.76z" fill="#f5948d"/><path d="m13.54 47.1a.24.24 0 0 1 -.25.08c-.23-.07-.56-.64-.8-1-.13-.2-.23-.36-.27-.36-.19.33-.84 2.5-1.4 2.5a3 3 0 0 1 -1.15-.52 10.65 10.65 0 0 1 -2.67-2.21c-.75-1 .2-2.7.2-2.7a15.11 15.11 0 0 0 -.54-2.89c-.44-1.39-1.34-4.36-1.12-4.45a4.49 4.49 0 0 1 1.1-.24 22.12 22.12 0 0 1 4.15 0l.62.06 1.12.13-.07 6.55a24.23 24.23 0 0 1 1.54 3.58 2 2 0 0 1 -.46 1.47z" fill="#d64e27"/><path d="m13.54 47.1a34.26 34.26 0 0 0 -1.63-4.76 50.43 50.43 0 0 1 -1.12-6.94l.62.06 1.12.13-.07 6.55a24.23 24.23 0 0 1 1.54 3.49 2 2 0 0 1 -.46 1.47z" fill="#bf3b27"/><path d="m12.18 45.79c-.19.33-.84 2.5-1.4 2.5a3 3 0 0 1 -1.15-.52 9 9 0 0 0 2.55-1.98z" fill="#bf3b27"/><path d="m81.14 108.63a.32.32 0 0 1 -.32-.32v-2.46a.32.32 0 1 1 .63 0v2.46a.31.31 0 0 1 -.31.32z" fill="#4b4063"/><path d="m94 109.9a.32.32 0 0 1 -.32-.32v-2.27a.32.32 0 0 1 .64 0v2.27a.32.32 0 0 1 -.32.32z" fill="#4b4063"/><path d="m107 109.9a.33.33 0 0 1 -.32-.32v-2.5a.32.32 0 0 1 .32-.32.32.32 0 0 1 .32.32v2.5a.32.32 0 0 1 -.32.32z" fill="#4b4063"/><path d="m110 89.76a17.36 17.36 0 0 0 -.56 2.58c-.3 1.81-.59 4.19-.84 6.53-.09.88-.18 1.74-.26 2.57-.32 3.39-.53 6.15-.53 6.15s-4.36.76-14.37.44l-1.81-.03c-8.5-.42-11-1.65-11-1.91s-1.93-17.8-2.23-20.46v-.34a25.77 25.77 0 0 0 4.19 1.56 64.7 64.7 0 0 0 7.65 1.75c.7.12 1.43.24 2.19.35l1.37.19c10.84 1.38 16.2.62 16.2.62z" fill="#f79738"/><path d="m110 89.76a17.36 17.36 0 0 0 -.56 2.58 53.82 53.82 0 0 1 -11.55 0c-11.23-.92-17.11-4.74-19.5-6.77v-.34a25.77 25.77 0 0 0 4.19 1.56 64.7 64.7 0 0 0 7.65 1.75c.7.12 1.43.24 2.19.35l1.37.19c10.85 1.44 16.21.68 16.21.68z" fill="#ed8222"/><path d="m99 75.15-9.37.17-4.37.08-10.36-3 11.32-1.1 1.11.24c3.86.93 11.67 3.61 11.67 3.61z" fill="#ed7d27"/><path d="m89.63 75.32-4.37.08-10.36-3 11.32-1.1 1.11.24a25.67 25.67 0 0 0 2.3 3.78z" fill="#d64e27"/><path d="m91.63 108c-8.5-.42-11-1.65-11-1.91s-2.26-20.8-2.26-20.8a25.77 25.77 0 0 0 4.19 1.56c1.74 5.54 5.19 15.75 9.07 21.15z" fill="#ed8222"/><path d="m85.04 70.53-5.45-12.09h1.66l5.28 12.09z" fill="#5b1436"/><path d="m82.76 109.75a1.72 1.72 0 1 1 -1.76-1.75 1.72 1.72 0 0 1 1.76 1.75z" fill="#6c5964"/><path d="m95.8 110.57a1.85 1.85 0 1 1 -1.8-1.85 1.84 1.84 0 0 1 1.8 1.85z" fill="#6c5964"/><ellipse cx="106.93" cy="109.62" fill="#6c5964" rx="1.85" ry="1.85"/><path d="m94.57 85.17-.9 3s-3.2-.46-7.59-1.17-6.49-1.88-6.41-2.65l3.81.54z" fill="#d64e27"/><path d="m104 77.08a.72.72 0 1 1 -.71-.73.73.73 0 0 1 .71.73z" fill="#7bc6c9"/><path d="m111.59 81.19a1 1 0 1 1 -1-.91 1 1 0 0 1 1 .91z" fill="#7bc6c9"/><path d="m115.16 85a.66.66 0 1 1 -.66-.71.68.68 0 0 1 .66.71z" fill="#7bc6c9"/><path d="m73.59 72.42 5.16 11.75 4.73.67 1.58-8.65z" fill="#f7991c"/><path d="m83.48 84.84 13.54.4 2.54-9.17-14.5.12z" fill="#ffc40c"/><path d="m85.04 76.35.22-.96-11.91-3.46.44.95z" fill="#edd260"/><path d="m85.04 76.35 14.52-.28.47-1.15-14.77.47z" fill="#f5e38f"/><path d="m74.91 72.38 11.31-1.08v-.91l-12.87 1.54z" fill="#f5e38f"/><path d="m86.22 71.3 12.38 3.67 1.43-.05-13.81-4.53z" fill="#edd260"/><path d="m67.68 59.32 9.29 18.02 1.43-.24-9.41-18.3z" fill="#5b1436"/><path d="m93.64 88.25a22.92 22.92 0 0 1 2.59-6.52c1.86-3 2.36-3.35 3.33-3.1s1.76 2.73 1.76 2.73 1.11-2.48 3.12-1.9 1.75 3.65 1.75 3.65.74-1.48 1.74-1.27.74 2.28.74 2.28a1.53 1.53 0 0 1 2.07-.71c1.32.71.9 2.56.9 2.56s1.85-1.22 1.9.85.58 3-7.41 2.85a50.45 50.45 0 0 1 -12.49-1.42z" fill="#cde4e1"/><path d="m109.76 86.63a.92.92 0 1 1 -.91-.91.91.91 0 0 1 .91.91z" fill="#7bc6c9"/><path d="m103.61 86.31a1.47 1.47 0 1 1 -1.47-1.47 1.47 1.47 0 0 1 1.47 1.47z" fill="#7bc6c9"/><circle cx="99.83" cy="82.62" fill="#7bc6c9" r=".83"/><path d="m108.64 98.87c-.09.88-.18 1.74-.26 2.57a19.8 19.8 0 0 1 -9.38-2.9 23.15 23.15 0 0 1 -8.76-10c.7.12 1.43.24 2.19.35 1.78 2.7 4.71 6.68 7.46 8.3 2.43 1.43 6.04 1.71 8.75 1.68z" fill="#ed8222"/><path d="m108.47 99.2a20.34 20.34 0 0 1 -8.58-2 26.55 26.55 0 0 1 -9.07-7.7.31.31 0 0 1 .08-.44.32.32 0 0 1 .44.07c0 .06-18.3-2.5 8.83 7.5 5.42 2 11.53 2.61 14.12.25a2.65 2.65 0 0 0 .83-2.32 8.32 8.32 0 0 0 -3.34-5.24.32.32 0 1 1 .33-.54 9 9 0 0 1 3.64 5.73 3.25 3.25 0 0 1 -1 2.84c-1.38 1.23-3.67 1.85-6.28 1.85z" fill="#5b1436"/><path d="m110 90c-.59.49-4.22.85-11.85.27a62.93 62.93 0 0 1 -8.15-1.17 83.39 83.39 0 0 1 -9.77-2.65c-2.59-.91-2.23-2.17-1.69-2.71l1.48.75c-.14.72 2.24 1.64 9.16 2.88 1.18.21 2.48.43 3.93.66a88.7 88.7 0 0 0 16.89 1.22s.63.31 0 .75z" fill="#ffc40c"/><path d="m90 89.1a83.39 83.39 0 0 1 -9.77-2.65c-2.59-.91-2.23-2.17-1.69-2.71l1.48.75c-.14.72 2.24 1.64 9.16 2.88a15.39 15.39 0 0 0 .82 1.73z" fill="#f7991c"/><path d="m50.77 10.83c-.63 1.28-2.82 8-3.21 8.86a2.08 2.08 0 0 1 -2.63 1.36 6.29 6.29 0 0 1 -1-.29l-.62-.25a13.26 13.26 0 0 1 -1.55-.79l-.29-.18a9.25 9.25 0 0 1 -3.08-2.82 2.39 2.39 0 0 1 -.16-.32 4.65 4.65 0 0 1 .07-2.82 2 2 0 0 1 -1.13-1.08c-.69-1.41-.57-3.68.26-4.14a.55.55 0 0 1 .18-.06 1.22 1.22 0 0 1 .32 0c1 .24 1.29 1.53 1.29 1.53a13.34 13.34 0 0 1 1.3-2.71 6.61 6.61 0 0 1 2.18-1.66 7.79 7.79 0 0 1 .71-.34 12.18 12.18 0 0 0 5.1 4.82 11 11 0 0 0 2.26.89z" fill="#f1b5ab"/><path d="m39.37 14.16c0 1.7 1.17 3.93 2.1 5.38a9.25 9.25 0 0 1 -3.08-2.82 2.39 2.39 0 0 1 -.16-.32 4.65 4.65 0 0 1 .07-2.82 2 2 0 0 1 -1.13-1.08 9.52 9.52 0 0 0 .26-4.14.55.55 0 0 1 .18-.06 1.22 1.22 0 0 1 .32 0c1 .24 1.29 1.53 1.29 1.53a13.34 13.34 0 0 1 1.3-2.71 6.61 6.61 0 0 1 2.18-1.66 16 16 0 0 0 -3.33 8.7z" fill="#f5948d"/><path d="m41.47 9.68c-.14-.2.81-1.07 2.17-.78a2.36 2.36 0 0 1 1.73 1.41 19 19 0 0 0 -2.08-.49 7.79 7.79 0 0 0 -1.82-.14z" fill="#9d5e55"/><path d="m48.11 11.73c-.06-.28.4-.78 1.38-.49s.59 1.32.59 1.32a1.58 1.58 0 0 0 -.85-.54c-.49-.09-1.09-.13-1.12-.29z" fill="#9d5e55"/><path d="m53.18 10.57a.43.43 0 0 1 -.11.12 2.9 2.9 0 0 1 -2.3.14 11 11 0 0 1 -2.26-.89 12.18 12.18 0 0 1 -5.1-4.82 8.52 8.52 0 0 0 -2.89 2 13.34 13.34 0 0 0 -1.3 2.71s-.3-1.29-1.29-1.53-.63-2.73.47-4.06a9.82 9.82 0 0 1 5-3.26 24.89 24.89 0 0 1 2.6-.77c4.88-1.09 6.9 2.31 7.3 3.61s.56 5.81-.12 6.75z" fill="#592019"/><path d="m38 9.31a.09.09 0 0 0 -.11-.05.09.09 0 0 0 -.06.11 5.53 5.53 0 0 1 .23 1.06c-.24.1-.88.4-.77.75s.59.35.81.35a3.93 3.93 0 0 1 -.12.67.09.09 0 0 0 .06.1.08.08 0 0 0 .08-.06 5.71 5.71 0 0 0 -.12-2.93zm-.54 1.81c-.05-.15.31-.38.62-.51a4.57 4.57 0 0 1 0 .75c-.18 0-.56-.05-.62-.24z" fill="#983222"/><path d="m46.4 17.13a7.84 7.84 0 0 1 -2.3-.9.09.09 0 0 1 .09-.15 7.79 7.79 0 0 0 2.16.86c.25-1.38 1-4.56 1-4.59a.08.08 0 0 1 .11-.06.08.08 0 0 1 .06.1s-.8 3.34-1 4.67a.09.09 0 0 1 0 .06z" fill="#983222"/><path d="m45.42 18.36a3.62 3.62 0 0 1 -2.26-.71.09.09 0 0 1 .11-.13 3.64 3.64 0 0 0 2.5.65.1.1 0 0 1 .1.08.08.08 0 0 1 -.08.09z" fill="#3c1515"/><path d="m43.61 12.2c-.36.53-.46 1.08-.22 1.25s.72-.13 1.08-.65.46-1.08.22-1.25-.69.13-1.08.65z" fill="#3c1515"/><path d="m48 13.47c-.35.51-.46 1-.24 1.2s.68-.15 1-.66.47-1 .25-1.19-.7.18-1.01.65z" fill="#3c1515"/><path d="m44.93 21.05a6.29 6.29 0 0 1 -1-.29l-.62-.25c.23-.47.83-1.56 1.47-1.41s.33 1.28.15 1.95z" fill="#592019"/><path d="m53.18 10.57a.43.43 0 0 1 -.11.12 2.9 2.9 0 0 1 -2.3.14 11 11 0 0 1 -2.26-.89 12.18 12.18 0 0 1 -5.1-4.82 8.52 8.52 0 0 0 -2.89 2 13.34 13.34 0 0 0 -1.3 2.71s-.3-1.29-1.29-1.53-.63-2.73.47-4.06a9.82 9.82 0 0 1 5-3.26 8.82 8.82 0 0 0 2.43 6c1.8 1.66 4.5 3.82 7.35 3.59z" fill="#461714"/></svg>