<svg viewBox="0 0 57.35 128.23" xmlns="http://www.w3.org/2000/svg"><path d="m57.35 28.77c0 15.59-6 28.76-13.18 28.76-5.46 0-10.28-7.72-12.23-18.34a57.7 57.7 0 0 1 -.94-10.42c0-1 0-2 .07-3 .72-14.24 6.43-25.77 13.1-25.77 2.32 0 4.52 1.38 6.43 3.78a29.12 29.12 0 0 1 4.77 10.08 55 55 0 0 1 1.98 14.91z" fill="#7bc6ce"/><path d="m55.37 13.86-23.43 25.33a57.7 57.7 0 0 1 -.94-10.42c0-1 0-2 .07-3l19.52-22a29.12 29.12 0 0 1 4.78 10.09z" fill="#9cd8db"/><path d="m42.33 30.28a2.37 2.37 0 0 1 -2.52-1.17 8.08 8.08 0 0 1 -1.12-3.05 38.33 38.33 0 0 1 0-10.1 4.1 4.1 0 0 1 4.11-3.54 1.43 1.43 0 0 1 .66.16c1 .56 1.36 2.51 1.18 4.84a49 49 0 0 0 .34 7.8c.21 2.65-.75 4.71-2.65 5.06z" fill="#5b8eca"/><path d="m42.33 30.28a2.37 2.37 0 0 1 -2.52-1.17c3.57.78 4.1-1.63 3.83-4a25.41 25.41 0 0 1 .22-8.11c.52-2.43.52-3-.4-4.38 1 .56 1.36 2.51 1.18 4.84a49 49 0 0 0 .34 7.8c.21 2.61-.75 4.67-2.65 5.02z" fill="#3479b5"/><path d="m27.65 125.79-.7.54a2.78 2.78 0 0 0 -.6.56c-.08 0-5.8-10-7-14.07s-.35-10.15-.35-10.15-2.23-5.88-3.36-9.74-4.14-14.52-4.23-14.85-1.77 15.81-2.11 20.14-1.63 28.2-1.63 28.2l-.67.38-.58.34s-4.92-14.82-5.05-19.56a29.15 29.15 0 0 1 1.13-8.69s-2.8-20.36-2.5-27.89 2.92-10 3.41-10.33l-.11.11a16.61 16.61 0 0 0 4.08 3.22 10.47 10.47 0 0 0 1.78.76c3.29 1 8.62 1.39 10.8.25 0 0 3.74 27.58 4.24 33.12s3.45 27.66 3.45 27.66z" fill="#f79738"/><path d="m4.29 112.74c.38 3.74 2.01 10.26 2.71 14.06l-.58.34s-4.92-14.82-5.05-19.56a29.15 29.15 0 0 1 1.13-8.69s-2.8-20.36-2.5-27.89 2.92-10 3.41-10.33l-.11.11a16.61 16.61 0 0 0 4.08 3.22l-3.78 7.88s-.51 7.7-.3 13.41 1.39 13.51 1.39 13.51-.26 3.11-.4 4.37a49.47 49.47 0 0 0 0 9.57z" fill="#e18726"/><path d="m27 126.33a2.78 2.78 0 0 0 -.6.56c-.08 0-5.8-10-7-14.07s-.4-10.15-.4-10.15-2.23-5.88-3.36-9.74-4.14-14.52-4.23-14.85c.07.14 1.33 2.43 2.48 5.11s7.55 18.72 7.55 18.72a37.11 37.11 0 0 0 0 8.06c.5 3.86 2.6 11.5 4 13.6a11.71 11.71 0 0 1 1.56 2.76z" fill="#e18726"/><path d="m4.59 74.8a17.07 17.07 0 0 0 -.3 2.2s3.6 2.46 5.19 1.73c0 0 4.1-5.09 4.66-7.53l-.21-2.32-2.6-1.43s-4.66 3.4-6.74 7.35z" fill="#a04741" opacity=".2"/><path d="m20.8 42.64h-.16a6 6 0 0 1 .42.59 4.23 4.23 0 0 1 .75 2.67 3 3 0 0 1 -.54 1.26 4.35 4.35 0 0 1 -1.27 1.15.09.09 0 0 1 0 0 20.35 20.35 0 0 0 -.74 7c.33 2.45.74 9.69.74 9.69-1.71.9-5.38.88-8.47.32a17.28 17.28 0 0 1 -2.33-.57 15.33 15.33 0 0 1 -5.9-3.97l.11-.11a14.91 14.91 0 0 0 2.24-3.21 19.6 19.6 0 0 0 2.35-7.05 23.76 23.76 0 0 0 -.46-5c0-.15 0-.24 0-.24l-.07.21c0 .09-.06.19-.1.32a20.65 20.65 0 0 0 -.67 2.66c0 .21 0 .44-.07.68-.09 1.14-.09 2.44-.09 2.44s-.35.14-.91.42c-.39.21-.89.48-1.43.83a3 3 0 0 0 -.6.51 5 5 0 0 0 -1.09 2c-2.23-2.82-1.51-7.1-.64-12.39.21-1.23.43-2.28.64-3.18a20.19 20.19 0 0 1 1.34-4.2 10.83 10.83 0 0 1 1.47-1.14 24.67 24.67 0 0 1 5.33-2.77h3.35s1.64.92 3.67 1.95a35.84 35.84 0 0 0 6.78 2.88 15.63 15.63 0 0 0 5.24.1 16.36 16.36 0 0 1 .31 2.51c.05.5.08.94.11 1.34.07 1.18.07 1.94.11 2.18v.06c-3.07 1.3-8.15.31-9.33.06z" fill="#a6ddeb"/><g fill="#66c8ce"><path d="m17.62 33.51a26 26 0 0 1 -4.29 1.49 14.66 14.66 0 0 1 -8-.68 24.67 24.67 0 0 1 5.33-2.77h3.34s1.59.93 3.62 1.96z"/><path d="m3.6 53.19a5 5 0 0 0 -1.09 2c-2.23-2.77-1.51-7.05-.64-12.34.21-1.23.43-2.28.64-3.18l.2 1.59s0 4.28 0 6.29a25.25 25.25 0 0 0 .89 5.64z"/><path d="m9.48 57.76c.38 1.37 1.59 5.7 2 7.53a17.28 17.28 0 0 1 -2.33-.57 15.33 15.33 0 0 1 -5.85-3.94l.11-.11a14.91 14.91 0 0 0 2.24-3.21 19.6 19.6 0 0 0 2.35-7.05 23.76 23.76 0 0 0 -.46-5c0-.15 0-.24 0-.24l-.07.21c0 .09-.06.19-.1.32a7.81 7.81 0 0 1 .42-2 12.76 12.76 0 0 0 .43-3.93 57.13 57.13 0 0 0 1.26 5.69c.51 1.42 2.68 2.86 2.68 2.86a4.66 4.66 0 0 1 -3.55-2.47 16.38 16.38 0 0 1 .55 2.08c.4 1.7-.24 4.5-.11 4.63s-.05 3.44.43 5.2z"/><path d="m30.21 42.6c-3.07 1.3-8.15.31-9.33.06h-.08a15.59 15.59 0 0 1 -2.2-4.18 31.75 31.75 0 0 0 4.56 2.21 10.65 10.65 0 0 0 4.49.42 21.1 21.1 0 0 0 2.43-.73c.07 1.18.07 1.94.11 2.18z"/></g><path d="m6.45 127.14.29 1.09h5.88s-3.74-3.32-6.17-1.09z" fill="#3d6ab2"/><path d="m26.35 126.89.25.83h5.71s-3.74-4.07-5.96-.83z" fill="#3d6ab2"/><path d="m13.82 70s-.21.44-.76 1.45c-.22.41-.5.9-.85 1.49a31.09 31.09 0 0 1 -1.83 2.74c-.78 1.09-1.44 1.9-1.44 1.9a6.42 6.42 0 0 1 -2.8-1.2 7.1 7.1 0 0 1 -.84-.73 5.17 5.17 0 0 1 -1-1.42s.7-1.3 1.6-2.59q.34-.49.72-1c.65-.8 1.54-1.85 2.21-2.64s1-1.13 1-1.13 1.76-.12 2.27-.17h.05l1.29 1.18z" fill="#ed3451"/><path d="m13.06 71.49c-.22.41-.5.9-.85 1.49a31.09 31.09 0 0 1 -1.83 2.74 13.12 13.12 0 0 1 -4.48-4.08q.34-.49.72-1c.65-.8 1.54-1.85 2.21-2.64a14.18 14.18 0 0 0 4.23 3.49z" fill="#272b6a"/><path d="m13 48.53a4.53 4.53 0 0 1 -3.76-1.63 3.8 3.8 0 0 1 -.84-2.1.13.13 0 0 1 .15-.1.13.13 0 0 1 .09.15 4 4 0 0 0 1 2.18 4.39 4.39 0 0 0 3.36 1.25.13.13 0 0 1 .13.13.13.13 0 0 1 -.13.12z" fill="#96413a"/><path d="m18.87 48.56a2.74 2.74 0 0 1 -.41 0 .12.12 0 0 1 -.1-.14.12.12 0 0 1 .14-.11 2.68 2.68 0 0 0 2.59-1.12.13.13 0 0 1 .18 0 .13.13 0 0 1 0 .18 3 3 0 0 1 -2.4 1.19z" fill="#96413a"/><path d="m7.56 45.37a.12.12 0 0 1 -.11-.14 9.72 9.72 0 0 1 .21-1 11.91 11.91 0 0 0 .44-3.55 6.15 6.15 0 0 0 -.63-2.52.13.13 0 0 1 0-.17.13.13 0 0 1 .18 0 6 6 0 0 1 .67 2.63 11.73 11.73 0 0 1 -.45 3.63 9 9 0 0 0 -.2 1 .13.13 0 0 1 -.11.12z" fill="#96413a"/><path d="m21.06 43.2c-1.14-1-2.68-4.61-2.69-4.65a.11.11 0 0 1 .06-.16.12.12 0 0 1 .17.07 22.51 22.51 0 0 0 2.28 4.2h-.24a6 6 0 0 1 .42.54z" fill="#96413a"/><path d="m14.55 37.31c-1.26.51-3.78-4.32-3.78-4.32l-.08-1.13a11.24 11.24 0 0 0 -.55-2.15c-.42-1.26-.92-2.54-1-2.62l.43.41a6.23 6.23 0 0 0 2.48 1.38 5.4 5.4 0 0 0 2 .13l-.05 1.54-.13 2.19s1.94 4.07.68 4.57z" fill="#f1b5ab"/><path d="m14.1 29-.1 1.55a10.9 10.9 0 0 1 -3.87-.84c-.42-1.26-.92-2.54-1-2.62l.43.41a6.23 6.23 0 0 0 2.48 1.38 5.4 5.4 0 0 0 2.06.12z" fill="#f5948d"/><path d="m43.64 23.41c0 .7-2.39 4.12-2.39 4.12s-4.34 8.71-6.06 11a15.38 15.38 0 0 1 -5 4c-.05-.25 0-1.06-.12-2.31 0-.36-.05-.76-.1-1.21-.16-1.35-.32-2.53-.32-2.53s2-.84 5.59-6.16c1.35-2 2.65-4.1 2.65-4.1s-.34-4.7 0-4.87c.15-.06.27.21.36.56a10 10 0 0 1 .23 1.29s0-.21 0-.52c0-.89.17-2.63.57-2.64s.34 2.2.34 2.2 0-.05 0-.14c0-.24.15-.76.28-1.34.24-1.07.58-2.33.83-2.33s.18.56.13 1.18c-.06.64-.17 1.34-.21 1.56 0-.14.12-.5.23-.9.21-.76.52-1.7.77-1.72.42 0 .21 1.55.17 2.55s-.14 2.81.15 3.11 1.43-1.21 1.86-.91c.03.01.04.05.04.11z" fill="#f1b5ab"/><path d="m40.73 20.27c-.25 1.24-.37 2.61-.37 2.63a.08.08 0 0 1 -.08.07.07.07 0 0 1 -.07-.09 23.91 23.91 0 0 1 .51-3.27c-.06.64-.17 1.34-.21 1.56.03-.17.11-.5.22-.9z" fill="#96413a"/><path d="m39.75 20.76c-.06 1-.22 2.32-.23 2.39a.09.09 0 0 1 -.08.08.08.08 0 0 1 -.07-.1s0-.46.1-1c.04-.27.15-.79.28-1.37z" fill="#96413a"/><path d="m38.63 23.42a.1.1 0 0 1 -.07.1.08.08 0 0 1 -.08-.07s-.11-.77-.17-1.53a10 10 0 0 1 .23 1.29s0-.21 0-.52c.04.42.09.73.09.73z" fill="#96413a"/><path d="m43.64 23.41c0 .7-2.39 4.12-2.39 4.12s-4.34 8.71-6.06 11a15.38 15.38 0 0 1 -5 4c-.05-.25 0-1.06-.12-2.31a24.42 24.42 0 0 0 4.63-3.54c1.93-2.27 5.76-9.6 5.76-9.6a33.1 33.1 0 0 0 3.18-3.67z" fill="#f5948d"/><path d="m14.68 65.68-.36.68c-.22.41-.54 1-.9 1.55l-1.3-.79-.22-.12s1.27-1.38 2-2.1z" fill="#863531"/><path d="m14.68 65.68-.36.68-2.2.76-.22-.12s1.27-1.38 2-2.1z" fill="#712525" opacity=".5"/><path d="m17.53 66.18-1 .89-.32.28s-1.86-1.95-2.32-2.47a1.85 1.85 0 0 1 -.28-.8s-1.34-.87-1.17-1.23.75-.34 1.58 0a5.11 5.11 0 0 1 1 .5 10.83 10.83 0 0 1 2.51 2.83z" fill="#732526"/><path d="m16.53 67.07-.32.28s-1.86-1.95-2.32-2.47a1.85 1.85 0 0 1 -.28-.8s-1.34-.87-1.17-1.23.75-.34 1.58 0a2.07 2.07 0 0 0 .32 1.82c.36.49 1.66 1.82 2.19 2.4z" fill="#712525" opacity=".5"/><path d="m12.08 66.74-1.35 1.26s-1.13 1.38-3 3.57a15.93 15.93 0 0 0 -2.43 4.12 5.17 5.17 0 0 1 -1-1.42s.7-1.34 1.6-2.63q.34-.49.72-1c.65-.8 1.54-1.85 2.21-2.64s1-1.13 1-1.13 1.74-.08 2.25-.13z" fill="#712525" opacity=".5"/><path d="m13.79 68.51c-.29.38-.33-.47-.37-.6s-.09.51-.34.59-.67-.59-.67-.59a.5.5 0 0 1 -.25.33.49.49 0 0 1 -.42-.12c-.55-.37-1-2.89-1.14-3s-1.88-1.72-3.77-3.82a31.73 31.73 0 0 1 -4.33-6 3.64 3.64 0 0 1 1-2.23l.19-.18a6.07 6.07 0 0 1 2.8-1.4s1.3 2.76 2.05 4.65 3.28 7.86 3.87 8.16a11.9 11.9 0 0 0 1.48.58 4.61 4.61 0 0 0 -.07 1.12c0 .62.27 2.12-.03 2.51z" fill="#f1b5ab"/><path d="m12.16 68.24a.49.49 0 0 1 -.42-.12c-.55-.37-1-2.89-1.14-3s-1.88-1.72-3.77-3.82a31.73 31.73 0 0 1 -4.33-6 3.64 3.64 0 0 1 1-2.23 17.63 17.63 0 0 0 3.5 6.93c2.1 2.86 4 5 4 5a20.62 20.62 0 0 0 1.16 3.24z" fill="#f5948d"/><path d="m12.79 70.05a25.92 25.92 0 0 1 -2.86 4.75l-.88-.8 3-4.41z" fill="#9f4747"/><path d="m16.73 66.4.41-.29s-1.34-1.64-1.52-1.43 1.11 1.72 1.11 1.72z" fill="#9f4747"/><path d="m17.73 67.05-.44.31-.29.22-.45-.53.44-.39.31-.27z" fill="#732526"/><path d="m17.29 67.36-.29.22-.45-.53.44-.39z" fill="#712525" opacity=".5"/><path d="m39.55 38.21a.12.12 0 0 1 -.09 0 .13.13 0 0 1 0-.18l10.29-9.78a.13.13 0 0 1 .18 0 .11.11 0 0 1 0 .17l-10.3 9.79a.14.14 0 0 1 -.08 0z" fill="#eedfe0"/><path d="m46.19 27.63a.11.11 0 0 1 -.08 0 .12.12 0 0 1 0-.18l7.15-7.69a.13.13 0 0 1 .18 0 .12.12 0 0 1 0 .17l-7.16 7.69a.11.11 0 0 1 -.09.01z" fill="#eedfe0"/><path d="m18.25 27.68a6.84 6.84 0 0 1 -4.08 2 5.24 5.24 0 0 1 -1.88-.12 5.32 5.32 0 0 1 -1.29-.5 7.59 7.59 0 0 1 -1-.75l-.4-.38a7.85 7.85 0 0 1 -1.07-1.34c-1.12.16-3-.82-3.2-2.06s.38-1.76 1.2-1.53 1.09-.12 1.75-1.21a2.49 2.49 0 0 0 .25-.61 41 41 0 0 0 .65-5.74 2.5 2.5 0 0 1 2.57-2.37 7.56 7.56 0 0 1 2.7.23c2.41.73 2.77 2.84 3.1 4.17.09.36.19.71.29 1.05a15.38 15.38 0 0 0 1 2.49 13.5 13.5 0 0 0 .7 1.21c.97 1.49-.12 4.22-1.29 5.46z" fill="#f1b5ab"/><path d="m11 29.06a7.59 7.59 0 0 1 -1-.75l-.4-.38a7.85 7.85 0 0 1 -1.07-1.34c-1.12.16-3-.82-3.2-2.06s.38-1.76 1.2-1.53 1.09-.12 1.75-1.21a2.49 2.49 0 0 0 .25-.61 12.75 12.75 0 0 0 1.25 5.88c.44.75.87 1.42 1.22 2z" fill="#f5948d"/><path d="m17.84 18.53c-.61-.44-.88-1.65-1.41-2.61-.84-1.52-.75-1.8-2-2.61 2.41.73 2.77 2.84 3.1 4.17.11.36.21.71.31 1.05z" fill="#f5948d"/><path d="m19.69 17.87a6.67 6.67 0 0 0 -.86 3.13c-.18-.35-.34-.71-.49-1.07a18.24 18.24 0 0 1 -.79-2.47c-.05-.22-.11-.45-.17-.7-.41-1.6-1.21-3.68-4.76-3.72a8.68 8.68 0 0 0 -.87 0 2.5 2.5 0 0 0 -2.57 2.37 47 47 0 0 1 -.6 5.59 2.76 2.76 0 0 1 -.3.78c-.66 1.09-.93 1.44-1.75 1.21s-1.36.27-1.21 1.52 2.08 2.22 3.2 2.06a7.78 7.78 0 0 0 1.48 1.74 34.88 34.88 0 0 0 1.07 4.75 55.7 55.7 0 0 1 -7.3-3.78c-2.65-1.79-2.95-3.04-2.77-6.23a20.9 20.9 0 0 1 .88-5 9.63 9.63 0 0 1 3.21-5 8.27 8.27 0 0 1 6.5-1.76 8.84 8.84 0 0 1 3.66-1.29 4.61 4.61 0 0 1 4.87 2.38.59.59 0 0 0 0 .08 5.71 5.71 0 0 1 -.43 5.41z" fill="#0c2321"/><path d="m10 19.43c-.07-.33 1.1-1.43 2.08-1.72s1.08.5.72.8a15.48 15.48 0 0 1 -2.8.92z" fill="#0c2321"/><path d="m18 18.53c-.06 0-1.36-1.47-2.44-1-.5.23-.27.87.43.84a14.84 14.84 0 0 1 2.01.16z" fill="#0c2321"/><path d="m14.61 25.7h-.06a.08.08 0 0 1 -.08-.07.08.08 0 0 1 .08-.08h.06a2.39 2.39 0 0 0 2.39-1.17c-2.38-1.21-1.94-4.46-1.93-4.5a.08.08 0 0 1 .09-.06.07.07 0 0 1 .06.09s-.44 3.23 1.92 4.36a.08.08 0 0 1 0 .1c.01.06-.47 1.33-2.53 1.33z" fill="#983222"/><path d="m8.05 25.37a7.21 7.21 0 0 0 -1.87-1.77.07.07 0 0 0 -.1 0 .07.07 0 0 0 0 .11 7.49 7.49 0 0 1 1 .81c-.11.19-.41.73-.12.92a.27.27 0 0 0 .17.06.89.89 0 0 0 .55-.33l.18.25a.07.07 0 0 0 .07 0h.07a.09.09 0 0 0 .05-.05zm-.94 0c-.14-.09 0-.45.14-.68a3.88 3.88 0 0 1 .39.42c-.12.11-.38.34-.53.23z" fill="#983222"/><path d="m12.22 26.19a23 23 0 0 1 4.45.47s-1.26 1.68-2.48 1.66-1.97-2.13-1.97-2.13z" fill="#fff"/><path d="m12.53 21.18c0 .61-.29 1.09-.57 1.07s-.46-.52-.42-1.13.29-1.09.56-1.07.46.52.43 1.13z" fill="#1e1724"/><path d="m17.35 21c0 .61-.29 1.09-.56 1.07s-.47-.53-.43-1.13.29-1.09.56-1.08.47.56.43 1.14z" fill="#1e1724"/><path d="m11.06 33.06a55.7 55.7 0 0 1 -7.3-3.78c-2.64-1.79-2.94-3.04-2.76-6.23a20.9 20.9 0 0 1 .88-5c1.31 1.58 4.25 3.47 6.7 3a2.76 2.76 0 0 1 -.3.78c-.66 1.09-.93 1.44-1.75 1.21s-1.36.27-1.21 1.52 2.08 2.22 3.2 2.06a7.78 7.78 0 0 0 1.48 1.69 34.88 34.88 0 0 0 1.06 4.75z" fill="#071a18"/><path d="m20.16 12.42c-.33 1.74-.82 3.07-1.89 3.87a5.23 5.23 0 0 0 -1.62-3.24c-1.31-1.22-2.93-.55-4 0 3.55 0 4.35 2.12 4.76 3.72.06.25.12.48.17.7s.15.56.23.83v.19c.07.23.15.46.23.68a.88.88 0 0 0 .05.15c.07.21.15.41.23.62.15.37.31.73.49 1.09a6.67 6.67 0 0 1 .86-3.15 5.71 5.71 0 0 0 .49-5.46z" fill="#071a18"/></svg>