<svg xmlns="http://www.w3.org/2000/svg" viewBox="0 0 1311.42 1536.81"><defs><style>.cls-1{fill:#fefae0;}.cls-2{fill:#fff;}.cls-3{fill:#eab681;}.cls-4{fill:#bc6c25;}.cls-13,.cls-15,.cls-5,.cls-6,.cls-8{fill:none;}.cls-5{stroke:#bc6c25;stroke-miterlimit:10;}.cls-15,.cls-5,.cls-8{stroke-width:3px;}.cls-15,.cls-6{stroke:#333;}.cls-13,.cls-15,.cls-6,.cls-8{stroke-linecap:round;stroke-linejoin:round;}.cls-13,.cls-6{stroke-width:5px;}.cls-7{fill:#b5bf88;}.cls-8{stroke:#606c38;}.cls-9{fill:#a0a86f;}.cls-10{fill:#ffbebd;}.cls-11{fill:#333;}.cls-12{fill:#606c38;}.cls-13{stroke:#fff;}.cls-14{fill:#f4aeae;}.cls-16{fill:#aa571a;}.cls-17{fill:#eab37d;}</style></defs><title>clean_window</title><g id="Layer_2" data-name="Layer 2"><g id="Layer_2-2" data-name="Layer 2"><path class="cls-1" d="M740.1,24.88V988.65H294.15a23.48,23.48,0,0,1-23.48-23.48V48.37a23.49,23.49,0,0,1,23.48-23.49Z"/><polygon class="cls-2" points="669.52 24.88 270.67 673.99 270.67 454.6 534.71 24.88 669.52 24.88"/><path class="cls-2" d="M740.1,104.69V486.9L431.8,988.65H294.15a23.48,23.48,0,0,1-23.48-23.48v-96.5Z"/><path class="cls-1" d="M1234.43,48.37v916.8A23.48,23.48,0,0,1,1211,988.65H765V24.88h446A23.49,23.49,0,0,1,1234.43,48.37Z"/><polygon class="cls-2" points="1198.88 24.88 764.99 731.01 764.99 511.61 1064.07 24.88 1198.88 24.88"/><polygon class="cls-2" points="1234.43 161.7 1234.43 543.92 961.15 988.65 764.99 988.65 764.99 925.69 1234.43 161.7"/><path class="cls-3" d="M1235.83,0H269.27a23.48,23.48,0,0,0-23.49,23.49V990.05a23.48,23.48,0,0,0,23.49,23.49h966.56a23.49,23.49,0,0,0,23.49-23.49V23.49A23.49,23.49,0,0,0,1235.83,0ZM270.67,965.17V48.37a23.49,23.49,0,0,1,23.48-23.49h446V988.65H294.15A23.48,23.48,0,0,1,270.67,965.17Zm963.76,0A23.48,23.48,0,0,1,1211,988.65H765V24.88h446a23.49,23.49,0,0,1,23.48,23.49Z"/><rect class="cls-4" x="740.1" y="24.88" width="7.54" height="963.77"/><rect class="cls-4" x="1234.43" y="43.07" width="7.54" height="922.1"/><polygon class="cls-1" points="1169.54 1534.31 1036.02 1534.31 1023.1 1392.17 1182.46 1392.17 1169.54 1534.31"/><path class="cls-5" d="M1026.25,1427a34.94,34.94,0,0,0,31.78-34.8"/><path class="cls-5" d="M1028.94,1456.51a64.61,64.61,0,0,0,58.76-64.34"/><path class="cls-5" d="M1032.13,1491.69a99.93,99.93,0,0,0,90.9-99.52"/><path class="cls-5" d="M1035.27,1526.11a134.5,134.5,0,0,0,122.3-133.94"/><path class="cls-5" d="M1108.25,1534.31a166.24,166.24,0,0,0,68.59-80.29"/><path class="cls-5" d="M1152,1534.31a192.55,192.55,0,0,0,19.35-20.32"/><line class="cls-6" x1="1279.6" y1="1534.31" x2="1087.7" y2="1534.31"/><path class="cls-7" d="M1086.62,1292.36c-98.6-83-238.25-106.84-189.87-160.06C954.18,1069.13,1088.66,1187.34,1086.62,1292.36Z"/><path class="cls-8" d="M1102.78,1392.17s2.15-172.29-122.28-237.37"/><path class="cls-7" d="M1123,1222.71c47-89,176.51-192.27,120.89-222.49S1102.78,1114.6,1123,1222.71Z"/><path class="cls-8" d="M1106.85,1392.17s-17.15-195.9,92.4-322.64"/><path class="cls-9" d="M1236.67,1296.08c26.42,3.1,31,54.93,61.92,50.15,22.57-3.49,12-57.91-5.66-80.34C1275.7,1243.94,1236.67,1296.08,1236.67,1296.08Z"/><path class="cls-7" d="M1123,1333.42c10.62-59.94,154.19-111.62,174.29-59.94l6.84,13.25C1265.46,1286.89,1165.17,1309.21,1123,1333.42Z"/><path class="cls-8" d="M1096,1392.17s25.84-117.73,147.88-130.65"/><polygon class="cls-10" points="275.77 370.89 275.77 433.91 212.44 433.91 212.44 345.53 275.77 370.89"/><path class="cls-11" d="M222.33,358.34s21,27.71,53.44,31.38V370.9Z"/><path class="cls-7" d="M768.73,487.64c-4.09,14.11-13.78,27.74-28,31.51-5.76,1.52-11.6,1.31-17.48.41-11.88-1.82-23.93-6.45-35.93-5.24-9.82,1-18.75,5.8-27.94,9.38a59.85,59.85,0,0,1-12.61,3.55c-5.52.86-11.06.61-16.13-1.63-12-5.28-16.93-19.43-20.2-32.13-9.65-37.59-16-76.41-13.55-115.14,1-16.12,3.8-32.87,13.49-45.8,10-13.32,24.9-16.43,40.54-17.91,15.22-1.43,27.86-7.86,42.22-12.67,12-4,26.17-5.48,36.65,1.67,7.81,5.33,12.14,14.55,14.12,23.8s1.93,18.8,3,28.2c2.48,22.44,11.05,43.68,17.46,65.33S775,466,768.73,487.64Z"/><path class="cls-9" d="M723.26,519.56c-11.88-1.82-23.93-6.45-35.93-5.24-9.82,1-18.75,5.8-27.94,9.38a59.85,59.85,0,0,1-12.61,3.55c17.11-9.91,21.9-29.05,31.47-34.32S710.37,516,723.26,519.56Z"/><path class="cls-9" d="M650,451.06c4.74,1.54,9.87.31,14.85,0,10.29-.71,20.45,2.44,30.75,2.88s22-2.92,26.5-12.23c3-6.31,1.93-13.72,2.83-20.66,1.32-10.15,6.9-19.16,11.12-28.49s7.11-20.3,2.92-29.64c-3.68-8.22-11.94-13.25-19.72-17.78-6.07-3.52-13.4-7.14-19.76-4.16-3.21,1.51-5.48,4.46-7.61,7.3Q680.79,363,669.69,377.81c-5.92,7.88-11.8,15.8-17.73,23.68-3.63,4.82-8.33,9.48-11.05,14.91C635.67,426.85,637.1,446.86,650,451.06Z"/><path class="cls-12" d="M201.59,416.68h74.18s7.49,10.85,12,12.12,69.55-.64,85.51,5.11,88.69,70.19,88.69,70.19L404.5,597.9l-38.92-25.53-7,176.12H103.32S61.57,469.87,76.52,448c9.57-14,74.66-23,74.66-23Z"/><line class="cls-13" x1="392.45" y1="589.99" x2="448.4" y2="492.28"/><path class="cls-10" d="M731.16,382.55a6.45,6.45,0,0,1-2,4.71C715,400.58,667.91,445,663.57,449.86,659.67,454.25,599,548.32,549,596.24c-15.33,14.7-29.66,25-41,27.15-22.5,4.14-45.72-2.17-64.14-10.14a189.17,189.17,0,0,1-36.15-20.59l50.91-83.15L483,527.71S606.78,410.94,615.08,401.37c6.23-7.2,12.45-31.28,15.17-42.85a8.15,8.15,0,0,1,16.09,1.86v29.34l43.47-53.61a6.29,6.29,0,0,1,11.17,4,6.22,6.22,0,0,1-.77,3l-22,40.44,30-32.43a6.64,6.64,0,0,1,10.11,8.59l-26.05,33.41,29.27-16.18a6.47,6.47,0,0,1,8.49,2.05A6.39,6.39,0,0,1,731.16,382.55Z"/><path class="cls-14" d="M549,596.24c-15.33,14.7-29.66,25-41,27.15-22.5,4.14-45.72-2.17-64.14-10.14C443.86,613.25,485.87,575.12,549,596.24Z"/><polygon class="cls-4" points="358.56 748.49 461.93 1395.99 355.69 1418.96 233.65 848.99 157.56 1418.96 52.75 1418.96 103.32 748.49 358.56 748.49"/><line class="cls-13" x1="351.35" y1="1398.71" x2="458.19" y2="1372.54"/><line class="cls-13" x1="54.28" y1="1398.71" x2="160.26" y2="1398.71"/><line class="cls-13" x1="435.9" y1="1378" x2="335.59" y2="748.49"/><line class="cls-13" x1="146.02" y1="1398.71" x2="225.04" y2="848.99"/><line class="cls-15" x1="257.34" y1="848.99" x2="209.96" y2="848.99"/><polygon class="cls-11" points="358.56 748.49 102.61 757.96 103.32 748.49 358.56 748.49"/><path class="cls-16" d="M400.88,1013.54A105,105,0,0,0,419.15,1128Z"/><path class="cls-10" d="M323.79,300.22c-.57,3.19-4.75,5.92-8.72,6.77-1.13,33.35-10.28,63.28-39.31,63.91-66,1.43-90.92-49.78-90.92-49.78l4.3-85.18s101-71.79,115.82-19.63c0,0,8.77,36.48,10.09,74C320.1,291.53,324.51,296.08,323.79,300.22Z"/><path class="cls-11" d="M166.81,240.88c15.91-26,0-56.15-20.42-63.49S81.94,247.9,96.62,262.58,156.28,258.11,166.81,240.88Z"/><path class="cls-11" d="M255.48,291.2c16-8.52,39.09-72.31,37.59-90.67s-136.79-10.06-151.46,31.74-2.56,45-16.59,69.87-25.53,50.79-23,68.78.32,48.95-1.91,63.63,113.58,50.72,137.19,11.8,16.15-64.13,12.7-83a280.78,280.78,0,0,1-4-36.62Z"/><circle class="cls-10" cx="244.18" cy="307.24" r="19.62"/><ellipse class="cls-11" cx="297.55" cy="270.29" rx="4.23" ry="6.39"/><line class="cls-6" x1="303.05" y1="251.41" x2="287.73" y2="257.15"/><path class="cls-15" d="M302.86,333.82c-3.64,1.11-13.5,0-14.94-6.24"/><line class="cls-15" x1="252.95" y1="316.18" x2="238.6" y2="301.5"/><polygon class="cls-10" points="449.35 1398.71 465.76 1473.05 390.15 1489.33 368.98 1416.09 449.35 1398.71"/><path class="cls-17" d="M383.34,1470.22v64.09H569.13v-13a27.44,27.44,0,0,0-17.79-25.68l-85.58-32.11-8.3-28L450.4,1437a13.12,13.12,0,0,0-10.19,14.2l1.62,15.14Z"/><polygon class="cls-11" points="449.35 1398.71 372.71 1429 368.98 1416.09 449.35 1398.71"/><polygon class="cls-10" points="63.76 1418.96 63.76 1484.88 135.54 1484.88 145.12 1418.96 63.76 1418.96"/><path class="cls-17" d="M63.76,1473.05,54,1527.39a5.89,5.89,0,0,0,5.8,6.92h80.34a5.88,5.88,0,0,0,5.81-6.81l-8.68-54.45Z"/><polygon class="cls-11" points="63.76 1418.96 143.03 1433.33 145.12 1418.96 63.76 1418.96"/><line class="cls-6" x1="2.5" y1="1534.31" x2="509.79" y2="1534.31"/></g></g></svg>