<svg viewBox="0 0 485.38 298.28" xmlns="http://www.w3.org/2000/svg"><path d="m452.15 250.63c-3.67-9.42-6.4-19.42-9.39-30-2-7.11-5.27-15.08-12.32-17.32-6.85-2.18-14.23 2.34-18.45 8.17s-6.34 12.89-9.95 19.12c-6.53 11.28-18.11 16-27.68 6.09-13.67-14.17-19.82-33.48-28.49-50.76-6.29-12.54-11.56-27.23-19.48-38.79-12.09-17.63-28.67-32.66-50.71-32.66-14 2.11-26.29 14.49-34.62 29.95s-13.19 33.86-17.33 52.21c-7.54 33.37-13.06 67.52-18.57 101.62l278.12-3.26c-1.1 0-7.92-9.1-9.23-10.36-10.68-10.3-17.05-21.64-21.9-34.01z" fill="#dce6ef"/><path d="m399.36 266.53c-.54 10.81-12.31 29.71-23.12 29.17s-16.57-20.33-16-31.15 12.06-64.91 22.87-64.36 16.8 55.53 16.25 66.34z" fill="#6aa5fe"/><path d="m382.56 207.22-5.45 87.61" fill="none" stroke="#1a55b5" stroke-linecap="round" stroke-linejoin="round" stroke-width=".87"/><path d="m374.62 264.28a75.09 75.09 0 0 0 -5.47 17c-.58 3-.94 6.25.42 9 1.48 3 4.77 4.73 8.06 5.27 8 1.32 16.07-3.6 20.78-10.25s6.75-14.76 8.62-22.68c1.48-6.24 2.93-12.58 5.71-18.39 1.19-2.5 8.16-12.12 4.86-14.61-4.51-3.55-17.57.31-25.94 9.44a97.5 97.5 0 0 0 -17.04 25.22z" fill="#ffc957"/><path d="m377.63 295.52s9.7-37.77 33.12-59.44" fill="none" stroke="#6aa5fe" stroke-linecap="round" stroke-linejoin="round" stroke-width=".87"/><path d="m431.45 255.37a9.54 9.54 0 0 1 -3.8 3.3c-1.75 1-3.6 1.84-5.39 2.68a60 60 0 0 0 -6.89 3.56 23.09 23.09 0 0 0 -4.22 3.36 53.54 53.54 0 0 1 6.69-11.38c3.42-4.4 6.93-6.64 10.44-6.64h.25a3.94 3.94 0 0 1 2.51.8c1.19 1.03 1.14 3 .41 4.32z" fill="#1a55b5"/><path d="m435.37 279.79a9.57 9.57 0 0 1 -4.85 1.36c-2 .14-4 .12-6 .11a60.88 60.88 0 0 0 -7.74.27 23.54 23.54 0 0 0 -5.26 1.23 54.08 54.08 0 0 1 10.92-7.42c5-2.51 9.1-3 12.27-1.53l.22.11a3.92 3.92 0 0 1 1.93 1.8c.62 1.43-.27 3.2-1.49 4.07z" fill="#1a55b5"/><path d="m426.12 291.81a6.52 6.52 0 0 1 -3.05-1.6c-1.06-.86-2.07-1.83-3.05-2.76a41.84 41.84 0 0 0 -4-3.5 15.77 15.77 0 0 0 -3.19-1.85 36.9 36.9 0 0 1 8.91 1.43c3.66 1.08 5.95 2.76 6.82 5l.06.16a2.7 2.7 0 0 1 .12 1.79 2.44 2.44 0 0 1 -2.62 1.33z" fill="#1a55b5"/><path d="m399.81 295.73s.11-23.11 28.34-42.73" fill="none" stroke="#2a294f" stroke-linecap="round" stroke-linejoin="round" stroke-width=".78"/><path d="m399.81 295.73s8.67-18.56 32.16-18.56" fill="none" stroke="#2a294f" stroke-linecap="round" stroke-linejoin="round" stroke-width=".78"/><path d="m412.6 282.33s4.55-.33 14 6.84" fill="none" stroke="#2a294f" stroke-linecap="round" stroke-linejoin="round" stroke-width=".78"/><path d="m157.3 295.93c-6.53-24.65-13.09-49.33-20.76-73.21-4.32-13.46-9.09-26.88-15.72-37.65s-15.41-18.72-24.23-18.67c-13.59 2.6-22.35 16.04-28.09 30.9-3.77 9.74-5.6 21.54-8.27 31.84-3.67 14.18-5.59 29.6-12.65 42-4.94 8.69-12.53 6.47-17.65-1.33-2.82-4.31-4.81-9.43-8-13.36s-8.15-6.49-12.17-4-5.36 9-5.91 14.65c-.8 8.38-1.52 16.31-2.85 23.9-.29 1.65-.62 3.29-1 4.91z" fill="#dce6ef"/><path d="m99 261.9c-4.08-4.71-9.24-8.76-10.87-14.7-1.18-4.33-.25-8.92.22-13.39s.3-9.41-2.59-12.85c-2.39-2.84-6.15-4.07-9.77-4.85s-7.4-1.27-10.61-3.11c-5.22-3-4.18-8.08-7-12.54-3.15-5-10.46-11.4-16.73-8.07-6.63 3.52-5.58 14.21-1.17 18.94 2.93 3.13 6.68 6.13 7.11 10.4.65 6.42-6.71 12.21-4.68 18.34 1.49 4.52 7.2 6.08 10 9.93s2.22 9.14.58 13.56-4.23 8.51-5.25 13.12c-2.09 9.42 5.31 15.93 13.73 18 7.75 1.94 24.45 1 24.45 1a32 32 0 0 0 15.84-13 16.64 16.64 0 0 0 .9-14.4 24 24 0 0 0 -4.16-6.38z" fill="#ffc957"/><path d="m49.06 202.55s28.51 44 31.62 92.94" fill="none" stroke="#6aa5fe" stroke-linecap="round" stroke-linejoin="round"/><path d="m23.67 262a3 3 0 0 1 1.9-.6h.18c2.65 0 5.31 1.68 7.9 5a40.58 40.58 0 0 1 5.06 8.6 17.58 17.58 0 0 0 -3.2-2.55 47.44 47.44 0 0 0 -5.2-2.69c-1.36-.63-2.76-1.28-4.08-2a7.22 7.22 0 0 1 -2.87-2.5 2.7 2.7 0 0 1 .31-3.26z" fill="#6aa5fe"/><path d="m19.28 280.6a3 3 0 0 1 1.46-1.36l.16-.08c2.4-1.14 5.52-.75 9.29 1.16a40.43 40.43 0 0 1 8.25 5.61 17.34 17.34 0 0 0 -4-.93 46.12 46.12 0 0 0 -5.86-.21c-1.49 0-3 0-4.55-.09a7.09 7.09 0 0 1 -3.66-1 2.71 2.71 0 0 1 -1.09-3.1z" fill="#6aa5fe"/><path d="m25.39 291.76a2 2 0 0 1 .09-1.36s0-.08 0-.12c.67-1.69 2.4-3 5.16-3.77a27.15 27.15 0 0 1 6.74-1.08 11.23 11.23 0 0 0 -2.41 1.4 30.4 30.4 0 0 0 -3 2.64c-.74.7-1.51 1.43-2.31 2.09a4.93 4.93 0 0 1 -2.3 1.21 1.87 1.87 0 0 1 -1.97-1.01z" fill="#6aa5fe"/><path d="m47.28 295.73s-.08-17.47-21.43-32.31" fill="none" stroke="#2a294f" stroke-linecap="round" stroke-linejoin="round" stroke-width=".78"/><path d="m47.28 295.73s-6.55-14-24.32-14" fill="none" stroke="#2a294f" stroke-linecap="round" stroke-linejoin="round" stroke-width=".78"/><path d="m37.61 285.6s-3.44-.25-10.62 5.17" fill="none" stroke="#2a294f" stroke-linecap="round" stroke-linejoin="round" stroke-width=".78"/><rect fill="#6aa5fe" height="274.05" rx="9.45" width="207.06" x="78.63" y="21.69"/><path d="m78.63 88.45v197.83a9.45 9.45 0 0 0 9.45 9.45h188.15a9.45 9.45 0 0 0 9.45-9.45v-39z" fill="#527ee9"/><rect fill="#f3f4f6" height="248.76" rx="3.86" width="183" x="90.66" y="34.33"/><path d="m197.85 16.51c0-.26 0-.51 0-.77a15.74 15.74 0 1 0 -31.47 0v.77h-23.05v24h77.67v-24z" fill="#1a55b5"/><path d="m143.32 16.51v23.99h77.67z" fill="#2c6bc6"/><circle cx="182.15" cy="15.74" fill="#527ee9" r="8.84" transform="matrix(.92300887 -.38477866 .38477866 .92300887 7.97 71.3)"/><path d="m175.91 9.49a8.83 8.83 0 0 0 12.49 12.51z" fill="#6aa5fe"/><path d="m143.33 40.5h77.66v1.65h-77.66z" fill="#cde1f9"/><path d="m111.8 73.72h29.45v29.45h-29.45z" fill="none" stroke="#1a55b5" stroke-miterlimit="10"/><path d="m120.42 89.95 9.01 7.08 18.31-17.65" fill="none" stroke="#f3f4f6" stroke-miterlimit="10" stroke-width="4"/><path d="m118.42 87.95 9.01 7.08 18.31-17.65" fill="none" stroke="#ff746f" stroke-miterlimit="10" stroke-width="4"/><g fill="#6aa5fe"><path d="m251.37 82.08h-96a1.14 1.14 0 0 1 -1.11-1.08 1.14 1.14 0 0 1 1.14-1.14h96a1.14 1.14 0 0 1 1.11 1.14 1.14 1.14 0 0 1 -1.14 1.08z"/><path d="m251.37 87.08h-96a1.14 1.14 0 0 1 -1.11-1.08 1.14 1.14 0 0 1 1.14-1.14h96a1.14 1.14 0 0 1 1.11 1.14 1.14 1.14 0 0 1 -1.14 1.08z"/><path d="m251.37 92.08h-96a1.14 1.14 0 0 1 -1.11-1.08 1.14 1.14 0 0 1 1.14-1.14h96a1.14 1.14 0 0 1 1.11 1.14 1.14 1.14 0 0 1 -1.14 1.08z"/><path d="m251.37 97.08h-96a1.14 1.14 0 0 1 -1.11-1.08 1.14 1.14 0 0 1 1.14-1.14h96a1.14 1.14 0 0 1 1.11 1.14 1.14 1.14 0 0 1 -1.14 1.08z"/></g><path d="m111.8 121.14h29.45v29.45h-29.45z" fill="none" stroke="#1a55b5" stroke-miterlimit="10"/><path d="m120.42 137.37 9.01 7.07 18.31-17.64" fill="none" stroke="#f3f4f6" stroke-miterlimit="10" stroke-width="4"/><path d="m118.42 135.37 9.01 7.07 18.31-17.64" fill="none" stroke="#ff746f" stroke-miterlimit="10" stroke-width="4"/><path d="m251.37 129.5h-96a1.14 1.14 0 0 1 -1.14-1.13 1.14 1.14 0 0 1 1.14-1.14h96a1.14 1.14 0 0 1 1.14 1.14 1.14 1.14 0 0 1 -1.14 1.13z" fill="#6aa5fe"/><path d="m251.37 134.5h-96a1.14 1.14 0 0 1 -1.14-1.13 1.14 1.14 0 0 1 1.14-1.14h96a1.14 1.14 0 0 1 1.14 1.14 1.14 1.14 0 0 1 -1.14 1.13z" fill="#6aa5fe"/><path d="m251.37 139.5h-96a1.14 1.14 0 0 1 -1.14-1.13 1.14 1.14 0 0 1 1.14-1.14h96a1.14 1.14 0 0 1 1.14 1.14 1.14 1.14 0 0 1 -1.14 1.13z" fill="#6aa5fe"/><path d="m251.37 144.5h-96a1.14 1.14 0 0 1 -1.14-1.13 1.14 1.14 0 0 1 1.14-1.14h96a1.14 1.14 0 0 1 1.14 1.14 1.14 1.14 0 0 1 -1.14 1.13z" fill="#6aa5fe"/><path d="m111.8 168.56h29.45v29.45h-29.45z" fill="none" stroke="#1a55b5" stroke-miterlimit="10"/><path d="m120.42 184.79 9.01 7.07 18.31-17.64" fill="none" stroke="#f3f4f6" stroke-miterlimit="10" stroke-width="4"/><path d="m118.42 182.79 9.01 7.07 18.31-17.64" fill="none" stroke="#ff746f" stroke-miterlimit="10" stroke-width="4"/><path d="m251.37 176.92h-96a1.14 1.14 0 0 1 -1.14-1.14 1.14 1.14 0 0 1 1.14-1.13h96a1.14 1.14 0 0 1 1.14 1.13 1.14 1.14 0 0 1 -1.14 1.14z" fill="#6aa5fe"/><path d="m251.37 181.92h-96a1.14 1.14 0 0 1 -1.14-1.14 1.14 1.14 0 0 1 1.14-1.13h96a1.14 1.14 0 0 1 1.14 1.13 1.14 1.14 0 0 1 -1.14 1.14z" fill="#6aa5fe"/><path d="m251.37 186.92h-96a1.14 1.14 0 0 1 -1.14-1.14 1.14 1.14 0 0 1 1.14-1.13h96a1.14 1.14 0 0 1 1.14 1.13 1.14 1.14 0 0 1 -1.14 1.14z" fill="#6aa5fe"/><path d="m251.37 191.92h-96a1.14 1.14 0 0 1 -1.14-1.14 1.14 1.14 0 0 1 1.14-1.13h96a1.14 1.14 0 0 1 1.14 1.13 1.14 1.14 0 0 1 -1.14 1.14z" fill="#6aa5fe"/><path d="m111.8 215.98h29.45v29.45h-29.45z" fill="none" stroke="#1a55b5" stroke-miterlimit="10"/><path d="m120.42 232.21 9.01 7.07 18.31-17.64" fill="none" stroke="#f3f4f6" stroke-miterlimit="10" stroke-width="4"/><path d="m118.42 230.21 9.01 7.07 18.31-17.64" fill="none" stroke="#ff746f" stroke-miterlimit="10" stroke-width="4"/><path d="m251.37 224.34h-96a1.14 1.14 0 0 1 -1.14-1.14 1.14 1.14 0 0 1 1.14-1.13h96a1.14 1.14 0 0 1 1.14 1.13 1.14 1.14 0 0 1 -1.14 1.14z" fill="#6aa5fe"/><path d="m251.37 229.34h-96a1.14 1.14 0 0 1 -1.14-1.14 1.14 1.14 0 0 1 1.14-1.13h96a1.14 1.14 0 0 1 1.14 1.13 1.14 1.14 0 0 1 -1.14 1.14z" fill="#6aa5fe"/><path d="m251.37 234.34h-96a1.14 1.14 0 0 1 -1.14-1.14 1.14 1.14 0 0 1 1.14-1.13h96a1.14 1.14 0 0 1 1.14 1.13 1.14 1.14 0 0 1 -1.14 1.14z" fill="#6aa5fe"/><path d="m251.37 239.34h-96a1.14 1.14 0 0 1 -1.14-1.14 1.14 1.14 0 0 1 1.14-1.13h96a1.14 1.14 0 0 1 1.14 1.13 1.14 1.14 0 0 1 -1.14 1.14z" fill="#6aa5fe"/><path d="m.87 295.73h484.12" fill="none" stroke="#2a294f" stroke-linecap="round" stroke-linejoin="round" stroke-width=".78"/><path d="m305.96 286.8h4.56v5.62h-4.56z" fill="#ff746f"/><path d="m306 291.14 2.38.74 2.22-.74 1.99 4.57h-18.45l6.94-2.28z" fill="#2a294f"/><path d="m353.8 292.42h4.57l-1.7-5.62h-4.56z" fill="#ff746f"/><path d="m357.96 291.14-2.39.74-2.21-.74-1.99 4.57h18.44l-6.93-2.28z" fill="#2a294f"/><path d="m295.72 96.74c-.62.47-6.23 3.78-6.23 3.78l-4-5.1 1.19-5.81 8.57.53 1.5 4.34c.37 1.03-.27 1.67-1.03 2.26z" fill="#fe9280"/><path d="m295.26 90.14 1.3 3.81-4 1.59a3.57 3.57 0 0 1 -2.39.17 3.62 3.62 0 0 1 -2.65-3.94l.25-2.09z" fill="#e86767"/><path d="m293.32 95.23 3.43.5 1.88-3.22a1.25 1.25 0 0 0 -.39-1.72 1.26 1.26 0 0 0 -1.72.39z" fill="#ff746f"/><path d="m287.15 109.1-7.07 1.79-2.52 20.47 8.27.33z" fill="#fff"/><path d="m383.67 125.6-12.36-1.6 2.83-22.46 12.35 1.55a11.32 11.32 0 0 1 9.82 12.65 11.32 11.32 0 0 1 -12.64 9.86z" fill="#fe9280"/><path d="m384.31 120.48-12.31-1.56-.64 5.12 12.36 1.56a11.34 11.34 0 0 0 12.67-12.42 11.33 11.33 0 0 1 -12.08 7.3z" fill="#777470" opacity=".2"/><path d="m369.8 123.85-131.09-16.91 2.82-22.46 131.1 16.91z" fill="#ffc957"/><path d="m215.35 92.59 23.36 14.35 2.82-22.46z" fill="#fff4dd"/><path d="m215.35 92.59 23.36 14.35.69-5.49z" fill="#777470" opacity=".2"/><path d="m223.15 90.17-7.8 2.42 6.96 4.27z" fill="#2a294f"/><path d="m371.17 101.98h10.94v22.64h-10.94z" fill="#d3eaf5" transform="matrix(.99215839 .12498691 -.12498691 .99215839 17.1 -46.16)"/><path d="m378.34 101.46h3.74v24.58h-3.74z" fill="#d3eaf5" transform="matrix(.99218019 .12481375 -.12481375 .99218019 17.18 -46.6)"/><path d="m376.94 124.75-138.23-17.81.69-5.49 138.24 17.81z" fill="#777470" opacity=".2"/><path d="m379.08 107.78-138.24-17.81.69-5.49 138.24 17.81z" fill="#777470" opacity=".05"/><path d="m377.28 118.46h3.74v7.51h-3.74z" fill="#777470" opacity=".15" transform="matrix(.99218019 .12481375 -.12481375 .99218019 18.23 -46.4)"/><path d="m334.79 179.58 1.85-4.79 6.24-.51a1.94 1.94 0 0 1 2.27 1.54 2 2 0 0 1 -1.87 2z" fill="#e86767"/><path d="m331.56 174.83 3.23 4.75 6.12-1.26-6.86-10.18-1.31.87a4.2 4.2 0 0 0 -1.18 5.82z" fill="#ff746f"/><path d="m336.62 173.22 20.8-21.79-10.96-2.55-12.4 19.26z" fill="#fff"/><path d="m349.39 150.49a4.75 4.75 0 1 0 2.3-6.31 4.74 4.74 0 0 0 -2.3 6.31z" fill="#fff"/><path d="m351 152.39 6.43-6.85-22.43-26.6a5.33 5.33 0 0 0 -8-.64c-2.31 2.27-2.09 10.31.49 12.28z" fill="#fff"/><path d="m314.87 106.7h9.23v14.64h-9.23z" fill="#ff746f" transform="matrix(-1 -.08 .08 -1 628.22 254.58)"/><path d="m281.25 128.26a4.14 4.14 0 1 0 4.41 3.85 4.13 4.13 0 0 0 -4.41-3.85z" fill="#fff"/><path d="m278.64 128.87 4.2 7.45 25.64-5.76c3.14-.8 4.84-8.44 3.6-11.44a5.32 5.32 0 0 0 -7.63-2.55z" fill="#fff"/><path d="m331.63 171.08 2.8-48.81a4.51 4.51 0 0 0 -3.77-5.56l-22.87-.83a4.5 4.5 0 0 0 -5.11 4.36l-4.68 59.33z" fill="#fff"/><path d="m309.76 171.08 5.27 16.42-2.34 101.84h-9.4l-5.29-109.77.72-8.49z" fill="#1a55b5"/><path d="m309.76 171.08 5.14 20.17h3.71l33.14 98.09h7.7l-23.33-104.95-4.49-13.31z" fill="#527ee9"/><path d="m291.9 87.31h1a0 0 0 0 1 0 0v8.76a0 0 0 0 1 0 0h-1a3.6 3.6 0 0 1 -3.6-3.6v-1.55a3.6 3.6 0 0 1 3.6-3.61z" fill="#ff746f" transform="matrix(.16 -.99 .99 .16 153.85 363.99)"/><path d="m313.47 116.08 6.7.25-2.72 4.07v32.41l-3.93 8.28-3.62-9.97 5.04-30.98z" fill="#1a55b5"/><path d="m331.74 95.15a11.31 11.31 0 0 0 -2.43-6.05 10.84 10.84 0 0 0 -5-3.35 6.74 6.74 0 0 0 -2.8-.37 6.73 6.73 0 0 1 -3.56-.25c-1.61-.71-2.77-2.1-4.22-3a5 5 0 0 0 -1.09-.51 5.39 5.39 0 0 0 -5 .58 5.48 5.48 0 0 0 -1.69 2 6.92 6.92 0 0 0 -.75 2.49 8.32 8.32 0 0 0 1.25 5 9.77 9.77 0 0 0 3.4 3.27c-.05.36-.1.72-.12 1.09a11 11 0 0 0 20.79 5.62 11.53 11.53 0 0 0 1.22-6.52zm-23-2.08a13.64 13.64 0 0 1 -1.44-1.93 7.77 7.77 0 0 1 -1.36-4.47 5.66 5.66 0 0 1 2-4.15 4.11 4.11 0 0 1 1.62-.8 3.42 3.42 0 0 0 -.84.52 5.76 5.76 0 0 0 -1.72 4.06 9.72 9.72 0 0 0 3.1 7.87.5.5 0 0 0 0 .12 11.78 11.78 0 0 1 -1.39-1.22z" fill="#1a55b5"/><path d="m326.58 101.84a2.1 2.1 0 1 0 2.42-1.72 2.09 2.09 0 0 0 -2.42 1.72z" fill="#ff746f"/><path d="m317.61 90.12a7.47 7.47 0 0 0 -6.77 4l-.27 1.44-.21 1.28a1.08 1.08 0 0 0 0 .18l-.6 3.57a9.26 9.26 0 0 0 7.24 10.72 9.05 9.05 0 0 0 10.57-7.39l.74-4.38s1.34-8.54-10.7-9.42z" fill="#ff746f"/><path d="m318.57 101.72c-.54-.34-4.1-1-4.53-.76a1.27 1.27 0 0 0 -.53 1.38 2.15 2.15 0 0 0 .94 1.24 3.55 3.55 0 0 0 3.44.28 1.92 1.92 0 0 0 1-.91 1 1 0 0 0 -.32-1.23z" fill="#fff"/><path d="m319.56 90.34a16.72 16.72 0 0 1 3.56 1 8.08 8.08 0 0 1 2.37 1.36c2.26 2 .25 6.21-.53 8.42-.19.54-.41 1.18-.07 1.64a1.17 1.17 0 0 0 1.65 0 5.57 5.57 0 0 0 1-1.52 1.94 1.94 0 0 1 1.41-1.09s-.36-10-.36-10-6.29-.21-6.78-.23a7.52 7.52 0 0 0 -2.25.42z" fill="#1a55b5"/></svg>