<svg viewBox="0 0 1821 1743.83" xmlns="http://www.w3.org/2000/svg"><path d="m860.39 820.49s-79.75 180.37-112.39 163.51 103.35-194.63 103.35-194.63-99.35-173.45-161.46-207.86c0 0-15.16 219.24-42.64 194.82s-22.25-253.33-22.25-253.33-132.85-132.8-219.29-59.41-78 145.61-59.31 166.75 164.6 118.73 147.96 134.94-135-20.91-177.91-75.28c0 0-41.93 189.76 42.15 236.5s142.09 14.69 193.52 44.5 78.09 67.53 44.62 63.89-110-69.33-172.57-62.92-108.67 5.12-45.73 70.54 200.91 146.44 266 108.17l8.14-4.79a36.39 36.39 0 0 1 -8.14 4.79c8.1 17.18 2.51 68.72-3.26 107.24-1.37 6.29-2.87 15.26-4.5 27.73-.95 5.48-1.77 9.94-2.35 13-18.61 82.39-109 184.58-109 184.58l12.76 15c112-88.63 114.71-222.86 114.71-222.86 10.93-100.41 56.73-163 56.73-163s195.17 18 203-134.33c-.01.05-7.4-101.88-52.14-157.55z" fill="#dfebfd"/><path d="m1432.77 741.21s-95.23 190.51-192 322c-38.48 52.34-77.22 95.33-110.27 113.26-32.36 17.54-59.75 44.8-82.41 75-58.71 78.21-85.8 176.12-85.8 176.12l-247.29-374.21s8.44-365.81 38.14-427c43.29-89.17 64.2-269.34 80.83-305.21 12.34-26.61 47.57-164.06 51-174.16 1.46-4.35 13.19-11 28.41-11 12.22 0 33 11.81 38.19 36.07 26.45 122.65-5.39 203.55-5 207.14 9.33 94.26-18.72 164.23.95 182.76.74.68 2.09.36 4-.87 34.1-21.89 245.75-330.46 271.82-337.12 27.43-6.99 209.43 517.22 209.43 517.22z" fill="#efa26f"/><path d="m1036.74 1353.55s-3.37 166.3-13 390.28h-623.96c142.62-304.14 266.62-560.12 266.62-560.12s355.27 10.85 370.34 169.84z" fill="#f99746"/><path d="m1649 96.46-76.6 112.29-75.13 110.25c-4.58 5.53-9.89 7.46-15.63 6.9-18-1.71-40.35-27.72-57.74-42.13l-1.77-1.45a54.27 54.27 0 0 1 -7.2-76.18l114.89-138.93 34.07-41.21a54.26 54.26 0 0 1 76.18-7.21l1.77 1.45a54.29 54.29 0 0 1 7.16 76.22z" fill="#ffb27d"/><path d="m1572.44 208.75-75.17 110.25c-4.58 5.53-9.89 7.46-15.63 6.9l48.18-258.64c.1 1.4 8.29 117.45 42.62 141.49z" fill="#efa26f"/><path d="m1240.8 1063.23c-38.48 52.34-77.22 95.33-110.27 113.26-32.36 17.54-59.75 44.8-82.41 75-26.07-12.15-55.79-26.41-84.84-40.53-35.37-17.19-36.73-67.41-2.08-86 .34-.18.67-.36 1-.55 32.47-18.57 65.73-84.17 65.73-84.17z" fill="#d38254"/><path d="m883.15 152.7-20 80.92s17.52 7.17 28.77 1.6 20.4-78.16-8.77-82.52z" fill="#ffc197"/><rect fill="#2b478b" height="1101.47" rx="77.08" width="585.13" x="951.48"/><path d="m1507.61 84.37v925.36c0 31.39-25.5 57.07-56.65 57.07h-413.83c-31.15 0-56.64-25.68-56.64-57.07v-925.36c0-31.39 25.49-57.07 56.64-57.07h413.87c31.11 0 56.61 25.7 56.61 57.07z" fill="#c0d8fb"/><path d="m1451 27.3-408.75 1039.5h-5.12c-31.15 0-56.64-25.68-56.64-57.07v-925.36c0-31.39 25.49-57.07 56.64-57.07z" fill="#cbe1fd"/><rect fill="#2b478b" height="55.26" rx="25.62" width="224.19" x="1131.96" y="6.46"/><path d="m1610.91 520.53-11.42 4.34-76.82 29.19a48.19 48.19 0 0 1 -5.44 1.72 52.46 52.46 0 0 1 -62-32l-1.13-3a52.48 52.48 0 0 1 30.32-67.5l71.58-27.2 5.2-2 11.42-4.34a52.46 52.46 0 0 1 67.48 30.32l1.13 2.95a52.48 52.48 0 0 1 -30.32 67.52z" fill="#ffb27d"/><path d="m1548.53 522.29c-12.82 4.86-36 13.48-48.44 15.26-3.51.51-10-1.4-16-8-3.63-4-7.09-9.6-9.66-17.42a55.11 55.11 0 0 1 -2.63-11.12 46.93 46.93 0 0 1 .42-13.23 13.19 13.19 0 0 1 7.33-9.43s0 0 .06 0c13.2-6.31 31-14 46.58-18.27 10.79-3 21.7 1.78 25.11 11.22l1.61 4.41 8.25 22.58c3.39 9.33-2.16 20.05-12.63 24z" fill="#ffd3b6"/><path d="m1548.53 522.29c-12.82 4.86-36 13.48-48.44 15.26-3.51.51-10-1.4-16-8-.65-1.5-1.24-3.09-1.8-4.78a55.27 55.27 0 0 1 -2.63-11.12 47.3 47.3 0 0 1 .42-13.23 13.24 13.24 0 0 1 7.33-9.44h.06c13.2-6.31 31-14 46.59-18.27a22.05 22.05 0 0 1 18.85 3l8.25 22.58c3.39 9.33-2.16 20.05-12.63 24z" fill="#ffc197"/><path d="m1576.05 628.52-59.23 16.13a34 34 0 0 1 -41.64-23.82l-1.83-6.7a34 34 0 0 1 23.82-41.64l59.24-16.13a34 34 0 0 1 41.59 23.82l1.83 6.71a34 34 0 0 1 -23.78 41.63z" fill="#ffb27d"/><path d="m1544 625.62c-10.88 2.9-30.55 8-40.86 8.59-3.75.21-11.26-3-16.16-12.82a39.76 39.76 0 0 1 -3-8.35 39.09 39.09 0 0 1 -1.32-8.71 33.81 33.81 0 0 1 1.32-10.14 10.49 10.49 0 0 1 6.7-6.77c11.29-4 26.45-8.75 39.57-11 9.06-1.59 17.65 2.77 19.77 10.24l1.53 5.33 4.56 16c2.15 7.38-3.2 15.27-12.11 17.63z" fill="#ffd3b6"/><path d="m1544 625.62c-10.88 2.9-30.55 8-40.86 8.59-3.75.21-11.26-3-16.16-12.82a37.4 37.4 0 0 1 -1.19-8.17 33.81 33.81 0 0 1 1.32-10.14 10.52 10.52 0 0 1 6.69-6.77s0 0 .06 0c11.29-4 26.45-8.74 39.57-11 7.5-1.32 14.68 1.45 18.14 6.67l4.56 16c2.13 7.39-3.22 15.28-12.13 17.64z" fill="#ffc197"/><path d="m605.66 1309.88s121.92 116.78 204.12 161.87l62.22-44.14v65.11s122.39 21.65 161 0v-177.57l-343.76-172.33z" fill="#ed7d2b"/><path d="m715 1040.21s-77.43 115.84-154.38 239.69c0 0 162.17 111.56 250.1 144.29l115.28-132.09-16.47 159s102.07 37.2 149.42 27.49c0 0-3-144.24-3-238.75.05 0-280.51-78.64-340.95-199.63z" fill="#f3f8ff"/><path d="m734 1334.17a19.2 19.2 0 1 1 19 19.37 19.21 19.21 0 0 1 -19-19.37z" fill="#f99746"/><path d="m1609 407-1.28.43-77.66 19.94c-34.15 8.78-69.46-9.7-78.47-41.05l-4.59-16.07c-8.67-30.1 10-61.58 41.68-71.79l25.64-6.58 52-13.36c34.14-8.77 69.46 9.71 78.47 41.06l4.62 16.06c8.59 29.7-9.41 60.72-40.41 71.36z" fill="#ffb27d"/><path d="m1573.45 385.32-37.73 17-.24.06a40.56 40.56 0 0 1 -4.56.94c-.63.1-1.28.17-1.91.24a4.28 4.28 0 0 1 -.8 0 6 6 0 0 1 -5.21-8.48 37.5 37.5 0 0 0 2.14-25.58l-.9-3.29a.32.32 0 0 0 0-.09l-2.92-10.72a40.24 40.24 0 0 0 -13.68-20.85c-.77-.63-1.57-1.22-2.38-1.78-7.46-5.17-5.56-16.87 3.17-19.29l.24-.07 41.4-6.27c10.24-2.78 20.1 5.1 22.89 15.34l3.33 12.2 7.08 26c2.75 10.32.32 21.86-9.92 24.64z" fill="#ffd3b6"/><path d="m1573.45 385.32-37.73 17-.24.06c-.88.17-3.65.63-7.27 1.19a6 6 0 0 1 -5.21-8.48 37.5 37.5 0 0 0 2.14-25.58l-.9-3.29a.32.32 0 0 0 0-.09l-2.92-10.72a40.24 40.24 0 0 0 -13.68-20.85 10.6 10.6 0 0 1 5.94-4.23l.24-.07 41.38-6.26c8.62-2.34 17 2.88 21.06 10.69l7.08 26c2.78 10.31.35 21.85-9.89 24.63z" fill="#ffc197"/><path d="m951.48 811s-16.94-147.89-32.57-176.73-28.86-86.6-4.81-129.51 32.35-125.5 32.35-125.5c9.33 94.26-18.72 164.23.95 182.76.74.68 2.09.36 4-.87z" fill="#d38254"/><path d="m490.69 1360.57s-28.88-79-76.85-112.88c0 0-22.32 160.71-52 154.71s37.78-177.29 37.78-177.29-117.76-114.74-174.62-127.93c0 0 37.56 176.87 10.3 163.76s-74.9-195.34-74.9-195.34-99.4-55.23-160.4-21.93v185.42c46.65 18.46 118.79 45.5 111.8 57.66s-63.8 14-111.8 1v129.14c10.91 13.91 24.34 24.28 40.86 28.13 77.08 18 115.72-20.51 163.15-8.53s77 35.76 49.74 40.45-102.75-30.01-150.75-10.8-84.81 28.62-20.23 66.13 192 70.43 234.84 25.44l5.35-5.62a29.81 29.81 0 0 1 -5.39 5.68c10.29 11.76 17.52 53.82 21.67 85.6.33 5.26 1.17 12.68 2.69 22.84.5 4.71.87 8.54 1.12 11.15 1.12 20.54-2.32 43.86-7.74 66.52h20.57c6.55-51-3.49-89.18-3.53-89.34-14.05-81.9 8-141.76 8-141.76.44-.12 158.51-30.08 130.34-152.21z" fill="#e1eefb"/><path d="m1812.44 1219.32c-27.11-100.13-196.08-68.84-196.08-68.84s-114.73 175.23-148.11 179.4 68.84-169 68.84-169c-64.67-6.25-229.46 73-229.46 73s10.43 204.43-23 200.26 0-181.48 0-181.48c-62.58 18.77-121 91.78-121 91.78-73 118.9 83.44 206.52 83.44 206.52s2.09 70.92-41.71 152.28-9.88 15-19.93 40.55h17.06q2.09-6.87 4.63-13.24a.1.1 0 0 1 0-.08 1.42 1.42 0 0 1 .08-.18c1.16-2.64 2.84-6.39 4.94-11 5.21-10.2 8.73-17.74 11-23.18a.11.11 0 0 0 0-.05c15.62-32 38.12-73.77 53.13-82.52a33 33 0 0 1 -3.65-7.83c1.16 2.5 2.38 5.1 3.65 7.83 29.2 62.58 175.22 73 256.58 56.32s45.89-39.63 2.08-76.88-135.59-27.42-162.7-42 12.51-29.21 66.75-25 81.35 58.41 169 66.76 154.36-156.45 154.36-156.45c-60.49 18.77-169-14.6-173.14-35.47s156.45-18.77 181.48-25 68.88-56.37 41.76-156.5z" fill="#dfebfd"/></svg>