<svg viewBox="0 0 4098.47 2000" xmlns="http://www.w3.org/2000/svg"><path d="m0 0h4098.47v2000h-4098.47z" fill="#fff"/><path d="m3757.3 1167c-246.23-107.47 144.77-479.15-234.54-599.79-247.65-78.77-540.66-46.52-747.25-160.35-663.72-365.7-1352.63-94.1-1555 0-599 278.6-453.42 368.14-981.78 760.14-229.58 170.39-245.73 546 63.41 756.06h3551c273.86-163.67 132.91-656.18-95.84-756.06z" fill="#eafcfc"/><g opacity=".5"><path d="m1245.26 687.26h571.07v1231.95h-571.07z" fill="#9bc1f9"/><path d="m1265.44 705.2h530.49v1194.71h-530.49z" fill="#c5ddf9"/><g fill="#fff"><path d="m1491.55 1899.9h62.99l209.52-1194.7h-62.99z"/><path d="m1575.88 705.2h-129.85l-180.59 1029.69v165.01h100.92z"/></g></g><g opacity=".5"><path d="m584.29 687.26h571.07v1231.95h-571.07z" fill="#9bc1f9"/><path d="m604.47 705.2h530.49v1194.71h-530.49z" fill="#c5ddf9"/><g fill="#fff"><path d="m830.58 1899.9h62.99l209.52-1194.7h-62.99z"/><path d="m914.91 705.2h-129.85l-180.58 1029.69v165.01h100.9z"/></g></g><path d="m981.06 1093.28c0-9 4.84-16.91 12.36-22.43a36.42 36.42 0 0 1 35.51-4c32.68 13.67 49.59 17.17 45.77 50.37-.94 8.16-5.92 15.32-7.76 23.33-14.1 61.28-75.78 50.26-82.87 18.13-27.07-30.56-3.07-29.98-3.01-65.4z" fill="#89a6e5"/><path d="m1066.94 1122.49c-14.1 61.29-75.78 50.27-82.87 18.14-5.48-6.2-8.87-11.13-10.79-15.33-3.54 9.17-4.11 16.56 10.79 33.4 7.09 32.13 68.77 43.15 82.87-18.13 1.84-8 6.82-15.17 7.76-23.33a56.2 56.2 0 0 0 -.19-16.77c-1.28 7.63-5.83 14.45-7.57 22.02z" fill="#89a6e5" opacity=".3"/><path d="m1008.51 1082.74c3.54-.06 1 16.21 4 18.08s9.86-18.34 12.92-18.14c5.63.36-6.22 22.61-3.64 22.94s15.93-22 19.24-18-16.25 21.72-13.64 23.31 16.71-18.13 22.78-15.7c3.25 1.29-28.37 30.65-27.94 35.41s18.85 1.23 20.07 5.3-33.8 3.67-35.69 5.58-49.15 47.77-59.21 63.57c5.09 4 40.89 28 45.75 31.61-10.07 7.41-9 23.09-18.52 31-15.76-13.19-71.8-49.13-70.67-57.06 4.17-29.32 69.86-73.79 82.18-82.87s11.82-16.78 17.12-23.92 1.74-21.04 5.25-21.11z" fill="#f7a491"/><path d="m1121.37 1382.88a22.13 22.13 0 0 1 -2.31 5.6c-6.65 12.1-22.08 29.38-22.08 29.38l-11.98-26.86s1.94-8.44 5.32-20.51c11.57 2.97 22.55 4.71 31.05 12.39z" fill="#f8a492"/><path d="m1052.93 1359.55s66.58 28.67 68.73 28.12c1.39-.35 27.31-43.74 27.59-84.55.13-18.84-19.45-41.52-41.29-37-11 2.25-10.82 5.31-27.08 29s-27.95 64.43-27.95 64.43z" fill="#89a6e5"/><path d="m996.09 1873.61s1.58 26.15 1.59 26.21c.58 3.32 2.86 11.52 2.86 14.54 0 11.33-53.83-9.63-41.77-14.65 1.09-.46 6.82-3.9 7.17-7.76.56-5.94 2-18 2-18z" fill="#f7a491"/><path d="m958.91 1899.6s12.63 3.47 19.11 4.33 15-6.43 19.59-4.46c5 2.17 4.84 21.71 4.84 21.71s-67.79 5.56-86.85-.19c-7.55-2.28 17.46-13.31 43.31-21.39z" fill="#355389"/><path d="m1106.23 1873.61s1.58 26.15 1.58 26.21c.59 3.32 2.87 11.52 2.87 14.54 0 11.33-53.84-9.63-41.77-14.65 1.09-.46 8.51-6.47 8.87-10.32.55-6 .26-15.41.26-15.41z" fill="#f7a491"/><path d="m1101.23 1223.42 6.1 38.61s-23.26 18.67-36.82 14.73c-11.37-3.3-3.57-18.17-3.57-18.17s6.06-20.61 4.2-31.42 30.09-3.75 30.09-3.75z" fill="#f7a491"/><path d="m1096.85 1235.09c-5.83 2.76-17.36 6.51-26.33 7.42.86-5.4 1.35-11.11.62-15.34-.86-5 5.49-6.16 12.57-6 9.26.8 17.52 2.24 17.52 2.24l1.17 7.42a19 19 0 0 1 -5.55 4.26z" fill="#fe875e"/><path d="m1130.58 1178.89c1 0-9.19 43.13-24.91 50.55s-39.15 3.55-43.54-8.06c-4.87-12.85 12.87-56.85 35-62.44s33.45 19.95 33.45 19.95z" fill="#f7a491"/><path d="m1112.4 1139.27a49.53 49.53 0 0 1 20.25 22.37c5.89 2.8 13 8.85 16.44 25.14 4.21 20-10.75 35.47-26.61 40.12s-18.31 15.14-18.31 15.14l-1.8-11.29s3.53-9.84 8.84-14.76-2.52-12.09-3.2-17.94c-.53-4.51 2.78-13.25 2.06-20.64 0 0-8.81-13.36-17.49-16.66-14.81-5.62 3.71-30.75 19.82-21.48z" fill="#f7cc7f"/><path d="m1094 1461.15s9.13 44.11 5.41 77.56-4 152.26-4 152.26l14.19 190.1-33.67.73s-39.92-190-39.18-185.13-13.38-133.79-13.38-133.79l47.63-105.88z" fill="#13375b"/><path d="m1085.11 1459.06s6 39.72-1.49 57.14-63.78 188.34-64.53 202.28-19.48 168-19.48 168l-39.15-1.1-8.46-171.29 17.74-215.24 17.26-54.42z" fill="#355389"/><path d="m1107.33 1262s-9.65 6.33-18.66 5.6-21.73-9-21.73-9l1.77-6s23.29-3.39 23.88-3 14.74 12.4 14.74 12.4z" fill="#f7a491"/><path d="m981 1396.35c5.14-28 42.39-115 45.36-131 1.45-7.8 21.54-8 40.68-6.95 20.21 1.07 40.29 3.63 40.29 3.63s17.9 2.94 25.77 10.31 10 27.79-1.35 66.52c-8.94 30.57-20 47.36-25.49 69.63-1.11 7.47-2.06 14.84-3.33 23.45-2 33.3-43.27 31.28-43.27 31.28s-35.15 43.11-71.59 12.45c0 0-12.34-50.67-7.07-79.32z" fill="#9bc1f9"/><path d="m965.34 1207.67s-26.29 42-26 44.23c.19 1.42 45.86 49 79.28 56.94 18.48 4.4 50.07-29.77 47.88-45.86-1.5-11.15-101.16-55.31-101.16-55.31z" fill="#89a6e5"/><path d="m1811.43 698.66c.71 1 1.78 2.37 3.36 4.28l.06.08c-.06.22-19.95 72.24-4.29 77.71 14.37 5 15.58-47.79 9.75-69.92a109.6 109.6 0 0 1 8.4 15.48c4 9.23 6.79 21.13 8.62 34.4-2.92 4.79-20.76 34.84-11.83 41 7.25 5 12-14.74 13.3-27.79 1 11.8 1.51 24.27 1.56 36.65-9.66 2.36-38.8 10.73-39.35 25.69-.61 16.76 24.44 11.76 39.34-19.24-.08 12.32-.54 24.4-1.16 35.49-6.94 6.25-35.47 33.16-30.87 48.71 4.66 15.75 22.55-2.29 30.1-36.69-1.4 19.7-3.18 34.65-4 39.38-.26 1.55-.55 3.55-.86 5.91-.11.86-.23 1.78-.34 2.73s-44.35 59.76-31.65 73.51c9 9.75 22.48-30.16 29.56-54.22-2.45 25.54-4.6 58.86-2.55 69.14h.16c-1.57 23-2.64 64.92 10 67 17.56 2.92 0-43.89 0-43.89s21.42 8.55 23.41 0c3.32-14.31-26.69-34.46-31.53-37.61.06-12.72 1.21-30.75 2.66-47.12 1.61 35.1 10.39 45.55 13.8 46.7 4.24 1.43 12.95-7.16 10-34.3-2.32-21.08-15.23-34.72-20.88-39.75.39-3 .76-5.58 1.1-7.62.76-4.53 2.41-18.42 3.78-36.89 3.43 28.87 11.55 52.49 18.87 37.86 7.14-14.26-11.49-41.55-18-50.41.75-12.87 1.29-27.19 1.29-41.72 5.44 14.27 29.32 41.1 32.3 25.74 2.93-15.1-26.71-30.81-32.36-33.65-.17-12.44-.77-24.88-2-36.55 6.62 11.77 26.84 35.87 29.24 22.86 2.74-14.86-31.15-37.66-31.15-37.66a.17.17 0 0 0 0 .06c-1.83-11-4.38-21-7.86-28.93a111.41 111.41 0 0 0 -7.93-14.82c12.53 8.5 31.7 16.06 30.92 7.19-.83-9.62-30.32-17.41-39.72-19.65-.32-.46-.54-.65-.67-.65-3.37-4.14-6.92-8.06-10.53-11.73h-4.11a168.83 168.83 0 0 1 12.06 13.24z" fill="#327f6b"/><path d="m1785.91 723.71c9.36 5.28 5.93-21 2.82-38.25h-9.14c-1.68 14.39-2.09 33.54 6.32 38.25z" fill="#327f6b"/><path d="m1798.15 722.24c12.42-1.74 1.25-20.5-16.26-36.78h-18.34c9.24 16.94 23.31 38.36 34.6 36.78z" fill="#327f6b"/><path d="m1748.46 685.46h-18.8c-9.64 12-16.92 26.83-10.37 40.11 9.25 18.75 21.71-14.91 29.17-40.11z" fill="#327f6b"/><path d="m1760 685.46h-3.12c.8 5.56 1.67 11.73 2.57 18.42-7.52 14.85-46 93.2-27.64 110 20.25 18.59 27.46-76.58 27.46-76.58l1.07-26.8c3.07 23.12 6.46 51.3 9.13 80.4-7 5.74-35.78 31-23.79 47.67 11.15 15.48 21-27.32 24.19-43.19 1.71 19.25 3.09 38.81 3.82 57.47-7.36 3.42-38.4 18.86-29.88 32.34 8.24 13 25.38-15.92 30.16-24.57.34 11.44.43 22.47.18 32.8-8 3.78-44 21.38-35.13 29.78 10 9.43 30.52-15.82 30.52-15.82s-16.09 64.65 1.4 57.71 5.81-61.59 6.37-63l-.3-1.76c.34-8.49.43-17.53.31-26.94 3.25 8.32 9.53 22.19 13.31 16.22 4.44-7-9.13-21.35-13.49-25.66-.33-12.83-1-26.2-1.91-39.72 6.31 16 19.52 39 26.22 28.2 7.52-12.13-20.74-43.49-28-51.2-1.68-19.86-3.75-39.54-5.89-57.72 8.88 23.25 37.83 72.43 47.19 55.65 9.73-17.49-40.45-72.25-50.58-83-1.5-11.46-2.93-21.85-4.17-30.7z" fill="#3c8f7c"/><path d="m1658.57 702.6c7.58 20.24 22.58 54.38 37.29 54 19.86-.54-8.48-44.82-37.71-65.46-.05-1.43-.11-2.77-.16-4a109.76 109.76 0 0 0 -14.07 3.43c-16.66 11.6-44.88 35.86-36.21 59.87 10.21 28.3 37.19-39 45.26-60.47.4 10 .9 24.79 1.3 42.61-11.91 18.25-61.57 97.21-43.74 117.71 20.21 23.22 40.16-81.77 40.16-81.77l3.8-24.81c.45 25.29.62 55.39 0 86.29-9.74 6.45-42.51 30.1-31.59 49.5 9.94 17.69 25.18-23.29 31.42-42.24-.53 20.83-1.44 41.88-2.9 61.93-9.94 3.4-44 16.37-36.45 31.94 7.21 14.87 28.24-11.93 35.69-22.23-1 12.41-2.31 24.35-3.85 35.5-10.9 3.75-50.51 18.27-41.93 28.43 9.94 11.74 36-13.79 36-13.79s-26 69.93-5.67 64.4c17.92-4.87 15.27-53.81 14.93-66.37 1.67-10.14 3.08-21.1 4.27-32.6 2.73 9.7 7.57 23.18 12.15 17.47 5.52-6.88-6.13-23.07-11-29.29 1.21-13.8 2.13-28.21 2.81-42.83 5.37 18.37 16.51 42.79 24.92 32.1 9.54-12.11-15.76-48.35-23.91-59.38.61-21.56.79-43 .72-62.94 8 28.08 32.64 81.58 44.68 64.72 12.69-17.75-33.41-81.95-45-97.56-.39-17.22-.78-32.32-1.21-44.16z" fill="#3c8f7c"/><path d="m1679.05 736c10.65 12.47 21.66-28.43 26.53-49.84.16 14.68.34 34.34.45 57.1-6.57 6.75-26.94 29.2-24.1 45.84 2.76 16.14 18.47-17.49 24.17-30.44 0 11.89.05 24.44 0 37.42-8.23 7.15-28.12 26.55-18.63 39.72 7.68 10.67 14.66-10.46 18.6-26.57 0 14.78-.12 30-.27 45.36-9.95 8-37.62 32.6-27.52 53.06 9 18.16 21.4-20.19 27.41-42-.18 16.37-.44 32.8-.77 48.92-5.46 9.13-25.36 44.12-14.47 51.66 5.89 4.08 10.5-4.5 13.53-15.63-.46 15-1 29.49-1.7 43-7.26 4.8-37.25 25.69-33.76 40.72 2.18 9.38 25.69 0 25.69 0s-19.27 51.37 0 48.16c13.66-2.27 12.79-46.51 11.13-72.06.28-4.7.55-9.55.81-14.52 2.84 10.7 7.67 18.45 13.14 11.9 9.62-11.51-8.19-38.82-11.76-44.06.5-14.07.91-28.75 1.25-43.74 7.39 14.39 35.51 48.76 38.73 31.27 3.1-16.81-30.08-41.48-38.4-47.38.28-14.92.48-30 .63-45.06 5.34 11.37 23.56 47.8 37.15 45.9 15.76-2.21-12.12-35.91-37.12-48.48.14-14.73.23-29.35.28-43.58.05.37.1.74.16 1.14 1.5 9.65 18.29 46.1 25.78 34s-25.78-46-25.78-46a1.67 1.67 0 0 0 -.14.3c0-13.75 0-27.06 0-39.67 5.29 13.37 23.79 43 29.71 33.08 5.63-9.44-20.71-37.5-29.76-46.7-.07-18.25-.2-34.69-.33-48.4 6.28 13.75 25.31 51.59 31.12 37.88 6.2-14.62-24.19-42.71-31.23-49 0-1.35 0-2.65 0-3.92h-15.11c-11.21 16.62-24.25 40.31-15.42 50.62z" fill="#327f6b"/><path d="m592 698.66c-.72 1-1.79 2.37-3.36 4.28l-.07.08c.07.22 20 72.24 4.29 77.71-14.36 5-15.57-47.79-9.75-69.92a109.55 109.55 0 0 0 -8.39 15.48c-4 9.23-6.8 21.13-8.62 34.4 2.92 4.79 20.75 34.84 11.82 41-7.24 5-12-14.74-13.3-27.79-1.05 11.8-1.5 24.27-1.55 36.65 9.65 2.36 38.79 10.73 39.34 25.69.59 16.76-24.41 11.76-39.36-19.24.09 12.32.54 24.4 1.16 35.49 6.94 6.25 35.47 33.16 30.87 48.71-4.66 15.8-22.55-2.2-30.08-36.65 1.4 19.7 3.18 34.65 4 39.38.26 1.55.55 3.55.86 5.91.11.86.23 1.78.35 2.73s44.34 59.76 31.64 73.51c-9 9.75-22.48-30.16-29.56-54.22 2.45 25.54 4.61 58.86 2.55 69.14h-.16c1.57 23 2.64 64.92-10 67-17.55 2.92 0-43.89 0-43.89s-21.42 8.55-23.4 0c-3.32-14.31 26.68-34.46 31.52-37.61-.05-12.72-1.21-30.75-2.66-47.12-1.61 35.1-10.38 45.55-13.8 46.7-4.23 1.43-13-7.16-10-34.3 2.32-21.08 15.23-34.72 20.88-39.75-.39-3-.76-5.58-1.1-7.62-.75-4.53-2.41-18.42-3.78-36.89-3.43 28.87-11.55 52.49-18.87 37.86-7.14-14.26 11.5-41.55 18-50.41-.76-12.87-1.29-27.19-1.29-41.72-5.45 14.27-29.32 41.1-32.3 25.74-2.93-15.1 26.7-30.81 32.35-33.65.17-12.44.77-24.88 2-36.55-6.63 11.77-26.85 35.87-29.24 22.86-2.77-14.86 31.12-37.65 31.12-37.65v.06c1.82-11 4.37-21 7.86-28.93a110.2 110.2 0 0 1 7.92-14.82c-12.52 8.5-31.69 16.06-30.92 7.19.84-9.62 30.32-17.41 39.72-19.65.32-.46.54-.65.67-.65 3.37-4.14 6.92-8.06 10.54-11.73h4.11a166.88 166.88 0 0 0 -12.01 13.19z" fill="#327f6b"/><path d="m605.26 722.24c-12.43-1.74-1.26-20.5 16.25-36.78h18.35c-9.25 16.94-23.31 38.36-34.6 36.78z" fill="#327f6b"/><path d="m654.94 685.46h18.8c9.64 12 16.93 26.83 10.37 40.11-9.25 18.75-21.72-14.91-29.17-40.11z" fill="#327f6b"/><path d="m643.44 685.46h3.11c-.8 5.56-1.66 11.73-2.57 18.42 7.53 14.85 46 93.2 27.65 110-20.26 18.59-27.47-76.58-27.47-76.58l-1.07-26.8c-3.07 23.12-6.45 51.3-9.12 80.4 7 5.74 35.78 31 23.78 47.67-11.15 15.48-21-27.32-24.19-43.19-1.71 19.25-3.08 38.81-3.82 57.47 7.36 3.42 38.4 18.86 29.89 32.34-8.25 13-25.38-15.92-30.16-24.57-.35 11.44-.43 22.47-.18 32.8 8 3.78 44 21.38 35.12 29.78-10 9.43-30.52-15.82-30.52-15.82s16.11 64.62-1.4 57.72-5.81-61.59-6.37-63l.3-1.76c-.34-8.49-.43-17.53-.31-26.94-3.25 8.32-9.52 22.19-13.3 16.22-4.45-7 9.13-21.35 13.48-25.66.33-12.83 1-26.2 1.92-39.72-6.32 16-19.52 39-26.22 28.2-7.52-12.13 20.73-43.49 28-51.2 1.69-19.86 3.76-39.54 5.89-57.72-8.88 23.27-37.88 72.48-47.21 55.67-9.74-17.49 40.44-72.25 50.57-83 1.49-11.49 2.93-21.88 4.2-30.73z" fill="#3c8f7c"/><path d="m724.35 736c-10.65 12.47-21.65-28.43-26.52-49.84-.17 14.68-.35 34.34-.46 57.1 6.57 6.75 26.94 29.2 24.1 45.84-2.76 16.14-18.47-17.49-24.16-30.44 0 11.89-.06 24.44 0 37.42 8.23 7.15 28.12 26.55 18.63 39.72-7.69 10.67-14.66-10.46-18.61-26.57 0 14.78.13 30 .27 45.36 10 8 37.62 32.6 27.52 53.06-9 18.16-21.4-20.19-27.41-42 .19 16.37.44 32.8.78 48.92 5.46 9.13 25.35 44.12 14.46 51.66-5.89 4.08-10.5-4.5-13.53-15.63.47 15 1 29.49 1.71 43 7.26 4.8 37.24 25.69 33.75 40.72-2.17 9.38-25.68 0-25.68 0s19.26 51.37 0 48.16c-13.66-2.27-12.8-46.51-11.13-72.06-.29-4.7-.56-9.55-.81-14.52-2.85 10.7-7.68 18.45-13.15 11.9-9.61-11.51 8.19-38.82 11.77-44.06-.51-14.07-.92-28.75-1.26-43.74-7.39 14.39-35.5 48.76-38.73 31.27-3.1-16.81 30.08-41.48 38.4-47.38-.27-14.92-.48-30-.63-45.06-5.34 11.37-23.55 47.8-37.14 45.9-15.77-2.21 12.11-35.91 37.11-48.48-.14-14.73-.23-29.35-.27-43.58-.05.37-.1.74-.17 1.14-1.49 9.65-18.29 46.1-25.77 34s25.77-46 25.77-46a1.67 1.67 0 0 1 .14.3c0-13.75 0-27.06 0-39.67-5.29 13.37-23.79 43-29.71 33.08-5.63-9.44 20.71-37.5 29.76-46.7.08-18.25.2-34.69.33-48.4-6.27 13.75-25.3 51.59-31.12 37.88-6.2-14.62 24.19-42.71 31.24-49 0-1.35 0-2.65 0-3.92h15.17c11.14 16.62 24.18 40.31 15.35 50.62z" fill="#327f6b"/><path d="m564.33 680.62h1280.1v14.48h-1280.1z" fill="#13375b"/><g opacity=".5"><path d="m2810.69 687.26h571.07v1231.95h-571.07z" fill="#9bc1f9"/><path d="m2830.87 705.2h530.49v1194.71h-530.49z" fill="#c5ddf9"/><g fill="#fff"><path d="m3056.97 1899.9h63l209.52-1194.7h-63z"/><path d="m3141.3 705.2h-129.85l-180.58 1029.69v165.01h100.91z"/></g></g><g opacity=".5"><path d="m2149.72 687.26h571.07v1231.95h-571.07z" fill="#9bc1f9"/><path d="m2169.9 705.2h530.49v1194.71h-530.49z" fill="#c5ddf9"/><g fill="#fff"><path d="m2396.01 1899.9h62.99l209.52-1194.7h-62.99z"/><path d="m2480.34 705.2h-129.86l-180.58 1029.69v165.01h100.92z"/></g></g><path d="m3376.85 698.66c.72 1 1.79 2.37 3.37 4.28l.06.08c-.06.22-20 72.24-4.29 77.71 14.37 5 15.58-47.79 9.75-69.92a109.55 109.55 0 0 1 8.39 15.48c4 9.23 6.8 21.13 8.62 34.4-2.92 4.79-20.75 34.84-11.82 41 7.25 5 12-14.74 13.3-27.79 1.05 11.8 1.5 24.27 1.56 36.65-9.66 2.36-38.8 10.73-39.35 25.69-.61 16.71 24.44 11.78 39.34-19.22-.09 12.32-.54 24.4-1.16 35.49-6.94 6.25-35.47 33.16-30.87 48.71 4.66 15.75 22.55-2.29 30.1-36.69-1.4 19.7-3.18 34.65-4 39.38-.26 1.55-.55 3.55-.86 5.91-.11.86-.23 1.78-.35 2.73s-44.34 59.76-31.64 73.51c9 9.75 22.48-30.16 29.56-54.22-2.45 25.54-4.6 58.86-2.55 69.14h.16c-1.57 23-2.64 64.92 10.05 67 17.55 2.92 0-43.89 0-43.89s21.42 8.55 23.41 0c3.32-14.31-26.69-34.46-31.53-37.61.06-12.72 1.21-30.75 2.66-47.12 1.61 35.1 10.38 45.55 13.8 46.7 4.24 1.43 12.95-7.16 10-34.3-2.32-21.08-15.23-34.72-20.88-39.75.39-3 .76-5.58 1.1-7.62.75-4.53 2.41-18.42 3.78-36.89 3.43 28.87 11.55 52.49 18.87 37.86 7.14-14.26-11.5-41.55-18-50.41.75-12.87 1.28-27.19 1.29-41.72 5.44 14.27 29.32 41.1 32.3 25.74 2.93-15.1-26.71-30.81-32.36-33.65-.17-12.44-.77-24.88-2-36.55 6.63 11.77 26.85 35.87 29.25 22.86 2.74-14.86-31.16-37.66-31.16-37.66v.06c-1.82-11-4.37-21-7.85-28.93a111.41 111.41 0 0 0 -7.93-14.82c12.53 8.5 31.69 16.06 30.92 7.19-.83-9.62-30.32-17.41-39.72-19.65-.32-.46-.54-.65-.67-.65-3.37-4.14-6.92-8.06-10.53-11.73h-4.11a166.79 166.79 0 0 1 11.99 13.22z" fill="#327f6b"/><path d="m3351.34 723.71c9.36 5.28 5.93-21 2.82-38.25h-9.16c-1.66 14.39-2.07 33.54 6.34 38.25z" fill="#327f6b"/><path d="m3363.57 722.24c12.43-1.74 1.26-20.5-16.25-36.78h-18.32c9.22 16.94 23.29 38.36 34.57 36.78z" fill="#327f6b"/><path d="m3313.89 685.46h-18.8c-9.64 12-16.92 26.83-10.37 40.11 9.28 18.75 21.73-14.91 29.17-40.11z" fill="#327f6b"/><path d="m3325.4 685.46h-3.12c.8 5.56 1.67 11.73 2.57 18.42-7.53 14.85-46 93.2-27.64 110 20.25 18.59 27.46-76.58 27.46-76.58l1.07-26.8c3.07 23.12 6.46 51.3 9.12 80.4-7 5.74-35.77 31-23.78 47.67 11.15 15.48 21-27.32 24.19-43.19 1.71 19.25 3.08 38.81 3.82 57.47-7.36 3.42-38.4 18.86-29.88 32.34 8.24 13 25.37-15.92 30.16-24.57.34 11.44.42 22.47.18 32.8-8 3.78-44 21.38-35.13 29.78 10 9.43 30.52-15.82 30.52-15.82s-16.09 64.65 1.4 57.71 5.81-61.59 6.37-63l-.3-1.76c.34-8.49.43-17.53.31-26.94 3.25 8.32 9.53 22.19 13.31 16.22 4.44-7-9.13-21.35-13.49-25.66-.33-12.83-1-26.2-1.91-39.72 6.31 16 19.51 39 26.22 28.2 7.51-12.13-20.74-43.49-28-51.2-1.68-19.86-3.75-39.54-5.89-57.72 8.88 23.25 37.83 72.43 47.19 55.65 9.73-17.49-40.45-72.25-50.58-83-1.47-11.46-2.9-21.85-4.17-30.7z" fill="#3c8f7c"/><path d="m3224 702.6c7.59 20.24 22.59 54.38 37.3 54 19.86-.54-8.48-44.82-37.71-65.46 0-1.43-.11-2.77-.16-4a109.76 109.76 0 0 0 -14.07 3.43c-16.66 11.6-44.88 35.86-36.21 59.87 10.21 28.3 37.19-39 45.26-60.47.39 10 .9 24.79 1.3 42.61-11.91 18.25-61.57 97.21-43.74 117.71 20.21 23.22 40.16-81.77 40.16-81.77l3.8-24.81c.45 25.29.62 55.39 0 86.29-9.73 6.45-42.5 30.1-31.59 49.5 9.95 17.69 25.19-23.29 31.43-42.24-.53 20.83-1.44 41.88-2.9 61.93-9.94 3.4-44 16.37-36.45 31.94 7.21 14.87 28.24-11.93 35.69-22.23-1 12.41-2.31 24.35-3.85 35.5-10.9 3.75-50.51 18.27-41.93 28.43 9.94 11.74 35.95-13.79 35.95-13.79s-26 69.93-5.67 64.4c17.92-4.87 15.27-53.81 14.93-66.37 1.67-10.14 3.08-21.1 4.27-32.6 2.73 9.7 7.56 23.18 12.15 17.47 5.52-6.88-6.13-23.07-11-29.29 1.21-13.8 2.13-28.21 2.81-42.83 5.37 18.37 16.51 42.79 24.92 32.1 9.54-12.11-15.76-48.35-23.91-59.38.61-21.56.79-43 .72-62.94 8 28.08 32.64 81.58 44.68 64.72 12.69-17.75-33.41-81.95-45-97.56-.37-17.22-.79-32.32-1.18-44.16z" fill="#3c8f7c"/><path d="m3244.48 736c10.65 12.47 21.66-28.43 26.53-49.84.16 14.68.34 34.34.45 57.1-6.57 6.75-26.94 29.2-24.1 45.84 2.76 16.14 18.47-17.49 24.17-30.44v37.42c-8.24 7.15-28.12 26.55-18.63 39.72 7.68 10.67 14.66-10.46 18.6-26.57 0 14.78-.12 30-.27 45.36-9.95 8-37.62 32.6-27.52 53.06 9 18.16 21.4-20.19 27.41-42-.18 16.37-.44 32.8-.78 48.92-5.45 9.13-25.35 44.12-14.46 51.66 5.89 4.08 10.5-4.5 13.53-15.63-.47 15-1 29.49-1.71 43-7.25 4.8-37.24 25.69-33.75 40.72 2.18 9.38 25.69 0 25.69 0s-19.27 51.37 0 48.16c13.65-2.27 12.79-46.51 11.13-72.06.28-4.7.55-9.55.81-14.52 2.84 10.7 7.67 18.45 13.14 11.9 9.62-11.51-8.19-38.82-11.76-44.06.5-14.07.91-28.75 1.25-43.74 7.39 14.39 35.51 48.76 38.73 31.27 3.1-16.81-30.08-41.48-38.4-47.38.28-14.92.48-30 .63-45.06 5.34 11.37 23.56 47.8 37.15 45.9 15.76-2.21-12.12-35.91-37.12-48.48.14-14.73.23-29.35.27-43.58.06.37.11.74.17 1.14 1.5 9.65 18.29 46.1 25.78 34s-25.78-46-25.78-46a1.67 1.67 0 0 0 -.14.3c0-13.75 0-27.06 0-39.67 5.29 13.37 23.79 43 29.71 33.08 5.63-9.44-20.71-37.5-29.76-46.7-.08-18.25-.2-34.69-.33-48.4 6.28 13.75 25.31 51.59 31.12 37.88 6.2-14.62-24.19-42.71-31.23-49 0-1.35 0-2.65-.05-3.92h-15.1c-11.17 16.62-24.21 40.31-15.38 50.62z" fill="#327f6b"/><path d="m2157.41 698.66c-.72 1-1.79 2.37-3.37 4.28l-.06.08c.07.22 19.95 72.24 4.29 77.71-14.36 5-15.57-47.79-9.75-69.92a109.55 109.55 0 0 0 -8.39 15.48c-4 9.23-6.8 21.13-8.62 34.4 2.92 4.79 20.75 34.84 11.82 41-7.25 5-12-14.74-13.3-27.79-1.05 11.8-1.5 24.27-1.55 36.65 9.65 2.36 38.79 10.73 39.34 25.69.61 16.71-24.44 11.78-39.34-19.22.09 12.32.54 24.4 1.16 35.49 6.94 6.25 35.47 33.16 30.87 48.71-4.66 15.75-22.55-2.29-30.1-36.69 1.4 19.7 3.18 34.65 4 39.38.26 1.55.55 3.55.86 5.91.11.86.23 1.78.35 2.73s44.34 59.76 31.64 73.51c-9 9.75-22.48-30.16-29.56-54.22 2.45 25.54 4.61 58.86 2.55 69.14h-.16c1.57 23 2.64 64.92-10 67-17.55 2.92 0-43.89 0-43.89s-21.42 8.55-23.4 0c-3.32-14.31 26.68-34.46 31.52-37.61-.06-12.72-1.21-30.75-2.66-47.12-1.61 35.1-10.38 45.55-13.8 46.7-4.23 1.43-13-7.16-10-34.3 2.32-21.08 15.23-34.72 20.88-39.75-.39-3-.76-5.58-1.1-7.62-.75-4.53-2.41-18.42-3.78-36.89-3.43 28.87-11.55 52.49-18.87 37.86-7.14-14.26 11.5-41.55 18-50.41-.76-12.87-1.29-27.19-1.3-41.72-5.44 14.27-29.32 41.1-32.29 25.74-2.94-15.1 26.7-30.81 32.35-33.65.17-12.44.77-24.88 2-36.55-6.63 11.77-26.85 35.87-29.25 22.86-2.73-14.86 31.16-37.66 31.16-37.66l.05.06c1.82-11 4.37-21 7.86-28.93a110.2 110.2 0 0 1 7.92-14.82c-12.52 8.5-31.69 16.06-30.92 7.19.84-9.62 30.32-17.41 39.72-19.65.32-.46.54-.65.67-.65 3.37-4.14 6.92-8.06 10.54-11.73h4.1a166.79 166.79 0 0 0 -12.08 13.22z" fill="#327f6b"/><path d="m2170.69 722.24c-12.43-1.74-1.26-20.5 16.25-36.78h18.35c-9.29 16.94-23.29 38.36-34.6 36.78z" fill="#327f6b"/><path d="m2220.37 685.46h18.8c9.64 12 16.93 26.83 10.37 40.11-9.25 18.75-21.73-14.91-29.17-40.11z" fill="#327f6b"/><path d="m2208.87 685.46h3.13c-.8 5.56-1.66 11.73-2.57 18.42 7.53 14.85 46 93.2 27.65 110-20.26 18.59-27.47-76.58-27.47-76.58l-1.07-26.8c-3.07 23.12-6.45 51.3-9.12 80.4 7 5.74 35.77 31 23.78 47.67-11.15 15.48-21-27.32-24.19-43.19-1.71 19.25-3.08 38.81-3.82 57.47 7.36 3.42 38.4 18.86 29.89 32.34-8.25 13-25.38-15.92-30.16-24.57-.35 11.44-.43 22.47-.18 32.8 8 3.78 44 21.38 35.12 29.78-10 9.43-30.52-15.82-30.52-15.82s16.1 64.65-1.4 57.71-5.81-61.59-6.37-63l.3-1.76c-.34-8.49-.43-17.53-.31-26.94-3.25 8.32-9.52 22.19-13.3 16.22-4.45-7 9.13-21.35 13.48-25.66.33-12.83 1-26.2 1.92-39.72-6.32 16-19.52 39-26.22 28.2-7.52-12.13 20.73-43.49 28-51.2 1.69-19.86 3.76-39.54 5.89-57.72-8.88 23.25-37.83 72.43-47.18 55.65-9.74-17.49 40.44-72.25 50.57-83 1.44-11.46 2.88-21.85 4.15-30.7z" fill="#3c8f7c"/><path d="m2289.78 736c-10.65 12.47-21.65-28.43-26.52-49.84-.17 14.68-.35 34.34-.46 57.1 6.57 6.75 26.94 29.2 24.1 45.84-2.76 16.14-18.47-17.49-24.16-30.44 0 11.89-.06 24.44 0 37.42 8.24 7.15 28.13 26.55 18.64 39.72-7.69 10.67-14.66-10.46-18.61-26.57 0 14.78.13 30 .27 45.36 10 8 37.62 32.6 27.52 53.06-9 18.16-21.4-20.19-27.41-42 .19 16.37.44 32.8.78 48.92 5.46 9.13 25.35 44.12 14.46 51.66-5.89 4.08-10.5-4.5-13.53-15.63.47 15 1 29.49 1.71 43 7.26 4.8 37.24 25.69 33.75 40.72-2.18 9.38-25.69 0-25.69 0s19.27 51.37 0 48.16c-13.65-2.27-12.79-46.51-11.12-72.06-.29-4.7-.56-9.55-.81-14.52-2.85 10.7-7.68 18.45-13.15 11.9-9.61-11.51 8.19-38.82 11.77-44.06-.51-14.07-.92-28.75-1.26-43.74-7.39 14.39-35.5 48.76-38.73 31.27-3.1-16.81 30.08-41.48 38.4-47.38-.27-14.92-.48-30-.63-45.06-5.34 11.37-23.55 47.8-37.15 45.9-15.76-2.21 12.12-35.91 37.12-48.48-.14-14.73-.23-29.35-.27-43.58-.05.37-.1.74-.17 1.14-1.5 9.65-18.29 46.1-25.77 34s25.77-46 25.77-46a1.67 1.67 0 0 1 .14.3c0-13.75 0-27.06 0-39.67-5.29 13.37-23.79 43-29.71 33.08-5.63-9.44 20.71-37.5 29.76-46.7.08-18.25.2-34.69.33-48.4-6.27 13.75-25.3 51.59-31.12 37.88-6.2-14.62 24.19-42.71 31.23-49 0-1.35 0-2.65.05-3.92h15.1c11.16 16.62 24.2 40.31 15.37 50.62z" fill="#327f6b"/><path d="m2129.76 680.62h1280.1v14.48h-1280.1z" fill="#13375b"/><path d="m684.6 1308.64h-361.53a16 16 0 0 0 -16 16v216.36c0 6.22 4.11 11.26 9.17 11.26h155.13v44.4h-91.93a12.42 12.42 0 0 0 -12.44 12.45h271.68a12.42 12.42 0 0 0 -12.43-12.43h-91.93v-44.4h157.15c5.07 0 9.18-5 9.18-11.26v-216.34a16 16 0 0 0 -16.05-16.04z" fill="#213854"/><path d="m634.82 1596.68h-91.93v-52.5h-63v52.5h-91.89a12.43 12.43 0 0 0 -12.44 12.43h271.69a12.43 12.43 0 0 0 -12.43-12.43z" fill="#001333"/><path d="m709.21 1511.14v-186.46a16 16 0 0 0 -16-16h-361.57a16 16 0 0 0 -16.05 16v186.46z" fill="#001333"/><path d="m315.59 1511.14v29.86c0 6.22 4.11 11.26 9.18 11.26h375.23c5.06 0 9.17-5 9.17-11.26v-29.88z" fill="#001333"/><path d="m700 1503.05v-177.87a8.6 8.6 0 0 0 -8.75-8.44h-357.7a8.59 8.59 0 0 0 -8.74 8.44v177.87z" fill="#bae1f4"/><path d="m302.14 1706.89h681.73v34.2h-681.73z" fill="#fae0b2"/><path d="m900.55 1609.29h6.73v309.92h-6.73z" fill="#001333"/><path d="m977.13 1609.29h6.73v309.92h-6.73z" fill="#001333"/><path d="m302.14 1609.29h6.73v309.92h-6.73z" fill="#001333"/><path d="m398.13 1609.29h6.73v309.92h-6.73z" fill="#001333"/><path d="m302.14 1609.29h681.73v11.66h-681.73z" fill="#fae0b2"/><path d="m302.14 1609.29h102.71v11.66h-102.71z" fill="#f7cc7f"/><path d="m302.14 1706.89h102.71v34.2h-102.71z" fill="#f7cc7f"/><path d="m817.88 1492 109 .82c8.33.06 14 5.92 12.74 13.08l-41 227.54c-1.29 7.16-9.09 12.92-17.42 12.86l-109-.82c-8.33-.06-14-5.92-12.74-13.08l41-227.53c1.3-7.16 9.1-12.87 17.42-12.87z" fill="#b75742"/><path d="m698.8 1730.55h80.42l42.71-227.16c1.23-6.28 9-11.38 17.3-11.38h109c8.33 0 14.09 5.1 12.86 11.38l-46.29 245.54c-1.23 6.28-9 11.38-17.3 11.38h-198.7c-10.89 0-19.71-6.66-19.71-14.88s8.82-14.88 19.71-14.88z" fill="#f47458"/><path d="m808.12 1760.31h11.4v140.38h-11.4z" fill="#001333" transform="matrix(-1 0 0 -1 1627.64 3660.99)"/><path d="m871.43 1908.12h-113.27a9.45 9.45 0 0 0 -9.45 9.44 1.65 1.65 0 0 0 1.66 1.65h128.85a1.65 1.65 0 0 0 1.66-1.65 9.45 9.45 0 0 0 -9.45-9.44z" fill="#001333"/><path d="m820.41 1900.68h-13.88a7.44 7.44 0 0 0 -7.43 7.44 7.43 7.43 0 0 0 7.43 7.43h13.88a7.43 7.43 0 0 0 7.43-7.43 7.44 7.44 0 0 0 -7.43-7.44z" fill="#001333"/><path d="m2225.04 1382.3h212.87v167.22h-212.87z" fill="#ed9b8e"/><path d="m2225.04 1382.29h75.31v167.22h-75.31z" fill="#f47458"/><path d="m2347.54 1376.57h45.47v22.26h-45.47z" fill="#efefb4" transform="matrix(.99999701 -.00244346 .00244346 .99999701 -3.33 5.71)"/><path d="m2328.52 1409.76h153.99v135.59h-153.99z" fill="#f7cc7f" transform="matrix(.99999701 -.00244346 .00244346 .99999701 -3.55 5.8)"/><path d="m2324.95 1415.59h54.48v135.59h-54.48z" fill="#f47458" opacity=".5"/><path d="m2414.57 1409.69h32.89v18.05h-32.89z" fill="#efefb4" transform="matrix(.99999701 -.00244346 .00244346 .99999701 -3.4 5.85)"/><path d="m3377.75 1308.64h-361.54a16 16 0 0 0 -16 16v216.36c0 6.22 4.11 11.26 9.18 11.26h155.16v44.4h-91.93a12.43 12.43 0 0 0 -12.43 12.43h271.68a12.43 12.43 0 0 0 -12.44-12.43h-91.93v-44.4h157.15c5.07 0 9.18-5 9.18-11.26v-216.32a16 16 0 0 0 -16.08-16.04z" fill="#213854"/><path d="m3328 1596.68h-92v-52.5h-63v52.5h-91.93a12.43 12.43 0 0 0 -12.44 12.43h271.68a12.43 12.43 0 0 0 -12.31-12.43z" fill="#001333"/><path d="m3402.35 1511.14v-186.46a16 16 0 0 0 -16-16h-361.57a16 16 0 0 0 -16 16v186.46z" fill="#001333"/><path d="m3008.74 1511.14v29.86c0 6.22 4.1 11.26 9.17 11.26h375.27c5.07 0 9.17-5 9.17-11.26v-29.88z" fill="#001333"/><path d="m3393.14 1503.05v-177.87a8.6 8.6 0 0 0 -8.75-8.44h-357.69a8.6 8.6 0 0 0 -8.75 8.44v177.87z" fill="#bae1f4"/><path d="m2995.28 1706.89h681.73v34.2h-681.73z" fill="#fae0b2"/><path d="m3593.69 1609.29h6.73v309.92h-6.73z" fill="#001333"/><path d="m3670.27 1609.29h6.73v309.92h-6.73z" fill="#001333"/><path d="m2995.28 1609.29h6.73v309.92h-6.73z" fill="#001333"/><path d="m3091.27 1609.29h6.73v309.92h-6.73z" fill="#001333"/><path d="m2995.28 1609.29h681.73v11.66h-681.73z" fill="#fae0b2"/><path d="m2995.28 1609.29h102.71v11.66h-102.71z" fill="#f7cc7f"/><path d="m2995.28 1706.89h102.71v34.2h-102.71z" fill="#f7cc7f"/><path d="m3511 1492 109 .82c8.32.06 14 5.92 12.74 13.08l-41 227.54c-1.29 7.16-9.09 12.92-17.41 12.86l-109-.82c-8.32-.06-14-5.92-12.73-13.08l41-227.53c1.3-7.16 9.1-12.87 17.4-12.87z" fill="#b75742"/><path d="m3392 1730.55h80.41l42.72-227.16c1.22-6.28 9-11.38 17.29-11.38h109c8.33 0 14.09 5.1 12.87 11.38l-46.29 245.54c-1.23 6.28-9 11.38-17.3 11.38h-198.7c-10.9 0-19.72-6.66-19.72-14.88s8.77-14.88 19.72-14.88z" fill="#f47458"/><path d="m3501.26 1760.31h11.4v140.38h-11.4z" fill="#001333" transform="matrix(-1 0 0 -1 7013.92 3660.99)"/><path d="m3564.57 1908.12h-113.27a9.44 9.44 0 0 0 -9.44 9.44 1.65 1.65 0 0 0 1.65 1.65h128.86a1.65 1.65 0 0 0 1.65-1.65 9.45 9.45 0 0 0 -9.45-9.44z" fill="#001333"/><path d="m3513.55 1900.68h-13.88a7.44 7.44 0 0 0 -7.43 7.44 7.43 7.43 0 0 0 7.43 7.43h13.88a7.43 7.43 0 0 0 7.43-7.43 7.44 7.44 0 0 0 -7.43-7.44z" fill="#001333"/><path d="m1430.97 1713.01h12.69v185.58h-12.69z" fill="#13375b"/><path d="m1373.19 1906.86h126.09a10.51 10.51 0 0 1 10.51 10.52 1.83 1.83 0 0 1 -1.84 1.83h-143.44a1.84 1.84 0 0 1 -1.84-1.83 10.52 10.52 0 0 1 10.52-10.52z" fill="#13375b"/><path d="m1430 1898.59h15.45a8.28 8.28 0 0 1 8.28 8.27 8.28 8.28 0 0 1 -8.28 8.27h-15.45a8.27 8.27 0 0 1 -8.28-8.27 8.27 8.27 0 0 1 8.28-8.27z" fill="#13375b"/><path d="m1519 1691.64-8.67-36.11a58.61 58.61 0 0 0 -54.4-44.69l-109.88-4.44-3.39-11.19 113.72 4.6a69.67 69.67 0 0 1 64.68 53.14l9.22 38.38c-3.11.13-6.92.23-11.28.31z" fill="#355389"/><path d="m1371.62 1672.41s151 2.58 166.71 0 22.55 17.15 17.85 27.48-17.62 14.33-36.64 15.27-177.36 5.41-181.83 1.18c-3.64-3.46-51.64-167.55-69.11-227.56a22.64 22.64 0 0 1 15.38-28 22.65 22.65 0 0 1 28.02 15.12z" fill="#f7cc7f"/><path d="m2597.84 1713.01h12.69v185.58h-12.69z" fill="#13375b" transform="matrix(-1 0 0 -1 5208.37 3611.59)"/><path d="m2668.32 1906.86h-126.09a10.52 10.52 0 0 0 -10.52 10.52 1.84 1.84 0 0 0 1.84 1.83h143.45a1.83 1.83 0 0 0 1.83-1.83 10.51 10.51 0 0 0 -10.51-10.52z" fill="#13375b"/><path d="m2611.52 1898.59h-15.44a8.28 8.28 0 0 0 -8.28 8.27 8.28 8.28 0 0 0 8.28 8.27h15.44a8.28 8.28 0 0 0 8.28-8.27 8.28 8.28 0 0 0 -8.28-8.27z" fill="#13375b"/><path d="m2522.49 1691.64 8.68-36.11a58.59 58.59 0 0 1 54.39-44.69l109.89-4.44 3.39-11.19-113.72 4.6a69.69 69.69 0 0 0 -64.69 53.14l-9.22 38.38c3.13.13 6.93.23 11.28.31z" fill="#355389"/><path d="m2669.89 1672.41s-151 2.58-166.71 0-22.56 17.15-17.86 27.48 17.62 14.33 36.65 15.27 177.36 5.41 181.82 1.18c3.65-3.46 51.65-167.55 69.11-227.56a22.64 22.64 0 0 0 -15.38-28 22.66 22.66 0 0 0 -28.06 15.17z" fill="#f7cc7f"/><rect fill="#13375b" height="21.12" rx="2.6" transform="matrix(-1 0 0 -1 4056.75 3105.4)" width="938.59" x="1559.08" y="1542.14"/><path d="m2450.83 1919.21h15.03l-32.38-355.95h-15.03z" fill="#13375b"/><path d="m2323.13 1919.21h-15.03l32.38-355.95h15.03z" fill="#13375b"/><path d="m1725.16 1919.21h15.03l-32.38-355.95h-15.02z" fill="#13375b"/><path d="m1597.47 1919.21h-15.03l32.38-355.95h15.03z" fill="#13375b"/><path d="m1071.04 1615.29h137.16v120.78h-137.16z" fill="#f9d293" transform="matrix(.99999743 -.00226893 .00226893 .99999743 -3.71 2.53)"/><path d="m1071.04 1615.38h48.53v120.78h-48.53z" fill="#e5644e" opacity=".5" transform="matrix(.99999743 -.00226893 .00226893 .99999743 -3.71 2.43)"/><path d="m1147.71 1615.24h29.3v16.08h-29.3z" fill="#efefb4" transform="matrix(.99999743 -.00226893 .00226893 .99999743 -3.57 2.56)"/><path d="m1040.52 1732.33h181.14v186.88h-181.14z" fill="#f7cc7f"/><path d="m1040.52 1732.33h45v186.88h-45z" fill="#ed9b8e" opacity=".6"/><path d="m1147.65 1732.33h18.06v54.94h-18.06z" fill="#efefb4"/><path d="m1564.93 1372.72c-13.54 7.52-42.25 23.16-54.26 26.27-1.92-5.23-15.65-32.92-17.34-37.86-8.74 6.27-18.9 7.66-27.93 13.38 6.61 16.4 29.27 56.76 33.84 58.81 10.84 4.85 45.71-21.19 65.69-36.6z" fill="#f48c7f"/><path d="m1407 1334.74c20.48-13.79 31.92-48.44 22.55-71.12 9.73-9.83 14.85-7.21 14.69-21-.32-27.17 38.88-38.57 12-49.17-27.35-9.16-52.86 5.13-67.85 20.64a68.39 68.39 0 0 1 -23.94 16.36c-18.11 7.16-29.86 28.34-23.79 52.72-14.53 5.9-29.15 26.43-22.47 45.84 1.6 4.66 5.31 10.34 5.28 11.62-.06-1.58-17.58 37.63 26.92 57.34 45.38 20.12 60.81-23.97 56.61-63.23z" fill="#13375b"/><path d="m1376.84 1369 5.09 48.66s7.67 20.66 15.75 16.27 25.89-9.85 34.29-25.51 13.59-.37 13-25.51 10.71-22.22-1.68-33.51 1.37-17.91-19.72-14.06-46.73 33.66-46.73 33.66z" fill="#9bc1f9"/><path d="m1423.24 1856.56s2.22 28.32.42 37.53c-1 4.92-6.35 15.07-3.88 19.71s5.29 5.8 5.29 5.8l64 1c3.49.06 1.18-2.2-1.62-4.27-4.6-3.4-8.31-5.65-23-12.8-1-.47-4.45-2.7-5.71-3.47a44.36 44.36 0 0 1 -9.15-8.13c-4.59-5.14-5-30.08-5-30.08z" fill="#f7a491"/><path d="m1458.69 1900.09c-16.91 4.36-29.42 1.39-36.41-1.44-1.81 5.14-4.2 11.59-2.93 15.31 1.55 4.55 3.76 5.58 5.72 5.64 15.45.4 56.6 1 68.38 1.11a1.94 1.94 0 0 0 1.5-3.18c-2.95-3.53-34.95-16.67-36.26-17.44z" fill="#5184ce"/><path d="m1314.87 1845.07s-3.6 25.12-9.79 33.22c-2.08 2.72-5.88 6.17-8.37 11.08-3.88 7.65-1.74 19.05 1.12 25.32 1.47 3.22-.1 3.21 3.25 4.25 9.9 3.08 20.44-2.1 24.66-11.64a59.22 59.22 0 0 0 4.84-21.4c1.06-22.81 8.11-34.4 8.11-34.4z" fill="#f7a491"/><path d="m1473.23 1480.11s8.06 46 2.77 76.13-30.68 309.57-30.68 309.57l-28.21 1.6s-5.91-116.72-4.85-133 9.43-43.4 9.43-43.4l-2.81-94.24 35.6-123.81z" fill="#13375b"/><path d="m1327.66 1902.28c-15.36 2.82-25.59-6.23-30.91-13-3.91 7.66-5.81 19.11-2.94 25.4 2.53 5.55 9.93 5.39 15.75 5.61 6.16.23 10.92-3.21 14-8.6a51.29 51.29 0 0 0 4.1-9.41z" fill="#5184ce"/><path d="m1468.08 1394s-32.22-33-40.51-47.38 5.65-5 19.88-8.78c5.39-1.44 4-33 14.22-22.75 16.71 16.84 37.73 46.29 37.73 46.29z" fill="#89a6e5"/><path d="m1478.38 1375.62c-2.45-16-13.45-55.85-16.71-60.49-3.6-5.12-39.4-14.5-39.4-14.5s-28.91-5.7-42.1 5.32c-6.78 5.67-5.84 34.32-3.33 63z" fill="#9bc1f9"/><path d="m1431.11 1260.29s-.15.86-.43 2.33c-1.31 7.06-5 31.58-8.41 38-4.12 7.78 12.75 31.47 30.31 28.44 5.22-.9-4.42-22.78-4-25.1.89-4.44 2.09-10.5 3.32-16.71.7-3.5 1.4-7 2.06-10.39 1.88-9.48 3.41-17.24 3.41-17.24z" fill="#f7a491"/><path d="m1430.68 1262.62c.28-1.47.43-2.33.43-2.33l26.3-.66s-1.53 7.76-3.41 17.24c-.66 3.32-1.35 6.85-2 10.34-4.06-.6-8.3-2.57-12.55-6.29a33 33 0 0 1 -9.51-14.12c.27-1.65.54-3.08.74-4.18z" fill="#f47458"/><path d="m1446.33 1241.89c-.74 5.88-3.53 10.36-6.24 10s-4.3-5.38-3.56-11.25 3.54-10.35 6.24-10 4.3 5.36 3.56 11.25z" fill="#f7a491"/><path d="m1408.21 1215.92c-8.3 21.84 19.21 41.93 42.55 45.48 15.17 2.3 22.36 1.62 26.84-14.11 7.27-25.51-1.45-42.71-15.64-51.17-18.31-10.91-46.9 1.78-53.75 19.8z" fill="#13375b"/><path d="m1444.51 1205.09a31 31 0 0 0 -17.51 11.91c-6.79 9.7-8.26 43.33 13.19 57.19s35.08-9.75 35.74-28.36-2.93-43.54-31.42-40.74z" fill="#f7a491"/><path d="m1452.32 1258.12 16.23 1.8s-1.07 6.23-8.23 5.66c-8.73-.71-8-7.46-8-7.46z" fill="#fff"/><path d="m1415.7 1241.13c-1.22-17.63 1.75-30.5 14.76-35.26s24.25-9.68 33.76 3l2.3 1.71s-21.36 3.11-23.89 13.92-6 23.9-8.73 31.33c-1.94 5.34-4.65 13.84-4.65 13.84l-3.2-4.82s-9.14-6.09-10.35-23.72z" fill="#13375b"/><path d="m1439.43 1243.78c1.11 5-.78 9.57-4.22 10.29s-7.12-2.73-8.23-7.69.79-9.57 4.22-10.29 7.12 2.73 8.23 7.69z" fill="#f7a491"/><path d="m1391.4 1300.83c-.36 1.22-.58 1.91-.58 1.91l2.24-2.28z" fill="#355389"/><path d="m1478.86 1379.86c-.59-11.69-14.12-59.57-17.18-65-1.18-2.12-2-2.55-4.53-2.74 6.26 19.07 10.91 47.48 10.91 47.48-11.48 2.18-27.83 0-27.83 0-13.56-31.33-18.28-45.47-25.55-60a5 5 0 0 0 -1.54-.7 8.1 8.1 0 0 0 -3.63-.21l-3.08.51s30.84 65.55 28.2 76.46c-2.27 9.39-26.21 36.82-52.7 42 .65 6.25 1.07 11.07 1.07 13.72 0 16.25-9.06 68.84-9.06 68.84-4.71 10-9.11 21.34-11.1 31.83-5.29 27.83 3.88 113.35-6.29 149.81-5.51 19.74-26.38 50.23-29.56 75.74s-15.62 92.32-15.62 92.32l28.2 5.62 65.53-166.87 51.4-150.82 6.32-37.27c5.53-2.09 9.81-5 12.1-9 0-.04 4.53-100.04 3.94-111.72z" fill="#355389"/><path d="m1560.49 1362 2.39.36a142.13 142.13 0 0 1 9.07-25.45c15.75-33.57 11.88-38.81 32.8-58.11s29.13-64.68 29.13-64.68 16.32-50.46 11.31-74.53-2.19-47-19-74.15c0 0-8.8 31.63-15.91 45.54s-13.86 27.19-15.58 62.89.09 39-.47 48.21-7.68 47.46-6.69 54.1-19 48.55-22.87 67.28c-1.2 5.61-2.67 11.99-4.18 18.54z" fill="#215e4b"/><path d="m1569.5 1355.38a27.9 27.9 0 0 1 16.6-12.51c21.17-5.84 34.52-3.62 47-23.46s16.84-48.89 20.94-54.42c0 0-8.28-2.71-19.09 11.23s-18.3 24.39-24.55 32.5-13 4.55-20 10.36c-5.9 4.88-12.55 17.29-15.33 23.67a26.21 26.21 0 0 1 -3.45 5.81c-1.27 1.62-2.78 3.6-3.72 5a8.6 8.6 0 0 0 -.7 1.45z" fill="#3c8f7c"/><path d="m1538.88 1352a27.28 27.28 0 0 0 -10.52-17.36c-17.08-13-30-15.77-34.07-38.27s2.43-50.42.71-56.92c0 0 8.49.55 13.25 17.1s7.76 28.73 10.49 38.35 10.1 8.82 14.38 16.64c3.58 6.55 5.12 20.21 5.33 27a25.71 25.71 0 0 0 1 6.52c.56 1.92 1.22 4.26 1.55 5.9a7.87 7.87 0 0 1 .11 1.56z" fill="#3c8f7c"/><path d="m1511.91 1212.57c-5.76 24.76 10.49 25.23 8.72 41.28s14.95 46.22 21.69 66.89c3.5 10.75 3 26.3 1.78 38.75l7.76 1.18c1.75-31.73-7.64-55.42-12.57-74-6.36-23.94-6.27-34.41 4.7-50.73s5.66-63.57 20.55-82 13.65-51.14 12.79-63.76 3.39-20.46 7.78-33 2.07-32 2.07-32c-2.86 15.88-18.31 35.85-29.22 48.51s-33.29 48.22-34 65.77-1.84 18.7-1.84 18.7c-9.65 22.2-4.45 29.64-10.21 54.41z" fill="#215e4b"/><path d="m1545.13 1228.25c-4 24 13.52 36 11.16 49.31s-.29 28.25 1.66 39.54c1.23 7.14-2.89 25.88-6 43.58l5.24.8c3.3-12.85 7.6-31.47 8.39-39.89 1.08-11.49 7.67-19.81 11.34-39.57s10.61-37 5.63-63.41 1.19-56.09-31.39-89.34c0 0-11 28.31-8.5 45s6.46 29.94 2.47 53.98z" fill="#3c8f7c"/><path d="m1545.13 1228.25c-4 24 13.52 36 11.16 49.31s-.29 28.25 1.66 39.54c1.23 7.14-2.89 25.88-6 43.58l2.17.33c.86-3.66 1.5-6 1.5-6l7.9-44.75s3.17-35.48 3.61-64.72-16-116.32-16-116.32-11 28.31-8.5 45 6.49 29.99 2.5 54.03z" fill="#327f6b"/><path d="m1559.09 1342.63-3.51-.54-46.9-7.12a5.41 5.41 0 0 0 -6.19 5.8l6.61 80.28a5.4 5.4 0 0 0 4.57 4.9l28.52 4.33 3.51.54 28.53 4.33a5.39 5.39 0 0 0 5.81-3.33l30.14-74.7a5.4 5.4 0 0 0 -4.19-7.37z" fill="#f47458"/><path d="m1550.15 1394.68c1-2.88-13-5.15-13.75-8s17.64-3.2 18.29-5.75c1.2-4.71-20.16-.92-19.75-3.13s22.25-7.19 19.87-11-22.1 7.54-22.7 5 19.28-8.86 18.91-14.48c-.2-3-32.64 15.09-36.41 13.47s4-15.76 1-17.84-11.52 28.72-13.58 29.75-45.89 26.25-61.5 30.29c-1.91-5.23-15.64-32.92-17.33-37.87-8.74 6.27-18.91 7.67-27.93 13.39 6.61 16.4 29.27 56.76 33.84 58.81 13.93 6.23 67.54-38.56 78.25-46.23s16.87-5.22 24.13-7.66 17.67 4.13 18.66 1.25z" fill="#f7a491"/><path d="m1391.07 1392.88s-19-42.05-21.86-58.38 11.13-36.8 25.79-35.48 36.66 73.93 36.66 73.93z" fill="#89a6e5"/><path d="m3517.31 1485.42a5.1 5.1 0 0 1 -.94-.74c-9.16-9.13-86.06-85.88-88.48-90.18-2.18-3.88-25-84.3-25-84.3l39.72 2.18 18.47 74.52c2.37 3.27 48.34 62.34 48.34 62.34s8.13 11.06 13.33 17.29c1.93.68 3.77 1.3 5.3 1.77a47.85 47.85 0 0 0 9.31 1.23c3.44.16 10.26 1.36 11.78 2.06 1.76.81 5.34 2.6 7.47 3.71s4.69 2.32 5.75 3a12.18 12.18 0 0 0 3.59 1 2.06 2.06 0 0 1 .77 3.76c-1.49.94-4 .57-5.55.33-4.38-.67-10.53-4.15-10.6-3.48s7.81 9.69 8.65 10.78 9.94 11.62 11 14.25-.36 3.73-1.87 3.1c-1.3-.54-15-14.16-15-14.16s-1.75-1.74-1.83-.43 12.29 13.71 13.79 15.9 1.48 4.36-1 4.17c-3-.23-15.43-14.26-15.43-14.26s-1.59-1.74-2-.83 10.25 11.27 10.75 12.68-.36 3.2-2.61 2.56c-2.64-.75-13.6-13.38-13.6-13.38s-1.1-.72-1.15 0 8.44 10.24 8.53 12a1.35 1.35 0 0 1 -1.22 1.54c-2.73.79-9.71-9.57-14.34-13.31s-8.06-10.11-14.06-14z" fill="#f8a492"/><path d="m3416.36 1376 47.14-14.15s-7.22-40.72-13.64-56.87c-17.93-45.1-51.73-35.08-56-25.68-9.52 20.97 22.5 96.7 22.5 96.7z" fill="#89a6e5"/><path d="m3441 1318.9c1 6.84 13.41 195.38 13.41 195.38-85.05 41.58-126.45 4.79-126.45 4.79s2.78-130.56-.55-148.33c-2.21-11.76-5-89.88 2.56-92.07 9.66-2.81 20.74-5.79 32.81-7.06 10.31-1.08 50.34-1.71 57.5.72-.03 0 16.58 17.81 20.72 46.57z" fill="#9bc1f9"/><path d="m3399.66 1387.67h221.06v149.6h-221.06z" fill="#f7cc7f" transform="matrix(.99392259 .11008126 -.11008126 .99392259 182.29 -377.45)"/><path d="m3400.09 1379.81h78.21v149.6h-78.21z" fill="#ed9b8e" opacity=".6" transform="matrix(.99392259 .11008126 -.11008126 .99392259 180.99 -369.68)"/><path d="m3530.31 1392.12h47.22v19.91h-47.22z" fill="#efefb4" transform="matrix(.99392259 .11008126 -.11008126 .99392259 175.91 -382.64)"/><path d="m3277.07 1858.57s-8.67 8.49-8.86 11.6-.77 36.46 2.77 39.58 13.92 5.32 10.58 8.82c-2.52 2.65-21.94 2.08-34.81 1.37-3.76-.21-8.47-30.29-10-34.71-2.16-6.42-7.42-20.88-5.45-25.36.95-2.18 5.53-6.66 12-10.84 6.79-4.4 13.28-14.2 13.28-14.2z" fill="#f48c7f"/><path d="m3366.82 1878.33s-7.76 22-7.77 22c-.57 3.48-2.84 12.09-2.84 15.25 0 11.89 53.44-10.09 41.46-15.36-1.08-.48-4.48-4.29-4.84-8.34-.55-6.23 4.5-14.05 4.5-14.05z" fill="#f7a491"/><path d="m3450.66 1469.08s3.89 39.4 3.89 40c0 63.73 12.6 188.22 10.2 200.2-5.84 29.23-68.71 178.32-68.71 178.32l-34-4.08 44.28-178.5-16.3-71.85-23.05-142z" fill="#13375b"/><path d="m3243.75 1848.81s20 56.42 27.78 59.14c2.08.72 12 2.56 13.92 7 .56 1.33 0 5.78 0 5.78h-41.63s-5.26-24.86-7.34-35.78c0 0-11-26.68-9.79-29.11s17.06-7.03 17.06-7.03z" fill="#5184ce"/><path d="m3353.17 1919.53 6.12-19.4s12.85 5.46 19.28 4.55 19-4.55 19-4.55c25.66 8.48 46.67 12.59 42.85 19.4h-87.22z" fill="#5184ce"/><path d="m3374.24 1231.41-6.11 40.38s22.3 48.08 35.61 43.91c11.17-3.5 4.3-46 4.3-46s-6.09-22.84-4.27-34.28-29.53-4.01-29.53-4.01z" fill="#f7a491"/><path d="m3403.77 1235.38c1.83-11.43-29.53-4-29.53-4l-.51 3.35a18.71 18.71 0 0 0 3.4 5.63 41.21 41.21 0 0 0 27.42 12.45c-.94-6.13-1.55-12.74-.78-17.43z" fill="#f47458"/><path d="m3369.09 1174.29c-.88-.32-7.1 46 4.7 58.73s34.79 16.91 43 6.88c9.12-11.1 8.66-60.88-9.69-74s-38.01 8.39-38.01 8.39z" fill="#f7a491"/><path d="m3400.16 1141.14a50.93 50.93 0 0 0 -26.74 15.31c-6.44.76-15.19 4.33-24.23 19.35-11.11 18.46-2.91 38.91 10 49s12.75 21.63 12.75 21.63l2.05-6a33.52 33.52 0 0 0 1.62-14.12 27.54 27.54 0 0 0 -2.09-8.49c-3.11-6.7 6.68-11.16 9.43-16.73 2.11-4.3 2.22-14.12 5.55-21.22l4-5.42s9.18-7.16 18.16-5.14 7.7-31.89-10.5-28.17z" fill="#13375b"/><path d="m3382.37 1209.28c.1 5.65-2.46 10.27-5.71 10.33s-6-4.48-6.06-10.13 2.47-10.28 5.72-10.33 5.96 4.48 6.05 10.13z" fill="#f7a491"/><path d="m3401.54 1222.33 17.79-.92s-.06 6.8-7.87 7.43c-9.53.77-9.92-6.51-9.92-6.51z" fill="#fff"/><path d="m3441.06 1318.9c-4.15-28.76-20.9-46.57-20.9-46.57a21.41 21.41 0 0 0 -3.82-.73c7.08 9.13 16.65 32.61 18.89 39.64 2.54 8 5.67 50.75 5.67 50.75-8.17 4.63-46.24 4.09-46.24 4.09s-4.46-38.13-9.91-55.88-22.59-38.59-22.59-38.59c-2.51.26-5 .6-7.4 1 5.27 6.53 21.93 28.23 25.27 45.9 4 21.07 22.16 93.33 0 100.42-11 3.51-32.74 3.14-51.91 1 .07 27.39-.38 59.51-.72 79.59l-14.67 195.48-66.44 150.2s9.35 21.85 23.13 24.92l105.74-154.21 65-195.13c4.68-1.91 9.5-4 14.47-6.46-.05-.04-12.58-188.58-13.57-195.42z" fill="#355389"/><path d="m3440.67 1492.27a4.87 4.87 0 0 1 -.94-.74c-9.16-9.14-86.06-85.88-88.48-90.18-2.19-3.88-25-84.3-25-84.3l39.72 2.17 18.47 74.53c2.37 3.27 48.34 62.34 48.34 62.34s8.14 11.06 13.34 17.28c1.92.68 3.76 1.3 5.29 1.78a47.94 47.94 0 0 0 9.32 1.23c3.44.16 10.26 1.36 11.77 2 1.76.82 5.34 2.61 7.47 3.72s4.69 2.32 5.76 3a12.3 12.3 0 0 0 3.59 1 2.05 2.05 0 0 1 .76 3.75c-1.49.94-4 .58-5.54.34-4.39-.67-10.54-4.15-10.61-3.48s7.82 9.69 8.65 10.78 9.94 11.62 11 14.24-.35 3.74-1.87 3.11c-1.3-.54-15-14.17-15-14.17s-1.74-1.73-1.83-.42 12.29 13.71 13.79 15.9 1.48 4.35-1 4.17c-3-.23-15.43-14.27-15.43-14.27s-1.59-1.73-2-.83 10.24 11.27 10.75 12.68-.37 3.21-2.61 2.57c-2.65-.75-13.61-13.38-13.61-13.38s-1.1-.72-1.15 0 8.44 10.24 8.53 12a1.34 1.34 0 0 1 -1.22 1.53c-2.72.8-9.71-9.56-14.34-13.31s-8.06-10.11-14.06-14z" fill="#f8a492"/><path d="m3340.08 1382.25 47.13-14.16s-7.21-40.71-13.63-56.87c-17.93-45.1-51.74-35.07-56-25.68-9.53 21.01 22.5 96.71 22.5 96.71z" fill="#89a6e5"/><path d="m2291 1864.26a261.28 261.28 0 0 1 -32-41.81c-20.6-33.22-29.88-65.66-26.86-93.81 2.12-19.67 11.95-46.42 23.33-77.4 13.6-37 29-78.94 34.6-118.24 6.26-44.06-1.17-76.4-22.71-98.88-20.39-21.29-42.53-32.09-65.79-32.09-39.47 0-69.48 30.88-69.78 31.19l-10.46-10c1.39-1.46 34.66-35.65 80.23-35.66 27.36 0 53 12.3 76.25 36.55 24.81 25.9 33.51 62.19 26.58 110.93-5.8 40.83-21.49 83.53-35.34 121.2-11.05 30.08-20.6 56.06-22.52 74-6.52 60.66 54.2 123.3 54.81 123.93z" fill="#96d9c9"/><path d="m2332.09 1886.29-6.14 6.15a12.08 12.08 0 0 1 -17.07 0l-37.62-37.61a12.08 12.08 0 0 1 0-17.07l6.15-6.15a12.08 12.08 0 0 1 17.07 0l37.61 37.61a12.08 12.08 0 0 1 0 17.07z" fill="#f7cc7f"/><path d="m1941.22 1572.17s2.85 19.71 2.91 25.47l21.35-8.17c-.48-13.28-2-110.43-3.58-114.51s-46-76.54-46-76.54l-28.21 30 37.35 46c.74 4 16.18 97.75 16.18 97.75z" fill="#f8a492"/><path d="m2029.77 1850.59s-2.69 29.31-.92 38.87a37 37 0 0 0 1.36 4.69c1.82 5.36-3.16 21.73-3.16 21.73l-66.81.24c-3.63 0-1.2-2.29 1.76-4.41 4.84-3.46 8.75-5.74 24.18-13 1-.47 4.67-2.73 6-3.52a46.49 46.49 0 0 0 9.66-8.3c4.86-5.27 5.6-31.11 5.6-31.11z" fill="#f7a491"/><path d="m1992.19 1895.23c17.6 4.74 30.7 1.83 38-1 1.82 5.35 5.16 25.64 3.12 25.64-16.75 0-30.85 1-78.85.22-1.72 0-1.51-5.93-.39-7.24 3.14-3.61 36.79-16.85 38.12-17.62z" fill="#355389"/><path d="m2113.55 1502.59s-1 41.84-12.94 68.64c-11.68 26.1-67.58 90.47-82.44 128 4.59 21.19 17.22 51 16.3 74.47-1 26.62.52 97 .52 97l-30 1-39.36-181.7 63.09-165.79 23.13-77.93z" fill="#13375b"/><path d="m2126.52 1875.2s1.34 23.81 1.35 23.86c.49 3 2.44 10.49 2.44 13.24 0 10.32-45.8-8.77-35.54-13.34.93-.42 7.24-5.88 7.55-9.4.47-5.41.22-14 .22-14z" fill="#f7a491"/><path d="m2094.88 1898.86s10.76 3.16 16.26 4 12.77-5.86 16.67-4.06c4.29 2 4.46 21.43 4.46 21.43s-57.31 1.85-74.28-.67c-6.67-1.05 14.91-13.34 36.89-20.7z" fill="#5184ce"/><path d="m1866.81 1405.06c-6.23-24.27 10.73-47.11 10.73-47.11s11.29-16.07 16.67-19.61c7.91-5.22 20.72-17 50.58 10.05 21.36 19.36 113.63 72.75 161.25 128.94l-84 60.8s-73.59-54.81-83.14-61.3c-21.34-14.48-68.03-55.95-72.09-71.77z" fill="#9bc1f9"/><path d="m1839.09 1348.72 37.29 10.66s8 27.43-.74 37.33c-7.35 8.32-17.83-4.42-17.83-4.42s-16.34-13.61-26.83-16.46 8.11-27.11 8.11-27.11z" fill="#f7a491"/><path d="m1847.66 1359.5a70.06 70.06 0 0 1 -3 23.15c-4.56-2.94-9.55-5.71-13.65-6.82-4.84-1.32-3.48-7.19-.62-13.14 4.26-7.55 8.73-14 8.73-14l7.17 2c.98 2.31 1.28 6.78 1.37 8.81z" fill="#f47458"/><path d="m1810.39 1302.09c.42-.79 33.83 27.73 33.48 44.15s-13.95 33.91-26 32.1c-13.39-2-44.26-37.18-39.53-58s32.05-18.25 32.05-18.25z" fill="#f7a491"/><path d="m1778.78 1297.09c10.54-8.79 29.41-14.31 45.19-9.51 19.41 5.89 27.84 28.39 25 43.62s5.09 21.8 5.09 21.8l-10.49-3s-7.08-7.94-9.08-14.61-11.71-3.58-17.14-5.75c-4.18-1.67-10.41-8.49-17.21-11.35 0 0-15.55 1-22.24 6.63-11.39 9.57-14.21-15.24.88-27.83z" fill="#13375b"/><path d="m1826 1333.87c.87 5.07 4 8.75 7.08 8.22s4.8-5 3.93-10.12-4-8.74-7.08-8.22-4.78 5.06-3.93 10.12z" fill="#f7a491"/><path d="m1803.42 1365.91 12.28-13.41s4.88 5.06-.35 11.12c-6.35 7.38-11.93 2.29-11.93 2.29z" fill="#fff"/><path d="m1942.18 1579.13 23 9.82c2.09 3.54 3.22 8 6.31 12.71l-21.49 34.55s-2.72-4.84-2.87-4.53l-1.27 5.57a11.94 11.94 0 0 0 -5.16-.08c-2.27.5-2.67-6.13-2.53-8.29.44-6.52 5-23.35 5.68-26.16z" fill="#f7a491"/><path d="m2105.82 1476.93c-25.68-30.31-64.34-59.79-97.87-83.57-10.93 11-42.75 42.41-49.39 40.93-8-1.79-46.66-27.17-65.16-46.21-12.8-13.17-12.56-28.79-11.19-37.15-2.8 3.65-4.88 6.61-4.88 6.61s-.48.64-1.23 1.8c-.18 4.35 0 9.68 1.57 13.1 3 6.62 10.73 24.13 29.68 37.72s42 29.49 42 29.49-18.45 21.63-22.74 22.52c0 0-45.09-37.67-59.55-56 6.29 16.88 50.44 58.18 71.17 72.24 9.55 6.48 83.6 59.36 83.6 59.36s43 174.78 42.39 170.34 33.33 168.56 33.33 168.56l31.16-.73-14.59-173s11.43-127.49 14.59-157.94-22.89-68.07-22.89-68.07z" fill="#355389"/><path d="m1733.06 1902.63h-21.87l413.32-483.98 12.89 10.59z" fill="#f7cc7f"/><path d="m1965.59 1609c2.05-3.1 5.55-4.47 8.1-3.19 4.8 2.43 12.12 7.62 8.79 15.77-4.81 11.76-26 28-27.32 24.07s.95-29.09 5.24-31.1c2.49-1.17 3.69-3.3 5.19-5.55z" fill="#f48c7f"/><path d="m2124.36 1452.2c-1-2.23-9.76-12.9-13.34-15.67-2.06-1.59-12.29-9.61-12.84-10-19.95-19.81-67.25-92.55-70.63-94.2-4-2-88.64-4.19-88.64-4.19l1.46 39.7 71.33-.5c3.24 2.41 64.62 69 64.62 69s3.85 2.92 8.26 6.39a.84.84 0 0 1 -.1.32 33.48 33.48 0 0 0 -3.07 12.63c-.39 5.35-.59 10.73 4.67 14.35a17.43 17.43 0 0 1 4.07 4.5 20.83 20.83 0 0 0 6.32 5.47c2.33 1.37 4.87.81 6.78-1.38 1.16-1.34 2.07-3.12 3.52-4 2.51-1.47 19.52-17.97 17.59-22.42z" fill="#f7a491"/><path d="m1983.83 1319.63s2 13.09 2.22 22c.17 6 0 32.37 0 32.37s-43.08 9.85-60 10.5c-62.08 2.37-39.67-40.7-33.2-48.23 14.51-16.84 90.98-16.64 90.98-16.64z" fill="#89a6e5"/><path d="m1780.45 1821.55-69.26 81.08h21.87l61.53-72c-4.43-13.85-14.14-9.08-14.14-9.08z" fill="#bc4d26"/><rect fill="#f7cc7f" height="11.08" rx="3.78" width="41.83" x="1701.69" y="1897.49"/><path d="m1667 1902.63h99.44a13 13 0 0 1 13 13v4.54a0 0 0 0 1 0 0h-125.44a0 0 0 0 1 0 0v-4.54a13 13 0 0 1 13-13z" fill="#fe875e"/><rect fill="#f7cc7f" height="32.7" rx="12.13" transform="matrix(-1 0 0 -1 4904.2 3588.65)" width="79.36" x="2412.42" y="1777.97"/><path d="m2520.64 1808.41v92.95a19.19 19.19 0 0 1 -19.19 19.18h-199.7a19.19 19.19 0 0 1 -19.19-19.18v-1.86a103.09 103.09 0 0 1 96.84-102.9l120.89-7.34a19.19 19.19 0 0 1 20.35 19.15z" fill="#96d9c9"/><path d="m2520.64 1876.27v25.09a19.19 19.19 0 0 1 -19.19 19.18h-199.7a19.19 19.19 0 0 1 -19.19-19.18v-1.86a103.46 103.46 0 0 1 2.64-23.23z" fill="#96d9c9"/><circle cx="2474.07" cy="1867.42" fill="#001333" r="53.12" transform="matrix(.97325912 -.22971002 .22971002 .97325912 -362.86 618.38)"/><circle cx="2474.07" cy="1867.42" fill="#bae1f4" r="41.97"/><path d="m364.02 1525.45h239.5v83.84h-239.5z" fill="#f4f4f4" transform="matrix(-1 0 0 -1 967.54 3134.74)"/><g fill="#d3e5f4"><path d="m364.02 1540.8h239.5v1.41h-239.5z" transform="matrix(-1 0 0 -1 967.54 3083.01)"/><path d="m364.02 1554.63h239.5v1.41h-239.5z" transform="matrix(-1 0 0 -1 967.54 3110.67)"/><path d="m364.02 1568.46h239.5v1.41h-239.5z" transform="matrix(-1 0 0 -1 967.54 3138.34)"/><path d="m364.02 1582.3h239.5v1.41h-239.5z" transform="matrix(-1 0 0 -1 967.54 3166)"/><path d="m485.46 1556s-112.69 9.67-126.81 21.81c0 0 .71-14.4 5.37-23.22l35.3 1.34z"/><path d="m364.02 1596.06h239.5v1.41h-239.5z" transform="matrix(-1 0 0 -1 967.54 3193.53)"/><path d="m546.51 1525.45v41.59.66 41.59h57.01v-41.59-.66-41.59z"/></g><path d="m1594.12 1458.3h239.5v83.84h-239.5z" fill="#f4f4f4" transform="matrix(-1 0 0 -1 3427.74 3000.44)"/><path d="m1594.12 1473.65h239.5v1.41h-239.5z" fill="#d3e5f4" transform="matrix(-1 0 0 -1 3427.74 2948.71)"/><path d="m1594.12 1487.48h239.5v1.41h-239.5z" fill="#d3e5f4" transform="matrix(-1 0 0 -1 3427.74 2976.38)"/><path d="m1594.12 1501.31h239.5v1.41h-239.5z" fill="#d3e5f4" transform="matrix(-1 0 0 -1 3427.74 3004.04)"/><path d="m1594.12 1515.15h239.5v1.41h-239.5z" fill="#d3e5f4" transform="matrix(-1 0 0 -1 3427.74 3031.71)"/><path d="m1715.56 1488.89s-112.68 9.67-126.8 21.81c0 0 .7-14.4 5.36-23.22l35.3 1.34z" fill="#d3e5f4"/><path d="m1594.12 1528.91h239.5v1.41h-239.5z" fill="#d3e5f4" transform="matrix(-1 0 0 -1 3427.74 3059.23)"/><path d="m1776.61 1458.3v41.59.66 41.59h57.01v-41.59-.66-41.59z" fill="#d3e5f4"/><path d="m381.41 1441.61h239.5v83.84h-239.5z" fill="#f4f4f4"/><path d="m381.41 1456.96h239.5v1.41h-239.5z" fill="#d3e5f4"/><path d="m381.41 1470.79h239.5v1.41h-239.5z" fill="#d3e5f4"/><path d="m381.41 1484.62h239.5v1.41h-239.5z" fill="#d3e5f4"/><path d="m381.41 1498.46h239.5v1.41h-239.5z" fill="#d3e5f4"/><path d="m499.46 1472.2s112.69 9.67 126.81 21.81c0 0-.71-14.4-5.37-23.22l-35.3 1.34z" fill="#d3e5f4"/><path d="m381.41 1512.22h239.5v1.41h-239.5z" fill="#d3e5f4"/><path d="m438.41 1441.61v41.59.66 41.59h-57.01v-41.59-.66-41.59z" fill="#d3e5f4"/><path d="m2838.7 821.84v-9.09h-160.16v9.09h-177.63a40.21 40.21 0 0 0 40.21 40.21h428.88a40.21 40.21 0 0 0 40.21-40.21z" fill="#f7cc7f"/><path d="m3010.25 797.15v-111.69h-6.04v111.69h-500.27v-111.69h-6.04v111.69h-17.56v40.21h550.49v-40.21z" fill="#183658"/><path d="m1287.5 821.84v-9.09h-160.16v9.09h-177.62a40.21 40.21 0 0 0 40.21 40.21h428.91a40.21 40.21 0 0 0 40.21-40.21z" fill="#f7cc7f"/><path d="m1459.06 797.15v-111.69h-6.05v111.69h-500.26v-111.69h-6.05v111.69h-17.56v40.21h550.49v-40.21z" fill="#183658"/><path d="m3837.87 1713.65c-1.08-9.48-2.35-19.19-6.76-27.65-5.35-10.3-14.76-17.72-23-25.9a143.64 143.64 0 0 1 -34.26-54.61c-5.49-15.85-8.22-32.73-15.78-47.69-4.61-9.14-10.9-17.3-16.14-26.09-12.39-20.78-19.13-45.34-35.93-62.73a75.34 75.34 0 0 0 17 59.64c4.13 4.83 8.93 9.18 12.08 14.7 5.72 10 5.2 22.25 5.87 33.78a148.41 148.41 0 0 0 17.74 62.09c11 20.24 26.93 38.26 32.83 60.55 4.41 16.7 3.1 35.43 12.51 49.91 1 1.57 2.19 3.14 2.44 5a11.07 11.07 0 0 1 -.18 3.14c-.21 1.34-.43 2.69-.64 4-2.14 13.67-4.35 31.06 7.4 41.29 8.14 7.09 18.61 7.25 24.46-2.17s5.36-23.36 4.93-34c-.67-17.77-2.57-35.59-4.57-53.26z" fill="#3c8f7c"/><path d="m3859 1702.66c-4.57-15.83-11.66-30.9-15.22-47-3.44-15.6-3.47-31.73-3.48-47.7q0-26.26 0-52.53c0-10.9 0-21.86-1.82-32.61-3.88-23.12-15.9-44.51-17.93-67.87-.88-10.11.14-20.32-1-30.4a47.76 47.76 0 0 0 -4.78-16.74 7.45 7.45 0 0 0 -13.38.37c-5.84 12.65-9.54 26.33-7.19 39.88 1.42 8.13 4.94 15.71 7.57 23.53 11.71 34.83 5.49 73.39 14.55 109 2.74 10.75 6.87 21.29 7.35 32.38 1.15 26.52-18.66 50.75-16.84 77.24 1.49 21.72 17.1 39.69 23.66 60.45 3.67 11.62 4.45 24 8.38 35.55 3.06 9 10.16 19.84 21.19 17.12 10.47-2.58 7.31-11.13 6.84-19.29-1.57-27.6-.08-54.4-7.9-81.38z" fill="#327f6b"/><path d="m3883 1717.16c-.46-8.23-1.85-16.49-.7-24.65 1-6.88 3.71-13.37 5.67-20 3.67-12.5 4.58-25.62 5.47-38.62q2.42-35.46 4.84-70.91c2.51-36.73 5-73.58 11.9-109.75 1.91-10 4-20.93-.46-30.1-.95-1.93-2.82-4-4.88-3.34-1.46.46-2.18 2.07-2.71 3.51-15 40.81-20.69 84.74-37.45 124.86-4 9.61-8.68 19.07-10.76 29.27-2.5 12.26-1.12 24.92-.8 37.43.46 17.94-1.29 36-6.24 53.25-2.59 9-6.06 17.84-7.48 27.12-1.77 11.57-.28 23.35.82 35a536.3 536.3 0 0 1 2.16 67.43c-.4 13.22 10.76 12.87 18.15 4.75 5.18-5.68 5.13-11.92 6.9-19 5.8-23.25 16.97-41.08 15.57-66.25z" fill="#3c8f7c"/><path d="m3813.25 1753c-9.87-15.86-29.53-24.87-35.84-42.46-1.61-4.48-2.23-9.29-4.2-13.62-4.35-9.62-14.25-15.06-24-19.49a2.06 2.06 0 0 0 -2.91 1.85 7 7 0 0 0 3.05 6 39.49 39.49 0 0 1 15.74 21.46c3 10.31 1.7 21.61 5.44 31.68 3.14 8.45 9.6 15.35 12.63 23.84 2.78 7.76 2.48 16.24 3.79 24.38s4.92 16.77 12.39 20.21c27.05 12.42 20.29-43.59 13.91-53.85z" fill="#327f6b"/><path d="m3925.71 1747.78c-.42 7.67.75 15.71-2.25 22.77-1.92 4.52-5.38 8.18-8.21 12.19-9.95 14.07-13.56 34-28.86 42a5.18 5.18 0 0 1 -3.25.78c-1.56-.29-2.59-1.8-3.22-3.27-3.75-8.74.46-18.58 2.95-27.75.43-1.61.8-3.4 0-4.87-.84-1.63-2.76-2.33-4.07-3.61-2.61-2.54-2.36-6.74-1.84-10.35a232.43 232.43 0 0 1 5.45-26.79c1.33-5 2.85-10 5.73-14.32 3.17-4.73 7.78-8.25 12.08-12a143.14 143.14 0 0 0 41.8-61.69c1.77-5.15 3.34-10.59 7-14.62s10.16-6.11 14.61-3c3.16 2.23-9.8 23.07-11.31 25.57-4.31 7.14-4.37 13.36-6.81 21.29-5.96 19.45-18.66 36.89-19.8 57.67z" fill="#3c8f7c"/><path d="m3910.63 1756.65c2.83-7.32 5.69-14.73 6.62-22.52 1-8.66-.34-17.51 1.14-26.11 1.9-11 8.34-20.76 11.53-31.51 2.3-7.76 2.87-15.91 4.25-23.89 4-22.81 14.68-45.1 11.6-68-.67-5-2.92-10.81-7.87-11.66-4.49-.77-8.57 3.33-9.73 7.73s-.3 9.06 0 13.61a56.19 56.19 0 0 1 -10.06 36c-7 10-17.26 17.47-23.6 27.9-7.78 12.8-8.84 28.42-12.81 42.87-7.89 28.72-27.68 53.78-31.28 83.36-1.44 11.77 1.32 26.07 12.18 30.77 31.4 13.57 40.92-40.15 48.03-58.55z" fill="#327f6b"/><path d="m3855.72 1793.1h-72.09a7.64 7.64 0 0 0 -7.42 9.42l26.27 110.82a7.64 7.64 0 0 0 7.43 5.87h86.6a7.63 7.63 0 0 0 7.42-5.87l26.28-110.82a7.65 7.65 0 0 0 -7.42-9.42z" fill="#9bc1f9"/><ellipse cx="3670.27" cy="1059.07" fill="#f7cc7f" rx="134.72" ry="134.55"/><ellipse cx="3670.27" cy="1059.07" fill="#fff" rx="118.67" ry="118.52"/><path d="m3580.39 1040.27h2.81v36.61h-2.81z" fill="#c5ddf9" transform="matrix(0 -1 1 0 2523.22 4640.36)"/><path d="m3757.6 1040.27h2.81v36.61h-2.81z" fill="#c5ddf9" transform="matrix(0 -1 1 0 2700.43 4817.57)"/><path d="m3668.72 953.2h2.81v36.56h-2.81z" fill="#c5ddf9"/><path d="m3668.72 1129.48h2.81v36.56h-2.81z" fill="#c5ddf9"/><path d="m3673.58 1059.07a3.31 3.31 0 1 1 -3.31-3.3 3.31 3.31 0 0 1 3.31 3.3z" fill="#b0c1ec"/><path d="m3670.27 1060.55a1.49 1.49 0 0 1 -1-.43l-59.42-59.35a1.48 1.48 0 1 1 2.09-2.09l59.42 59.35a1.49 1.49 0 0 1 0 2.09 1.52 1.52 0 0 1 -1.09.43z" fill="#b0c1ec"/><path d="m3689.38 1119.05a1.06 1.06 0 0 1 -.54-.63l-19.21-57.94a1.08 1.08 0 0 1 2-.67l19.2 57.94a1.08 1.08 0 0 1 -.68 1.36 1.1 1.1 0 0 1 -.77-.06z" fill="#b0c1ec"/><path d="m2877.38 1224.43c0 5.64 2.11 10.2 4.7 10.2s4.7-4.56 4.7-10.2-2.1-10.19-4.7-10.19-4.7 4.56-4.7 10.19z" fill="#f7a491"/><path d="m2738 1797.41 26.19 76.12-9.43 3.49-5.44-12.13 1.78 13.79h-2.62l-2.73-8.64.21 18s-21.78 0-32.26-2.94v-12.87l-3.35 12.32-3.35-1.55s1.65-15.13 1.44-14.21-2.73 7.9-2.73 7.9l-3.56-.51 1.47-11.07-4 10.48-3.77-1.84 19.27-76.3 10.06-9.74z" fill="#f7cc7f"/><path d="m2727.66 1810.17c3 0 5.48-3.17 5.48-7.07v-584.7c0-3.9-2.45-7.06-5.48-7.06s-5.48 3.16-5.48 7.06v584.7c0 3.9 2.45 7.07 5.48 7.07z" fill="#184655"/><path d="m2833.08 1885.59c1.23-8.78 1.61-22.27 1.49-37.83h30.74c-3.2 22-5.7 39.19-5.7 39.19l.76 7v20.57h-67.26a302.14 302.14 0 0 0 34.25-19c1.49-1.01 4.9-3.99 5.72-9.93z" fill="#f7a491"/><path d="m2964.21 1880.42-8.94-25.61h23.41c1.21 16.44 1.67 27.53 1.67 27.53l6 16.84 6 20s-19.9 5.13-30.35-.64l1.16-19.92z" fill="#f7a491"/><path d="m2842.8 1323.69c8.12-11.09 41.61-43.23 45.33-43.17 10.84.19 46.44.21 53.4 3.74l-.33 61.19c-1.14 5.13-25.71 85.13-24.29 102.64l-.17.17a49.25 49.25 0 0 1 -71.92-3.46 404.78 404.78 0 0 0 -2.82-46.41c-4.54-34.67-19.36-47.14.8-74.7z" fill="#466eb6"/><path d="m2921.48 1291.57c-.55 3.11-9.89 49.27-9.89 49.27s-8.21 59.36-12.63 66.51c-3.83 6.2-44 6.19-54.62 6.08-.38-4.92-.88-10-1.54-15-4.55-34.67-19.37-47.14.8-74.7 7.94-10.86 40.22-41.9 45.05-43.13h.27s33.08 7.86 32.56 10.97z" fill="#86b1f2"/><path d="m2899 1246.08s-.94 22.57 1.09 31.13 4.73 9.21-12.67 11.81c-6.84 1-13.43 2.55-13.43 2.55s1.78-12.57 2-17.87c.45-8.74-2-35.72-2-35.72z" fill="#f7a491"/><path d="m2885.79 1257.31a31 31 0 0 1 -10 3.55c-.6-10.65-1.71-22.88-1.71-22.88l23.82 7.73a31.21 31.21 0 0 1 -12.11 11.6z" fill="#f47458"/><path d="m2963.16 1898.56c9.18 4.09 19.07 1.62 23.05.32l1.32 3.56 5.06 16.89s-20.15 5-30.6-.77z" fill="#13375b"/><path d="m2861.09 1919.59h-69.93c-2.58-.23-3.21-2.35-2.32-3.65 1.85-2.68 10-4.65 19.18-8.92 16.08 1.69 49.83-9.41 52.37-13.15 1.46 7.48 2.14 25.4.7 25.72z" fill="#13375b"/><path d="m2866.38 1449.27 41 291.52 37.33 134.42h40.6s-9.43-108.3-29.62-146.66c0 0-8.82-102.8-17.65-165.67-1.32-9.4 5.21-33.79 3.51-40.1-13.09-48.46-24.62-74.69-24.62-74.69z" fill="#355389"/><path d="m2891.72 1575.31-9.48 112s9.69 64 3 106.47-15.47 81.44-15.47 81.44h-37.32l-7.42-211.49s-14.35-114.91-9.38-146.07 29.13-72.85 29.13-72.85l58.71 2.68s15.92 57 13.23 76.19c-1.96 14.21-25 51.63-25 51.63z" fill="#466eb6"/><path d="m2710.47 1815 4.12-28.68 7.86-10.49h10.43l7.85 10.49 3.83 28.91c-5.87-3.13-28.22-3.36-34.09-.23z" fill="#184655"/><path d="m2709.5 1316.22c-1.61-1.72-1.77-3.2-1.05-4.39s2.17-1.91 2.29-2.15-.27-.87-.27-.87c-1.07-1-.52-3 .17-3.89a5 5 0 0 1 3.48-1.43c.84.14 1.07-.18 1.07-.18.24-1.43 3.49-4.12 5.11-3.71s6.91 5.33 7.66 5.53a7.51 7.51 0 0 1 2.95 1.15c.77.7 8.14 4.1 9.24 5.09s2.65 6.16 4.19 8.73 2.31 8 2.63 9.44c.19.85 2.66 3.22 4.69 5 1.64 1.52 52.34 41.8 66.84 55.81l22.9-51.28 36.9 6.46c.44-.23-24.72 78.28-48.77 81.45-26.61 3.5-85.92-71.76-91.85-79.42a38.69 38.69 0 0 0 -4-2.89 47.28 47.28 0 0 1 -5.35-3.55 18.37 18.37 0 0 0 -3.07-1.14c-.81-.27-8.12-7.37-9.35-8.48a24.54 24.54 0 0 1 -3-4.41l-4.68-5c-3.52-3.54 1.27-5.87 1.27-5.87z" fill="#f8a492"/><path d="m2901 1305.6c5 20.73-21.83 67-21.83 67s-38.26-18-45-25.83c0 0 26-44.86 27.7-47.59 7.72-12.35 18.19-12.36 25-11.56 5.5.61 14.13 17.98 14.13 17.98z" fill="#89a6e5"/><path d="m2949.44 1383.24c44.37-13.32 32.49-52.43 32.24-50.94.13-1.21 4.31-6.13 6.38-10.34 8.61-17.54-2.75-38.66-15.77-46 8.63-22.3.06-43.69-16.2-52.61a65.15 65.15 0 0 1 -20.66-18.3c-12.31-16.42-34.7-33-61.61-27.56-26.64 6.82 9 22.25 5.49 47.87-1.79 13 3.36 11.12 11.38 21.57-11.55 20.3-4.87 54.37 12.83 69.83-8.68 36.61.65 80.07 45.92 66.48z" fill="#184655"/><path d="m2916.47 1204.44c5.25 21.61-23.12 37.31-45.59 37.88-14.59.38-21.31-1.12-23.67-16.51-3.83-25 6.46-40.16 20.86-46.46 18.59-8.12 44.08 7.26 48.4 25.09z" fill="#184655"/><path d="m2883.48 1189.9a29.48 29.48 0 0 1 15.14 13.29c5.27 10 2.65 41.9-19.25 52.44s-32-13.39-30.38-31 7.93-40.77 34.49-34.73z" fill="#f7a491"/><path d="m2869.8 1239.05-15.54-.24s.27 6 7.1 6.32c8.33.38 8.44-6.08 8.44-6.08z" fill="#fff"/><path d="m2906.41 1227.36c3.24-16.51 2-29-9.76-35s-21.74-12-32.23-1.17l-2.38 1.33s19.8 5.47 20.91 16 11.63 23 10 28.18-3.49 15.46-3.49 15.46l4.33-3.56s9.38-4.74 12.62-21.24z" fill="#184655"/><path d="m2886 1221c-1.64 4.56-.4 9.13 2.76 10.22s7-1.73 8.68-6.29.4-9.13-2.76-10.22-7.05 1.77-8.68 6.29z" fill="#f7a491"/><path d="m2684.79 1804.44c.09-1.72 2.77-42 43-42s42.88 40.29 43 42l4.69-.25c0-.47-3-46.46-47.66-46.46s-47.65 46-47.67 46.46z" fill="#355389"/><path d="m2778.81 1800.95-16.05 118.64h-33.89-2.21-33.89l-16.05-118.64z" fill="#96d9c9"/><path d="m2669.15 1800.1h116.73v8.42h-116.73z" fill="#3c8f7c" transform="matrix(-1 0 0 -1 5455.03 3608.62)"/><path d="m256.35 1919.21h3677.45v7.69h-3677.45z" fill="#f47458"/><path d="m1133.1 1272.34a28.59 28.59 0 0 0 -7.21-4.65c12.78 12.17-.33 71.38-3 73.46s-45.07.91-46.22-3.85c-2.08-8.6 1.48-22.23 5-47.11 2.4-16.79-1.67-26.56-4.57-31.14-3.3-.25-6.69-.47-10.09-.65 0 0 19.42 15-16.66 117.22-3 8.39-38.29 4.64-64.66 3.12a158.54 158.54 0 0 0 -4.72 17.61c-5.27 28.64-11.9 102.43-11.9 102.43 36.44 30.66 130.95 11 130.95 11s.87-44.55 2.88-77.85c1.26-8.61 2.22-16 3.33-23.45 5.48-22.27 16.55-39.06 25.49-69.63 11.35-38.72 9.28-59.13 1.38-66.51z" fill="#355389"/><path d="m1102.4 1161.59s4.63 3.78 2.93 9.59-13.26 22.12-11.48 29.52-1.73 36.49 10.32 41.34c0 0 3.39-17.93 4-17.93s9.52-4.67 10.26-8.33.74-17.56.85-18.11-3.66-31.56-3.66-31.56z" fill="#f7cc7f"/><path d="m1090.39 1193.66c-2.06 5-1.22 9.93 1.87 11s7.26-2 9.31-7 1.22-9.93-1.87-11-7.26 2.02-9.31 7z" fill="#f7a491"/></svg>