<svg viewBox="0 0 600.22 383.31" xmlns="http://www.w3.org/2000/svg" xmlns:xlink="http://www.w3.org/1999/xlink"><clipPath id="a"><path d="m118.11 187.65s-21.44-44.65-31.33-81.5 1.72-37 10-37.84 23.84 3.69 23.84 3.69 27.49 32.95 34 32.95-11.57-29-11.57-29 18.1 5.37 31.55 26.55 8.66 30.29 9.69 39.21 18.83 45.93 18.83 45.93z"/></clipPath><path d="m436.42 290.93s-40.06-89.7-22.35-106.51 41.72 25.13 41.72 25.13-5.82-85.19 26.53-91.74 31.8 84.89 31.8 84.89 24.26-64.64 56.77-72.75-13.23 94.24-13.23 94.24 23.3-37.48 40-15.7-52 84.86-52.2 82.55-109.04-.11-109.04-.11z" fill="#c2dec0"/><path d="m577.42 130.09-72.86 158.66a.26.26 0 0 0 .12.33.22.22 0 0 0 .11 0 .24.24 0 0 0 .21-.08l72.87-158.7z" fill="#98ae96"/><path d="m598.6 210-68 78.71a.25.25 0 0 0 0 .34.25.25 0 0 0 .16.06.27.27 0 0 0 .24-.11l67.84-78.56z" fill="#98ae96"/><path d="m494.15 249.77a.26.26 0 0 0 .22-.27l-11.74-131.75-.31.06h-.17l11.73 131.69a.26.26 0 0 0 .25.23z" fill="#98ae96"/><path d="m416.15 182.74 45.77 107.42a.24.24 0 0 0 .23.15.16.16 0 0 0 .1 0 .25.25 0 0 0 .14-.32l-45.82-107.54z" fill="#98ae96"/><path d="m445.54 263.53h97.91v140.01h-97.91z" fill="#ffeddd" transform="matrix(0 1 -1 0 828.03 -160.96)"/><path d="m392.03 327.71h97.91v11.66h-97.91z" fill="#fff" transform="matrix(0 1 -1 0 774.52 -107.45)"/><path d="m473.8 310.44h97.91v46.18h-97.91z" fill="#ffd9b8" transform="matrix(0 1 -1 0 856.29 -189.23)"/><path d="m144.72 286s29-142 4.8-158.31-60 62.69-60 62.69-34.09-67.14-67.09-72.91 17.22 108.84 17.22 108.84-21.65-52.31-36.73-29.41 33.08 99.27 33.08 96.96 108.72-7.86 108.72-7.86z" fill="#c2dec0"/><path d="m16.56 118a0 0 0 0 0 0 0l-.43.22 71.44 171h.52z" fill="#98ae96"/><path d="m424.49 294.34h140.01v.49h-140.01z" fill="#e29570"/><path d="m55.32 290.92a.23.23 0 0 0 .21.13.27.27 0 0 0 .12 0 .24.24 0 0 0 .1-.33l-50.6-96.62-.36.38z" fill="#98ae96"/><path d="m106.52 287.74a.25.25 0 0 0 .25-.23l7.85-140.51c-.18.24-.36.48-.53.73l-7.8 139.76a.24.24 0 0 0 .23.25z" fill="#98ae96"/><path d="m42.63 263.53h97.91v140.01h-97.91z" fill="#ffeddd" transform="matrix(0 1 -1 0 425.13 241.94)"/><path d="m71 310.44h97.91v46.18h-97.91z" fill="#ffd9b8" transform="matrix(0 1 -1 0 453.49 213.57)"/><path d="m-7.3 327.71h97.91v11.66h-97.91z" fill="#fff" transform="matrix(0 1 -1 0 375.19 291.88)"/><path d="m21.59 294.34h140.01v.49h-140.01z" fill="#e29570"/><path d="m447.4 148.06s30.6-75.06-22.93-99.06-96.28 54.31-158.88 71.26-109.35-47.79-171.82-35.13-25.1 70.77-25.1 70.77z" fill="#ffeddd"/><path d="m383.47 146.79-36.43.02-15.62-38.26 36.43-.03z" fill="#503c6b"/><path d="m377.46 132.09-36.43.02-15.62-38.26 36.43-.03z" fill="#3e2e53"/><rect fill="#503c6b" height="98.57" rx="3.63" width="143.24" x="276.83" y="26.35"/><path d="m276.9 65h52.1v38.71h-52.1z" fill="#e6f4ff"/><path d="m304.94 73.43 3.71 19.45-8.84 1.84s-2.28-19.85 5.13-21.29z" fill="#fff"/><path d="m328.1 103.71c-5.27-8.5-11.45-15.33-17.56-14.88-5.69.41-3.63 6.84 1.31 14.88z" fill="#ffdacf"/><path d="m329 65h52.1v38.71h-52.1z" fill="#e6f4ff"/><path d="m280.49 26.35a3.6 3.6 0 0 0 -3.59 3.65v35.06h52.1v-38.71z" fill="#e6f4ff"/><path d="m326.64 43.4a1 1 0 0 0 -1 0c-1.24.6-2.48 4-3.68 10-.11.54-.22 1.08-.32 1.62.11-1.54.19-3.21.24-4.88.21-8.33-.68-12.56-2.71-12.91a1.53 1.53 0 0 0 -1.31.4c-2.31 2-2.52 11.78-2.44 17.47-.21-1.26-.47-2.71-.76-4.16-1.73-8.48-3.07-8.82-3.5-8.93a.63.63 0 0 0 -.6.15c-2 1.73-.34 20.74-.14 22.9a.14.14 0 0 0 0 .07h.45a.36.36 0 0 0 0-.11c-.78-8.39-1.42-21.3 0-22.49a.15.15 0 0 1 .16 0c1.78.45 3.67 10.28 4.51 16.78a.24.24 0 0 0 .26.21.26.26 0 0 0 .23-.26c0-.18-.92-18.5 2.15-21.22a1 1 0 0 1 .9-.29c3.5.61 2.21 17.87 1.42 24.47a.24.24 0 0 0 .21.27.25.25 0 0 0 .28-.21c.6-4.74 2.65-17.29 4.86-18.37a.55.55 0 0 1 .54 0c.67.4 1.47 2.35-.76 10.93a106.18 106.18 0 0 1 -3.21 10.16.45.45 0 0 0 0 .11h.5c.83-1.83 4.84-14 4.7-19.09-.06-1.42-.37-2.27-.98-2.62z" fill="#b5daff"/><path d="m313.56 103.71.83-14.32-28.22 2.26c-1.53.11-3.25.95-5 3.17a10.87 10.87 0 0 0 -2 8.89z" fill="#ffdacf"/><path d="m378.34 80.11c-2.84-.79-6.31.34-10.33 3.39a39 39 0 0 0 -4.76 4.35 47 47 0 0 0 -1.56-9c-1.85-6.42-4.92-10-8.89-10.31a3.64 3.64 0 0 0 -3.19 1.28c-2 2.33-2.64 7.79-1.77 16.21.49 4.84 1.35 9.32 1.72 11.11-2.64-2.63-13.24-12.92-18.11-13.5a1.26 1.26 0 0 0 -1.35.52c-1.79 2.86 7.44 17.4 8.83 19.56h.52a.27.27 0 0 0 0-.15c-2.95-4.57-10.31-16.91-8.9-19.15.05-.1.23-.37.87-.3 5.3.64 18.27 13.82 18.4 14a.25.25 0 0 0 .42-.22c0-.22-4.9-22.36-.23-27.71a3.13 3.13 0 0 1 2.75-1.19c9.12.76 10 19.25 10 19.43a.24.24 0 0 0 .43.15c.08-.09 8.55-9.82 15-8a1.43 1.43 0 0 1 1.12 1.16c.9 4.81-14.31 21.2-15.14 21.86-.05 0-.07.06-.1.1h.65c2.29-2.34 15.2-16.28 15.12-21.58a2 2 0 0 0 -1.5-2.01z" fill="#b5daff"/><path d="m306 37.61s3.69 2.33 3.46 5.9 4.79 5.51 1.77 10.42-8.64 2.26-9.65-.49 4.42-15.83 4.42-15.83z" fill="#522d34"/><path d="m283.62 65s2.17-13.07 17-13.07a17.8 17.8 0 0 1 17.8 13.07z" fill="#2e6587"/><path d="m295.94 52.39c.08.27 2.07 6.36 6.27 6.36a5.14 5.14 0 0 0 .66 0 3.66 3.66 0 0 0 2.67-1.6 6.5 6.5 0 0 0 .5-4.52l-.54-.14c.17.7.57 2.91-.38 4.4a3.17 3.17 0 0 1 -2.32 1.38c-4.05.59-6.19-5.36-6.38-5.93l-.48.1z" fill="#ffc4b3"/><path d="m293.68 65a13.28 13.28 0 0 0 -3.86-9.83l-.39.3a12.78 12.78 0 0 1 3.76 9.53z" fill="#ffc4b3"/><path d="m315.29 65a13 13 0 0 0 -3.35-9.55 16.94 16.94 0 0 0 -2-1.27 13.06 13.06 0 0 1 4.86 10.82z" fill="#ffc4b3"/><path d="m297.9 52.48.21-6.17h6.11s1.56 7.46-.51 9.2-4.55-.8-5.81-3.03z" fill="#f8a68b"/><path d="m298.08 49.11.17.76a5.34 5.34 0 0 0 5.2 4c1.65-.11 1.37-2 1.31-3.27l-4.44-1.6s-1.72-.89-2.24.11z" fill="#ea8577"/><path d="m307.21 44c0 4.62.16 8.77-3.26 8.77s-8.39-3.74-8.39-8.35 2.78-8.36 6.21-8.36 5.44 3.34 5.44 7.94z" fill="#f8a68b"/><path d="m298.46 39s1.89 1.3 5.81 1 5-4 4.38-4.74-2.7.9-4.88 0-5.52-1.63-8 1.17-1.55 4.92-1.24 7.18-6.48 3.95-6.41 8.45 5.91 5.18 7.77 3.69 3.08-2.73 2.31-8a22.56 22.56 0 0 1 .26-8.75z" fill="#522d34"/><path d="m304.4 42.18-.04 1.28 2.51-.11.14-1.31z" fill="#ea8577"/><path d="m299.43 42.49.27 1.39 2.55-.22.19-1.28z" fill="#ea8577"/><path d="m417 26.55h-35.77v77.16h39v-74a3.18 3.18 0 0 0 -3.23-3.16z" fill="#fff"/><path d="m329 26.35h52.1v38.71h-52.1z" fill="#e6f4ff"/><path d="m376.58 58.6a.22.22 0 0 1 -.2-.1.25.25 0 0 1 0-.3c.24-.37 3.49-6.65 3-8.94a.84.84 0 0 0 -.37-.6.4.4 0 0 0 -.41 0c-1.36.63-2.62 6.54-3 8.76a.25.25 0 0 1 -.49-.07c.72-6.33 1.12-16.51-.86-16.85a.4.4 0 0 0 -.39.13c-1.56 1.5-.46 12.45.09 16.55a.25.25 0 0 1 -.2.27.24.24 0 0 1 -.28-.18c-.77-2.92-2.4-7.66-3.54-8-.05 0-.06 0-.07 0-.48.53.7 4.93 2.12 8.88a.25.25 0 0 1 -.47.17c-2.76-7.72-2.24-9.13-2-9.38a.53.53 0 0 1 .55-.15c1.13.28 2.3 3.2 3.07 5.51-.49-4.5-1.13-12.61.4-14.09a.92.92 0 0 1 .81-.26c2.21.39 2 8.22 1.64 13.29.58-2.23 1.42-4.62 2.42-5.09a.88.88 0 0 1 .86.05 1.62 1.62 0 0 1 .67 1.45c.07 2.69-2.89 8.67-3.2 8.87a.23.23 0 0 1 -.15.08z" fill="#b5daff"/><path d="m377.45 64.88h-5.22l-1.68-8.05h8.03z" fill="#b5daff"/><path d="m377.26 64.7s-10-13.62-22.49-13.89-22.5 14.09-22.5 14.09z" fill="#ffdacf"/><path d="m357.49 51.16-.21-6.16h-6.11s-1.56 7.45.51 9.2 4.55-.81 5.81-3.04z" fill="#f8a68b"/><path d="m357.44 47.73-.05.92c-.61 2.85-3.26 3.8-5.23 3.86s-1.59-2-1.53-3.22l4.44-1.61s1.85-.94 2.37.05z" fill="#ea8577"/><path d="m348.19 43.29c.32 4.6.45 8.76 3.87 8.52s7.33-3.28 6-9c-.32-4.6-1.58-8.08-5-7.85s-5.19 3.73-4.87 8.33z" fill="#f8a68b"/><path d="m350.88 41.26.12 1.28-2.53.08-.21-1.31z" fill="#ea8577"/><path d="m355.85 41.23-.18 1.41-2.55-.05-.27-1.26z" fill="#ea8577"/><path d="m352.73 41.13c0 .61 1.35.41 2.32.26.56-.08.76-.08.8-.16s-.15-.35-.7-.49c-.97-.26-2.44-.24-2.42.39z" fill="#6f3d47"/><path d="m351.09 41.19c0 .61-1.29.3-2.27.24-.56 0-.67.07-.71 0s0-.4.54-.6c.96-.35 2.4-.27 2.44.36z" fill="#6f3d47"/><path d="m352.16 46.21c-.05.19-.55.23-1.12.09s-1-.37-.92-.56.44 0 1 .15 1.09.11 1.04.32z" fill="#ea8577"/><path d="m353.67 47.3h-3.38a2 2 0 0 0 1.78.81 1.72 1.72 0 0 0 1.6-.81z" fill="#fff"/><path d="m353.1 42.64c0 .37.59.65 1.31.63s1.28-.33 1.27-.7-.53-.25-1.24-.23-1.35-.07-1.34.3z" fill="#fff"/><path d="m353.1 42.88a.26.26 0 0 1 -.21-.28c0-.19.27-.52 1.53-.55s1.5.24 1.54.47a.24.24 0 0 1 -.19.29.25.25 0 0 1 -.27-.13s-.27-.16-1.07-.14a2 2 0 0 0 -1.07.19.23.23 0 0 1 -.26.15z" fill="#522d34"/><path d="m348.47 42.53c0 .37.55.69 1.26.73s1.3-.23 1.32-.6-.5-.29-1.22-.33-1.34-.17-1.36.2z" fill="#fff"/><path d="m351.05 42.91a.25.25 0 0 1 -.22-.15s-.23-.22-1.08-.25a1.93 1.93 0 0 0 -1.07.14.24.24 0 0 1 -.29.11.25.25 0 0 1 -.15-.31c.06-.18.36-.47 1.53-.43s1.47.41 1.52.57a.24.24 0 0 1 -.16.3z" fill="#522d34"/><path d="m350.19 46a.27.27 0 0 1 -.12 0 .24.24 0 0 1 -.08-.34c.38-.63 1.57-2.55 1.34-4a.25.25 0 0 1 .21-.28.25.25 0 0 1 .28.21c.22 1.5-.7 3.21-1.42 4.38a.24.24 0 0 1 -.21.03z" fill="#ea8577"/><path d="m353.72 42.83a.62.62 0 0 1 .19-.49h.53.34a.64.64 0 0 1 .2.42.63.63 0 0 1 -.18.49 2.45 2.45 0 0 1 -.39 0 2 2 0 0 1 -.5 0 .63.63 0 0 1 -.19-.42z" fill="#522d34"/><path d="m349.26 42.78a.61.61 0 0 1 .17-.48h.4.55a.58.58 0 0 1 .14.34.63.63 0 0 1 -.23.53 2 2 0 0 1 -.56 0h-.23a.62.62 0 0 1 -.24-.39z" fill="#522d34"/><path d="m351.1 49c0 .17.39.28.84.25s.82-.19.8-.36-.38-.28-.84-.25-.81.15-.8.36z" fill="#ea8577"/><path d="m351.52 58.1a4.4 4.4 0 0 0 .62 0c3.84 0 6.5-5.34 7.11-6.68l-.49-.11c-.69 1.46-3.46 6.81-7.16 6.26a2.9 2.9 0 0 1 -2.2-1.32c-1-1.62-.23-4.17-.06-4.71l-.57.18c-.26 1-.74 3.2.21 4.78a3.37 3.37 0 0 0 2.54 1.6z" fill="#ffc4b3"/><path d="m365.4 54.07c-.91 1.12-4.12 5.4-4.25 10.7h.49c.14-5.26 3.39-9.48 4.19-10.44z" fill="#ffc4b3"/><path d="m345 53.39c-.48.26-.95.53-1.41.82-1.8 2.12-4.32 6-4.21 10.66h.49c-.13-5.58 3.59-9.87 5.13-11.48z" fill="#ffc4b3"/><path d="m357.81 42.16-.26 1.5a34.84 34.84 0 0 0 -.47-3.83c-.5-1.15-1.29-2.33-2.47-2.53-2.43-.4-4.57 3.1-6.86 1.17s-2.15-4.52-.62-4.92 2.36.46 5.12.66 4.75-1.21 6.75-.35 1 3.72 1 3.72 1.57-.81 2.61 1.69-3.09 5.73-3.09 5.73z" fill="#2e6587"/><path d="m360.31 44.33a1.86 1.86 0 1 1 -1.37-2.55 2.07 2.07 0 0 1 1.37 2.55z" fill="#f8a68b"/><path d="m359.28 43.83c.79.91-.35 1.45-1.21 1.35l-.18-1.67s-.08-1 .7-1-.09.41.69 1.32z" fill="#ea8577"/><path d="m381.1 104a.24.24 0 0 1 -.24-.24v-77.41a.25.25 0 1 1 .49 0v77.36a.25.25 0 0 1 -.25.29z" fill="#503c6b"/><path d="m329 104a.25.25 0 0 1 -.25-.24v-77.41a.25.25 0 0 1 .5 0v77.36a.25.25 0 0 1 -.25.29z" fill="#503c6b"/><path d="m381.1 65.24h-104.27a.25.25 0 1 1 0-.49h104.27a.25.25 0 1 1 0 .49z" fill="#503c6b"/><path d="m420.07 35h-38.71a.24.24 0 0 1 -.25-.24.25.25 0 0 1 .25-.25h38.71a.25.25 0 0 1 .25.25.24.24 0 0 1 -.25.24z" fill="#503c6b"/><path d="m302.54 42.17c0 .62-1.32.5-2.3.42-.56 0-.76 0-.81-.1s.13-.36.66-.54c.96-.33 2.43-.41 2.45.22z" fill="#6f3d47"/><path d="m304.31 42.11c0 .61 1.32.21 2.28.08.56-.07.68 0 .72-.06s-.05-.4-.59-.55c-.97-.29-2.41-.1-2.41.53z" fill="#6f3d47"/><path d="m303.46 47.2c.06.19.56.19 1.12 0s.94-.43.88-.62-.44 0-1 .22-1.06.2-1 .4z" fill="#ea8577"/><path d="m302 48.4 3.37-.23a2 2 0 0 1 -1.72.93 1.7 1.7 0 0 1 -1.65-.7z" fill="#fff"/><path d="m302.27 43.7c0 .37-.55.69-1.26.72s-1.3-.24-1.32-.61.51-.29 1.23-.32 1.34-.16 1.35.21z" fill="#fff"/><path d="m299.69 44a.27.27 0 0 1 -.15-.05.25.25 0 0 1 0-.34s.4-.46 1.53-.46 1.37.27 1.44.35a.26.26 0 0 1 0 .35.25.25 0 0 1 -.35 0 2 2 0 0 0 -1.05-.17c-.88 0-1.15.28-1.15.28a.24.24 0 0 1 -.27.04z" fill="#522d34"/><path d="m306.88 43.27c.05.37-.49.73-1.2.82s-1.32-.14-1.36-.51.48-.32 1.19-.41 1.33-.26 1.37.1z" fill="#fff"/><path d="m304.32 43.85h-.06a.26.26 0 0 1 -.18-.31c0-.16.24-.54 1.45-.66s1.47.12 1.56.28a.24.24 0 0 1 -.42.25 2.17 2.17 0 0 0 -.59-.07h-.5c-.89.09-1 .31-1 .31a.22.22 0 0 1 -.26.2z" fill="#522d34"/><path d="m305.39 46.88a.26.26 0 0 1 -.2-.1c-.8-1.11-1.84-2.76-1.71-4.27a.25.25 0 0 1 .26-.23.25.25 0 0 1 .23.27c-.13 1.5 1.14 3.27 1.62 3.94a.24.24 0 0 1 -.06.34.24.24 0 0 1 -.14.05z" fill="#ea8577"/><path d="m301.66 43.94a.61.61 0 0 0 -.22-.48h-.52-.34a.63.63 0 0 0 -.18.44.65.65 0 0 0 .22.47 2.47 2.47 0 0 0 .39 0 1.87 1.87 0 0 0 .49-.07.6.6 0 0 0 .16-.36z" fill="#522d34"/><path d="m306.12 43.58a.63.63 0 0 0 -.21-.47l-.4.06h-.55a.66.66 0 0 0 -.11.36.62.62 0 0 0 .27.51 2.62 2.62 0 0 0 .56 0h.22a.62.62 0 0 0 .22-.46z" fill="#522d34"/><path d="m311 58.39s1.63-6.84 2.33-7 .15 4.4.15 4.4 1.84-5.79 2.63-5.79-.79 5.67-.79 5.67 1.9-4.59 2.22-4.17-.69 5.48-.69 5.48 1.59-2.91 2.18-2.61-1.78 7.42-3.68 8.19a4.78 4.78 0 0 1 -5.57-1.35c-.73-.8-.6-1.48-.67-2.67-.1-1.43-.95-2.59-.51-2.82s1.55.56 1.76 1.29a4.88 4.88 0 0 0 .64 1.38z" fill="#f8a68b"/><path d="m300.89 46.6a1.13 1.13 0 1 1 -.77-1.15 1 1 0 0 1 .77 1.15z" fill="#ea8577"/><path d="m304.7 49.87c0 .17-.37.31-.82.31s-.83-.14-.83-.31.37-.3.83-.3.82.13.82.3z" fill="#ea8577"/><path d="m306.61 45.07a1 1 0 0 0 -.53 1.29.93.93 0 0 0 1.12.31c0-.58 0-1.17 0-1.78a1.42 1.42 0 0 0 -.59.18z" fill="#ea8577"/><path d="m387.59 30.61a2.54 2.54 0 1 1 -2.54-2.53 2.54 2.54 0 0 1 2.54 2.53z" fill="#e6f4ff"/><path d="m383.65 29.8h2.31v1.87h-2.31z" fill="#503c6b"/><path d="m385.03 30.73 1.61.93v-1.86z" fill="#503c6b"/><circle cx="391.35" cy="30.61" fill="#e6f4ff" r="2.53"/><path d="m391.35 31.78a.71.71 0 0 1 -.72-.71v-1.22a.72.72 0 0 1 .72-.72.71.71 0 0 1 .71.72v1.22a.71.71 0 0 1 -.71.71z" fill="#503c6b"/><path d="m391.36 32.27a1.16 1.16 0 0 1 -.91-.37 1.88 1.88 0 0 1 -.36-1.3.12.12 0 0 1 .13-.11.12.12 0 0 1 .11.13 1.67 1.67 0 0 0 .31 1.12 1.07 1.07 0 0 0 1.44 0 1.6 1.6 0 0 0 .27-1.11.13.13 0 0 1 .11-.14.12.12 0 0 1 .14.11 1.88 1.88 0 0 1 -.34 1.3 1.11 1.11 0 0 1 -.9.37z" fill="#503c6b"/><path d="m391.35 33.3a.13.13 0 0 1 -.13-.13v-1a.13.13 0 0 1 .13-.13.13.13 0 0 1 .12.13v1a.13.13 0 0 1 -.12.13z" fill="#503c6b"/><path d="m395.05 28.39h22.76v4.61h-22.76z" fill="#e6f4ff"/><path d="m416.61 125.65h-136.32a4.2 4.2 0 0 1 -4.2-4.19v-91.65a4.21 4.21 0 0 1 4.2-4.2h136.32a4.21 4.21 0 0 1 4.2 4.2v91.65a4.2 4.2 0 0 1 -4.2 4.19zm-136.32-98.56a2.73 2.73 0 0 0 -2.73 2.72v91.65a2.73 2.73 0 0 0 2.73 2.72h136.32a2.72 2.72 0 0 0 2.72-2.72v-91.65a2.72 2.72 0 0 0 -2.72-2.72z" fill="#503c6b"/><path d="m347.21 118.06a4.42 4.42 0 1 1 4.42-4.42 4.43 4.43 0 0 1 -4.42 4.42zm0-8.35a3.93 3.93 0 1 0 3.93 3.93 3.94 3.94 0 0 0 -3.93-3.93z" fill="#ffc339"/><path d="m310.14 149.79a3.46 3.46 0 1 1 3.46-3.46 3.46 3.46 0 0 1 -3.46 3.46zm0-6.43a3 3 0 1 0 3 3 3 3 0 0 0 -3-3z" fill="#503c6b"/><path d="m389.55 39.91a2.51 2.51 0 1 1 -2.55-2.51 2.51 2.51 0 0 1 2.55 2.51z" fill="#e6f4ff"/><path d="m389.55 48.38a2.51 2.51 0 1 1 -2.51-2.5 2.51 2.51 0 0 1 2.51 2.5z" fill="#ffc339"/><circle cx="387.04" cy="57.47" fill="#e6f4ff" r="2.51"/><path d="m389.55 66a2.51 2.51 0 1 1 -2.55-2.56 2.5 2.5 0 0 1 2.55 2.56z" fill="#ffc339"/><path d="m392.54 38.2h20.32v.99h-20.32z" fill="#503c6b"/><path d="m392.54 40.22h12.84v.99h-12.84z" fill="#503c6b"/><path d="m392.54 46.68h20.32v.99h-20.32z" fill="#503c6b"/><path d="m392.54 48.7h12.84v.99h-12.84z" fill="#503c6b"/><path d="m392.54 55.57h20.32v.99h-20.32z" fill="#503c6b"/><path d="m392.54 57.6h12.84v.99h-12.84z" fill="#503c6b"/><path d="m392.54 64.05h20.32v.99h-20.32z" fill="#503c6b"/><path d="m392.54 66.07h12.84v.99h-12.84z" fill="#503c6b"/><path d="m362.46 87.85.7-13.25-5.54-2.16s-9.56 9.64-7.39 12 5.39.84 5.39.84l-1.08 2.6-3.77.57 2.07 15 11.52-9.32z" fill="#f8a68b"/><path d="m350.77 88.44 4.07 8.63 6.48-6.69-6.36 10.82z" fill="#ea8577"/><path d="m341.75 90.12-9.39 13.6 45.46-.01-7.96-14.89-7.4-.97-7.53 10.78-4.16-10.23z" fill="#c2dec0"/><path d="m362.41 81.86c.13-.11 3.75 2.8 5.79-2.42s-3-5.23-3-5.23.3-4.19-2.86-4.43a7.26 7.26 0 0 1 -5.72-4c-.37-1.09-3.23.46-2.45 3.77s2.59 3.82 2.59 3.82l5.9 2.3z" fill="#503c6b"/><path d="m360.06 76.93c.08-.24-.69-.82-1.27-1s-1 0-1 .46c0 .19.52.27 1 .38s1.21.28 1.27.16z" fill="#503c6b"/><path d="m355.13 74.91c.1-.22.58-.39 1.11-.11s.71.73.43 1c-.13.14-.56-.17-1-.44s-.6-.36-.54-.45z" fill="#503c6b"/><path d="m354.24 81.16a4 4 0 0 1 -1.33-.23.26.26 0 0 1 -.14-.32.25.25 0 0 1 .32-.14 2.8 2.8 0 0 0 2.91-.47.25.25 0 1 1 .37.33 2.74 2.74 0 0 1 -2.13.83z" fill="#ea8577"/><path d="m358.48 77c.66.14 1.13.53 1.06.87s-.66.51-1.31.37-1.13-.52-1.06-.86.66-.52 1.31-.38z" fill="#fff"/><path d="m355.64 76c.39.33.57.75.4 1s-.62.11-1-.21-.58-.75-.41-1 .62-.12 1.01.21z" fill="#fff"/><path d="m364.8 80a2.19 2.19 0 1 1 -2.94-1 2.18 2.18 0 0 1 2.94 1z" fill="#f8a68b"/><path d="m345.58 103.59 22.56.11.75-7.31-6.2 6.24 5.27-11.76-12.91 11.48 4.64-7.27z" fill="#b0c9ad"/><path d="m345.58 103.59-4.4-5.53-1 5.63z" fill="#b0c9ad"/><path d="m340.93 103.72 1.31-13.69-.49.09-.02.02-1.29 13.58z" fill="#98ae96"/><path d="m369.19 88.73 1.22 14.98h.61l-1.21-14.9z" fill="#98ae96"/><path d="m354.9 102.68a.26.26 0 0 0 .2-.1l10-14.35-.55-.07-9.61 13.84-6.17-13.11-.5.1 6.41 13.6a.23.23 0 0 0 .2.14z" fill="#98ae96"/><path d="m355.87 89.23c.73 1.75 1.81 1.11 3 0-1.28.5-2.3.6-3 0z" fill="#ea8577"/><path d="m363.27 82.34a.25.25 0 0 1 -.19-.09l-.81-1a.26.26 0 0 1 0-.32l.9-1a.24.24 0 1 1 .36.33l-.75.83.67.83a.25.25 0 0 1 0 .35.3.3 0 0 1 -.18.07z" fill="#ea8577"/><path d="m355.62 85.27 2.39-1.4a3.76 3.76 0 0 1 -2.85 2.51z" fill="#ea8577"/><path d="m355.78 76.12-.14-.13c-.39-.32-.85-.41-1-.21s0 .62.39.94a.77.77 0 0 0 .39-.07.74.74 0 0 0 .36-.53z" fill="#503c6b"/><path d="m358.15 78a.7.7 0 0 0 .31-1l-.06-.1c-.62-.1-1.16.06-1.23.39s.23.56.67.74a.6.6 0 0 0 .31-.03z" fill="#503c6b"/><path d="m356.05 76.79a.12.12 0 0 1 -.11-.08 1.11 1.11 0 0 0 -1.13-.77.12.12 0 0 1 -.13-.11.12.12 0 0 1 .1-.14 1.37 1.37 0 0 1 1.39.93.12.12 0 0 1 -.08.16z" fill="#503c6b"/><path d="m359.48 77.71a.12.12 0 0 1 -.08 0 1.88 1.88 0 0 0 -1.92-.37.13.13 0 0 1 -.16-.06.12.12 0 0 1 .05-.16 2.12 2.12 0 0 1 2.2.42.11.11 0 0 1 0 .17.1.1 0 0 1 -.09 0z" fill="#503c6b"/><path d="m354.44 79.85a.24.24 0 0 1 -.2-.11l-1.07-1.55a.26.26 0 0 1 0-.21.23.23 0 0 1 .13-.16l3.52-1.61a.25.25 0 0 1 .33.12.26.26 0 0 1 -.12.33l-3.26 1.49.9 1.31a.25.25 0 0 1 -.2.39z" fill="#ea8577"/><path d="m294.55 92.07 2.68-18.38s9.1-5.69 9.77 2.31-1.07 11.66-2.55 12.45-4.3-.87-4.3-.87l1.63 4.42c1.5 6-4.78 8.85-7.23.07z" fill="#f8a68b"/><path d="m305.43 72.39c-1.43 3.66-3.44 6.67-7.85 5.81l-2.88 12.8-3.38.23s-2.44-17 5-20.29 9.11 1.45 9.11 1.45z" fill="#fff"/><path d="m298.9 80.28a2.51 2.51 0 0 1 -2.23 2.34 2.05 2.05 0 0 1 -1.75-2.38 2.24 2.24 0 0 1 2.13-2.16 2 2 0 0 1 1.85 2.2z" fill="#f8a68b"/><path d="m303.09 73.79a5.93 5.93 0 0 0 4 3.41s.18-5.41-3.86-7-.14 3.59-.14 3.59z" fill="#fff"/><path d="m303.72 84.05a4 4 0 0 1 -2.83-1.27.24.24 0 0 1 0-.35.25.25 0 0 1 .34 0 3.49 3.49 0 0 0 2.82 1.07.25.25 0 0 1 .27.22.23.23 0 0 1 -.21.27z" fill="#ea8577"/><path d="m307.13 78.41c0-.28-1.43-.88-1.9-.82s-.8.24-.7.72 2.58.38 2.6.1z" fill="#503c6b"/><path d="m300.43 77.79c.09-.27 1.51-.52 2-.36s.78.49.5.9-2.59-.28-2.5-.54z" fill="#503c6b"/><path d="m302.89 79.55c0 .29-.62.51-1.35.49s-1.33-.28-1.32-.58.61-.51 1.35-.49 1.33.28 1.32.58z" fill="#fff"/><path d="m307 79.75c0 .29-.61.51-1.35.49s-1.33-.29-1.32-.58.62-.51 1.36-.49 1.31.28 1.31.58z" fill="#fff"/><path d="m297.17 71.6a3.87 3.87 0 1 1 -4.78-2.68 3.87 3.87 0 0 1 4.78 2.68z" fill="#fff"/><path d="m302.86 79.72a.14.14 0 0 1 -.11-.07 1.16 1.16 0 0 0 -.84-.55 2 2 0 0 0 -1.6.37.12.12 0 0 1 -.17 0 .13.13 0 0 1 0-.17 2.23 2.23 0 0 1 1.79-.42 1.43 1.43 0 0 1 1 .68.12.12 0 0 1 -.05.16z" fill="#503c6b"/><path d="m307 79.94a.14.14 0 0 1 -.11-.06 1.14 1.14 0 0 0 -.84-.55 2 2 0 0 0 -1.59.36.12.12 0 1 1 -.16-.18 2.21 2.21 0 0 1 1.8-.42 1.39 1.39 0 0 1 1 .67.13.13 0 0 1 -.05.17z" fill="#503c6b"/><path d="m296.15 81.43a.25.25 0 0 1 -.23-.15.25.25 0 0 1 .08-.28l1-.46-.62-1.13a.24.24 0 0 1 .09-.33.25.25 0 0 1 .34.1l.75 1.36a.21.21 0 0 1 0 .19.22.22 0 0 1 -.13.15l-1.22.56a.19.19 0 0 1 -.06-.01z" fill="#ea8577"/><path d="m300.14 87.53-1.47-.54 2.26 2.69z" fill="#ea8577"/><path d="m299.49 96.9c-1.72.56-3.38-1.53-4.23-2.84 2.49 5.65 6.88 3.94 6.75-.47-.26 1.09-.9 2.79-2.52 3.31z" fill="#ea8577"/><path d="m300.74 79.06a.85.85 0 0 0 -.24.59.88.88 0 0 0 0 .16 2.33 2.33 0 0 0 1 .23 3 3 0 0 0 .61 0 .84.84 0 0 0 .07-.35.82.82 0 0 0 -.29-.64h-.36a2.93 2.93 0 0 0 -.79.01z" fill="#503c6b"/><path d="m304.42 79.47a.79.79 0 0 0 -.08.31 1.65 1.65 0 0 0 1.29.46h.37a.81.81 0 0 0 .11-.41.86.86 0 0 0 -.29-.64h-.1a1.89 1.89 0 0 0 -1.3.28z" fill="#503c6b"/><path d="m303.05 82.06a.24.24 0 0 1 -.25-.24.25.25 0 0 1 .24-.25h1.43l-.59-3.4a.26.26 0 0 1 .2-.29.25.25 0 0 1 .29.2l.64 3.69a.25.25 0 0 1 -.06.2.29.29 0 0 1 -.19.09z" fill="#ea8577"/><path d="m302.29 96.65a3 3 0 0 1 -2.45 1.55h-.08c-4.27.41-6.72-5.55-7.28-7.07h-.5a18.07 18.07 0 0 0 1.89 3.87c1.71 2.64 3.77 3.91 5.95 3.7h.08a3.43 3.43 0 0 0 2.81-1.8c1.14-2.09.46-5.33.11-6.62h-.49c.31 1.21 1.02 4.43-.04 6.37z" fill="#ffc4b3"/><path d="m307.84 89.91h-.5a56.39 56.39 0 0 0 4.66 13.8h.58a55.29 55.29 0 0 1 -4.74-13.8z" fill="#ffc4b3"/><path d="m292.83 103.71h.5c-.7-4.06-6.17-10.35-7.65-12a4 4 0 0 0 -.57.14c.95 1.05 6.89 7.74 7.72 11.86z" fill="#ffc4b3"/><path d="m324.85 76.56h-12.85a.25.25 0 0 1 -.25-.25v-7.74a.25.25 0 0 1 .25-.24h12.86a.24.24 0 0 1 .24.24v7.74a.25.25 0 0 1 -.25.25zm-12.62-.49h12.37v-7.25h-12.37z" fill="#b5daff"/><path d="m324.85 81.16h-12.85a.25.25 0 0 1 -.25-.25v-2.79a.25.25 0 0 1 .25-.24h12.86a.24.24 0 0 1 .24.24v2.79a.25.25 0 0 1 -.25.25zm-12.62-.49h12.37v-2.3h-12.37z" fill="#b5daff"/><path d="m384 147.89h-56.17a3.28 3.28 0 0 1 3.28-3.28h51.53z" fill="#3e2e53"/><ellipse cx="186.16" cy="117.45" fill="#6f3d47" rx="16.16" ry="5.28" transform="matrix(.40082878 -.91615298 .91615298 .40082878 3.93 240.9)"/><path d="m253.55 83.06s19.17-18.68 18.06-20.36-9.61 5.72-9.61 5.72 10.53-14.51 9.34-16.17-7.43 5.28-7.43 5.28 6.74-10.06 4.87-11.5-9.65 10.82-9.65 10.82 4.55-10 2.27-11.27-14.81 24.81-14.81 24.81z" fill="#ea8577"/><path d="m187.78 102.69 31 16.69s19.64-36.38 29.92-56.38c3.7-7.21 3.67-12.92 4.21-13.19 3.49-1.75 1.38 13.36 1.38 13.36 3.79 4.88 3.26 11 .76 17 0 0-21.07 69.45-27.39 68.7s-47.94-15.73-52.33-20.66 12.45-25.52 12.45-25.52z" fill="#f8a68b"/><path d="m218.87 7.9c-16-2.17-26.77 2.95-29.35 6.12-5.5 6.75-9.81 20.88-6.76 29.22 2.53 6.94 11.84 10 21 12.51-3 3.46-8.47 5.49-11.31 5.77 4.84 1.83 13.17-.66 18.2-3.94 9.75 2.6 16 4 23.69-.55 8-4.77 12.47-15.53 12.84-31.11.18-8.27-10.18-15.57-28.31-18.02z" fill="#ffd9b8"/><path d="m222.42 58c-4 0-8.22-1.13-13.66-2.58h-.12l-2.17-.57c-9.25-2.43-19.74-5.18-22.44-12.15-1.34-3.47-1.34-8.3 0-13.6a32.68 32.68 0 0 1 6-12.43c2.13-2.53 11.93-7.37 27.13-5.24 16.12 2.25 26.47 8.7 26.36 16.42-.2 13.87-4.23 23.42-11.64 27.6a18.47 18.47 0 0 1 -9.46 2.55zm-13.65-3.09h.11c9.68 2.58 15.52 4.14 22.75.06s11.2-13.5 11.4-27.19c.11-7.46-10.07-13.71-25.94-15.93-13.67-1.91-24 1.9-26.69 5.08-5 5.93-8.68 18.38-5.91 25.53 2.61 6.74 13 9.46 22.11 11.85l2.17.57z" fill="#503c6b"/><path d="m378.11 248.31 31.06 33.13c1.3 10.13-1.25 16.73-11.19 16.54l-35-26.74z" fill="#f8a68b"/><path d="m385.46 255.91-11.05 24.04-10.31-7.89z" fill="#ea8577"/><path d="m337.73 319.58 8.06 28c-3.12 14.18-10.24 18.13-22.06 10.11l-15-38.56z" fill="#f8a68b"/><path d="m342.62 336.61-23.72 8.64 4.83 12.44c11.82 8 18.94 4.07 22.06-10.11z" fill="#ffeddd"/><path d="m337.73 319.58-22.4 16.45-3.12-7.92z" fill="#ea8577"/><path d="m402.18 274c-2.82 4.36-8.18 12.71-11.63 18.32l7.45 5.68c9.94.19 12.49-6.41 11.19-16.54z" fill="#ffeddd"/><path d="m130.78 382.54 53.22-130.4a.74.74 0 0 1 1-.41.73.73 0 0 1 .4 1l-53.25 130.37c-.15.28-1.52-.18-1.37-.56z" fill="#3e2e53"/><path d="m285.86 383-33-127.1a.74.74 0 0 1 .53-.9.73.73 0 0 1 .9.53l33 127.1c.1.37-1.29.7-1.43.37z" fill="#3e2e53"/><path d="m262.63 295h-94.77a.74.74 0 0 1 0-1.48h94.77a.74.74 0 0 1 0 1.48z" fill="#3e2e53"/><path d="m469.92 383-20.21-224.47a1.48 1.48 0 0 1 2.94-.26l20.2 224.42c.07.81-2.93.31-2.93.31z" fill="#3e2e53"/><path d="m71.67 382.69 19.27-226.91a1.48 1.48 0 1 1 2.94.25l-19.27 226.91z" fill="#3e2e53"/><path d="m488.92 193.35h-433.39l3.69-37.45h425.91z" fill="#ffcaa4"/><path d="m424.59 180.07q-10.84-1.69-21.63-3.69c-7.15-1.32-14.25-2.88-21.4-4.11-7-1.19-14.08-2-21.12-1.16a48.07 48.07 0 0 0 -18 6.13 81.21 81.21 0 0 0 -7.91 5.15c-2.44 1.78-5.06 3.6-6.9 6a9.29 9.29 0 0 0 -1.91 4.94h.55a8.83 8.83 0 0 1 .9-3.07c1.43-2.82 4.19-4.78 6.66-6.62a88.48 88.48 0 0 1 7.69-5.19 48.77 48.77 0 0 1 17.82-6.61c7.1-1 14.34-.3 21.38.87s13.91 2.7 20.87 4 13.92 2.5 20.9 3.61q20.93 3.32 42 5.52 11.94 1.24 23.9 2.13l-.06-.62q-9.94-.74-19.86-1.72-22.03-2.14-43.88-5.56z" fill="#e29570"/><path d="m438.81 186.23a23.49 23.49 0 0 0 -7.14-.73c-2.71 0-5.43.16-8.14.19a237.8 237.8 0 0 1 -33.74-2.06c-5.51-.73-11-1.84-16.48-2.46a40.58 40.58 0 0 0 -14.9.65c-4.15 1.1-8.27 3.2-10.85 6.73a13.53 13.53 0 0 0 -2.21 4.81h.65a11.92 11.92 0 0 1 .95-2.62c1.94-3.87 5.73-6.37 9.74-7.75 9.72-3.35 20.1-.63 29.92.81a239 239 0 0 0 31.85 2.5q4 0 8 0c2.46-.06 4.93-.22 7.4-.14a15.82 15.82 0 0 1 7 1.6 10 10 0 0 1 3.91 3.88 11.13 11.13 0 0 1 .79 1.76h.65a11 11 0 0 0 -7.4-7.17z" fill="#e29570"/><path d="m416.43 158.52a75.07 75.07 0 0 1 12.7 1.06 106.46 106.46 0 0 1 12 3.21c8 2.55 16 5.32 24.43 6a96.67 96.67 0 0 0 20.74-1l-.06-.6a105 105 0 0 1 -17.71 1.18 62.83 62.83 0 0 1 -12.88-1.78c-4-1-8-2.28-11.94-3.56s-7.84-2.51-11.85-3.43a64.06 64.06 0 0 0 -12.16-1.6c-7.38-.26-15 .19-22.06-2.08h-1.78a35.32 35.32 0 0 0 8 2 110.58 110.58 0 0 0 12.57.6z" fill="#e29570"/><path d="m198 157.46c12.62 4.65 26 6.77 39.37 7.9 7.13.61 14.27.93 21.42 1.2 6.81.26 13.62.54 20.44.56 13.2 0 26.7-.88 39.19-5.51 2.84-1.05 7.08-2.81 8.86-5.71h-.81c-.11.17-.24.33-.37.5-1.73 2-4.33 3.27-6.78 4.22-12 4.68-25.09 5.82-37.91 5.89-6.51 0-13-.21-19.54-.45-6.89-.25-13.78-.52-20.65-1-13.24-1-26.52-2.72-39.18-6.84q-3.22-1.05-6.41-2.31h-1.63c1.31.54 2.63 1.09 4 1.55z" fill="#e29570"/><path d="m56.62 182.35c16.28-1.82 32.48-6.12 48.21-10.14s31.26-7.54 47.36-8.68c15.94-1.14 32-.37 47.84 1.26 16.09 1.66 32.06 4.25 48.05 6.65 15.56 2.33 31.41 4.27 47.11 2.23 7.5-1 14.82-2.92 22.16-4.66a143.77 143.77 0 0 1 24.23-3.81c15.87-1 31.78.46 47.6 1.72l97.82 7.85-.06-.62-85.29-6.84c-15.93-1.27-31.91-3-47.9-3.06a154.43 154.43 0 0 0 -22.54 1.38c-7.78 1.11-15.36 3.15-23 4.93a118 118 0 0 1 -24.31 3.33 167.09 167.09 0 0 1 -23.55-1.38c-15.95-1.91-31.76-4.82-47.69-6.86a344.76 344.76 0 0 0 -47.4-3.26 216.11 216.11 0 0 0 -45.8 5.6c-20.72 4.72-41.6 11.41-62.82 13.79z" fill="#e29570"/><path d="m313.24 193.36h.69c.56-.92 1.13-1.83 1.7-2.74 1.13-1.8 2.64-4.31.94-6.26-1.43-1.65-4.07-1.75-6.08-1.85-5.87-.3-11.79.52-17.6 1.27s-11.52 1.67-17.23 2.77q-9.74 1.86-19.33 4.39a.31.31 0 0 0 .16.59 293.64 293.64 0 0 1 32.83-6.65 158.74 158.74 0 0 1 17-1.78h4.17a15.36 15.36 0 0 1 3.51.46 3.57 3.57 0 0 1 2.58 2c.46 1.27-.21 2.64-.84 3.72-.74 1.37-1.64 2.72-2.5 4.08z" fill="#e29570"/><path d="m38.18 382.69 19.27-226.91a1.48 1.48 0 1 1 2.94.25l-19.27 226.91z" fill="#3e2e53"/><path d="m505.52 383-22-228.42a1.47 1.47 0 0 1 2.93-.28l22 228.42c.08.77-2.93.28-2.93.28z" fill="#3e2e53"/><path d="m50.3 147.89h446.58v8.01h-446.58z" fill="#e29570"/><path d="m496.88 149.79h-447.13a.25.25 0 1 1 0-.49h447.13a.25.25 0 1 1 0 .49z" fill="#ffcaa4"/><path d="m130.87 48.71-10.25 23.29s23 35.36 34 32.95-11.57-29-11.57-29l7.24-14.17s-8.99-15.99-19.42-13.07z" fill="#f8a68b"/><rect fill="#e29570" height="21.3" rx="5.53" width="78.5" x="394.89" y="163.74"/><rect fill="#e29570" height="21.3" rx="5.53" width="78.5" x="304.46" y="163.74"/><path d="m379.54 168.83h-71.65a.25.25 0 1 1 0-.49h71.65a.25.25 0 0 1 0 .49z" fill="#ffcaa4"/><path d="m470 168.83h-71.68a.25.25 0 1 1 0-.49h71.68a.25.25 0 0 1 0 .49z" fill="#ffcaa4"/><path d="m350.6 170.36h-13.78a1.78 1.78 0 0 1 -1.78-1.78 1.78 1.78 0 0 1 1.78-1.78h13.78a1.78 1.78 0 0 1 1.78 1.78 1.78 1.78 0 0 1 -1.78 1.78z" fill="#fff"/><path d="m441 170.36h-13.75a1.78 1.78 0 0 1 -1.78-1.78 1.78 1.78 0 0 1 1.78-1.78h13.75a1.78 1.78 0 0 1 1.78 1.78 1.77 1.77 0 0 1 -1.78 1.78z" fill="#fff"/><path d="m189.38 135.56c-1.53-11.37-2.24-22.38 2.51-30.66l-2.26-1.21a5.66 5.66 0 0 0 -3.09 2.42l-11.06 22.26c1.65 1.63 7.09 4.31 13.9 7.19z" fill="#ea8577"/><path d="m147.18 82.94s10.52 20.9 5.58 22.5 11.93 0 11.93 0-14.87-22.35-17.51-22.5z" fill="#ea8577"/><path d="m147 68.34 3.31-6.55c-6.3-5.16-19.8-10.44-19.8-10.44s4.59 14.54 16.49 16.99z" fill="#ea8577"/><path d="m91 185.89c0-.84-32.44-67.31-23.43-69.61s29.07 0 29.07 0l31.36 67.94z" fill="#ffc339"/><path d="m123.81 210.81s-35.65-45.29-32.1-65.51 33.49-9.23 33.49-9.23l26.87 73.47z" fill="#ff9c40"/><path d="m96.62 189.19a.23.23 0 0 1 -.17-.07.26.26 0 0 1 -.07-.15c-.07-.25-1-2.25-2.26-5-7.06-15.41-25.82-56.34-22.31-63.7a2 2 0 0 1 1.32-1.15c9-2.29 29 0 29.16 0a.25.25 0 0 1 .2.14l31.36 67.94a.27.27 0 0 1 0 .23.24.24 0 0 1 -.2.12l-37 1.67zm-11.92-70.63a50.91 50.91 0 0 0 -11.45 1 1.54 1.54 0 0 0 -1 .89c-3.41 7.15 16 49.4 22.32 63.29 1.54 3.34 2.06 4.5 2.23 4.94l36.45-1.68-31.15-67.44c-1.16-.12-9.43-1-17.4-1z" fill="#503c6b"/><path d="m153.86 81.34 39 21.43c-5.23 3.4-9.23 21.69-10.53 34.87l-24.88-23.51z" fill="#9f6363"/><path d="m118.11 187.65s-21.44-44.65-31.33-81.5 1.72-37 10-37.84 23.84 3.69 23.84 3.69 27.49 32.95 34 32.95-11.57-29-11.57-29 18.1 5.37 31.55 26.55 8.66 30.29 9.69 39.21 18.83 45.93 18.83 45.93z" fill="#9f6363"/><path d="m136.13 46.05s1.57 15.19 12.6 19.62 14.92 3 16.34 1-.18-15.15-.18-15.15 5.37-.53 5.82-2.24c.27-1-6.24-15.39-6.24-15.39l-1.27-11s-.79-10.74-17.32-6.45-9.75 29.61-9.75 29.61z" fill="#f8a68b"/><path d="m124.79 127.83c4.61-7.64 6.33-15.06 3.83-16.57s-8.26 3.47-12.87 11.11-6.33 15.06-3.83 16.57 8.26-3.47 12.87-11.11z" fill="#6f3d47"/><path d="m140.8 38.05s13.21 4.41 18.36-2.24 1.46-11.18 1.46-11.18l-21.62 2.91z" fill="#ea8577"/><g clip-path="url(#a)" fill="#d4a488"><path d="m96.79 66.84a21.14 21.14 0 0 0 14.83 10.59.31.31 0 0 0 .38-.43 30.75 30.75 0 0 0 -6-7.73 29.81 29.81 0 0 0 -3.74-3c-.5-.34-1.17-.89-1.81-.64a.82.82 0 0 0 -.46 1.14c.17.35.7 0 .53-.31l.45-.24a1.76 1.76 0 0 1 .39.19l.42.28c.25.16.5.33.74.51q.83.58 1.62 1.23a31.09 31.09 0 0 1 2.78 2.6 30 30 0 0 1 4.53 6.26l.34-.45a20.56 20.56 0 0 1 -14.47-10.31c-.19-.34-.72 0-.53.31z"/><path d="m79.84 81.9a36.53 36.53 0 0 1 7.53.55 37 37 0 0 1 3.61.84 8.33 8.33 0 0 1 3.12 1.25c2.07 1.74-2.39 3.9-3.65 4.36a11.59 11.59 0 0 1 -6.44.47c-.38-.09-.55.51-.16.59 3.56.77 7.92-.09 10.56-2.76a2.27 2.27 0 0 0 .79-2.06 2.53 2.53 0 0 0 -1.43-1.54 16.79 16.79 0 0 0 -2.85-1c-1.12-.31-2.25-.57-3.39-.77a37.34 37.34 0 0 0 -7.69-.57.31.31 0 0 0 0 .61z"/><path d="m101.76 98a21.14 21.14 0 0 0 -1.29 3.34 16.23 16.23 0 0 0 -.52 4.1 11.07 11.07 0 0 0 .85 4.21c.43 1 1.23 2.19 2.43 2.27a2.59 2.59 0 0 0 2.32-1.86 15.22 15.22 0 0 0 1.11-4.3 17.15 17.15 0 0 0 0-4.47 9.23 9.23 0 0 0 -1.26-4.11 1.74 1.74 0 0 0 -2.62-.51 4.41 4.41 0 0 0 -1.37 2.52c0 .39.59.39.61 0a3.9 3.9 0 0 1 1-1.91c.28-.32.49-.51 1-.39a2.18 2.18 0 0 1 1.31 1.43 15.6 15.6 0 0 1 .8 7.11 16.52 16.52 0 0 1 -.82 3.67c-.31.89-.91 2.41-2.12 2.19s-1.77-1.69-2.08-2.67a10.8 10.8 0 0 1 -.5-3.61 15.12 15.12 0 0 1 .53-3.66 20.39 20.39 0 0 1 1.19-3c.16-.36-.37-.67-.53-.31z"/><path d="m103.31 154.1a8.77 8.77 0 0 1 1.11-5.06c.77-1.34 2.38-3.38 4.12-3.28 1.08.07 1.32 1.21 1.34 2.09a21.92 21.92 0 0 1 -.17 2.8 27 27 0 0 1 -1.34 5.75 26.69 26.69 0 0 1 -3 5.95c-.22.33.32.63.53.31a27.56 27.56 0 0 0 4.47-12.76c.12-1.47.5-4.17-1.43-4.69s-3.58 1.37-4.52 2.66a9.27 9.27 0 0 0 -1.75 6.23c0 .39.64.4.61 0z"/><path d="m144.9 159.58a14.14 14.14 0 0 1 -9.23 8.21 20.41 20.41 0 0 1 -6.78.84 9.28 9.28 0 0 1 -6-2c-3-2.74-2.65-7.64-1.11-11.05a11.45 11.45 0 0 1 8.86-6.95 9.63 9.63 0 0 1 6.35 1.41 6.14 6.14 0 0 1 2.34 2.53 2.55 2.55 0 0 1 -.79 3.27c-.34.2 0 .74.31.53 1.9-1.14 1.57-3.62.37-5.14a9 9 0 0 0 -5.5-3.11 11.29 11.29 0 0 0 -11.12 4.88c-2.39 3.36-3.56 8.31-1.59 12.14 2.26 4.41 8.12 4.54 12.38 3.82 5.26-.89 10.18-4.09 12.1-9.21.14-.38-.45-.54-.59-.17z"/><path d="m131.5 188.86a35.86 35.86 0 0 1 9-9 27.67 27.67 0 0 1 5.61-3.16 5.32 5.32 0 0 1 3.51-.34 3.84 3.84 0 0 1 2.13 1.93c1.25 2.41.29 5.16-.56 7.53-.13.38.46.54.59.17.81-2.26 1.66-4.76.87-7.14a4.46 4.46 0 0 0 -4.41-3.27c-2.33.11-4.61 1.55-6.55 2.76a37.23 37.23 0 0 0 -5.54 4.23 36.42 36.42 0 0 0 -5.16 5.93c-.23.33.3.64.53.31z"/><path d="m192.78 150.91a17 17 0 0 1 -8.45-.06c-2.55-.67-5.35-2-7-4.15s-1.59-5.38.91-6.88c2.16-1.29 5.05-1.18 7.42-.63a14.62 14.62 0 0 1 7.52 4.42c.26.29.7-.15.43-.44a15.21 15.21 0 0 0 -7.31-4.45c-2.55-.68-5.57-.85-8 .37a5 5 0 0 0 -2.26 6.59c1.11 2.67 3.88 4.29 6.47 5.26a17.65 17.65 0 0 0 10.37.56c.38-.09.22-.68-.16-.59z"/><path d="m154.21 79.76a35.8 35.8 0 0 1 1.6 5.57c.19 1 .35 2 .46 3a7.15 7.15 0 0 0 .4 2.25 1.71 1.71 0 0 0 3 .52 16.68 16.68 0 0 0 1.41-2.19c.49-.82.95-1.66 1.38-2.51.18-.35-.35-.66-.53-.31a43 43 0 0 1 -2.31 4c-.47.72-1.2 1.57-2 .73a3.5 3.5 0 0 1 -.65-2.17 35.33 35.33 0 0 0 -2.11-9.06c-.14-.37-.73-.21-.59.16z"/><path d="m171.1 98a27 27 0 0 0 -4.42 11.52c-.17 1.25-.58 3.72 1.28 3.91a4.3 4.3 0 0 0 2.5-1l3.11-1.92 7.06-4.37a.31.31 0 0 0 -.31-.53c-3.6 2.23-7.18 4.49-10.8 6.68-.8.48-2 .95-2.33-.3a7.23 7.23 0 0 1 .13-2.66 26.24 26.24 0 0 1 4.31-11c.22-.33-.31-.64-.53-.31z"/><path d="m154.83 119.37a17.89 17.89 0 0 0 2 8.84c1.13 2.33 3.27 5.78 6.31 5.4a2.73 2.73 0 0 0 2.44-2.52c.16-1.59-.75-3.11-1.44-4.48-1.46-2.86-3.23-5.73-5.93-7.57a2.91 2.91 0 0 0 -2.24-.64 1.48 1.48 0 0 0 -1.14 1.1 8.51 8.51 0 0 0 .2 2.75c.06.39.65.23.59-.16a14.6 14.6 0 0 1 -.2-2c0-.54.09-1 .71-1.11a2.77 2.77 0 0 1 2.09.8 18.3 18.3 0 0 1 5 6.41 12.55 12.55 0 0 1 1.73 4.12 2.26 2.26 0 0 1 -2.35 2.69 4.88 4.88 0 0 1 -3.41-2.13 15.15 15.15 0 0 1 -2-3.16 17.31 17.31 0 0 1 -1.79-8.36c0-.39-.59-.39-.61 0z"/><path d="m132.08 118.14a11.43 11.43 0 0 1 .77-5.3 9.66 9.66 0 0 1 3.3-4.43 2.3 2.3 0 0 1 2.6-.29 3.33 3.33 0 0 1 1 2.41 43.57 43.57 0 0 1 .15 6.46 46.16 46.16 0 0 1 -1 7.41l.51-.13-.76-.7c-.29-.27-.73.16-.43.43l.76.7a.31.31 0 0 0 .51-.14 45.55 45.55 0 0 0 1-7.45 33.91 33.91 0 0 0 -.22-7.26 3.35 3.35 0 0 0 -1.13-2.21 2.43 2.43 0 0 0 -2.32-.25c-1.8.64-3.14 2.44-4 4.08a12.06 12.06 0 0 0 -1.34 6.67c0 .39.65.39.61 0z"/><path d="m124.74 89.35a34.89 34.89 0 0 0 2.15 7 8.49 8.49 0 0 0 1.55 2.81 1.72 1.72 0 0 0 2.18.32 3 3 0 0 0 .82-2.35 11.33 11.33 0 0 0 -.31-3.23 14.81 14.81 0 0 0 -1.13-3.17 11.12 11.12 0 0 0 -1.85-2.73 2.35 2.35 0 0 0 -2.6-.69 1.44 1.44 0 0 0 -.59 2.12c.23.31.77 0 .53-.31a.84.84 0 0 1 .45-1.31 1.74 1.74 0 0 1 1.64.49 9.26 9.26 0 0 1 1.8 2.69 12.3 12.3 0 0 1 1.44 6.37 2.83 2.83 0 0 1 -.35 1.43 1 1 0 0 1 -1.6 0 9 9 0 0 1 -1.58-3 33.76 33.76 0 0 1 -2-6.52c-.07-.39-.66-.22-.59.16z"/><path d="m171 162.71a37 37 0 0 1 .25-6.49c.14-1.12.34-2.24.59-3.34.18-.77.48-2.51 1.65-1.72a8.21 8.21 0 0 1 1.79 2.22 26.84 26.84 0 0 1 3.66 8 .31.31 0 0 0 .59-.16 27.39 27.39 0 0 0 -4.68-9.44c-.69-.89-2-2.15-3-.83a5.51 5.51 0 0 0 -.7 2.14c-.21 1-.38 1.93-.51 2.9a37.25 37.25 0 0 0 -.28 6.76c0 .39.63.39.61 0z"/></g><path d="m161.5 54c-.78-1.25-5.94-1.34-9.45-3.3 0 0 2.28 5.85 6.24 7.41s3.99-2.84 3.21-4.11z" fill="#fff"/><path d="m120 184.17c19.9-6.36 42.39-8.27 66.52-7.37l9.68 25-64 20.41z" fill="#ffd9b8"/><path d="m151.21 45.14c-.11 1.35-2 2.3-4.27 2.11s-4-1.42-3.88-2.76 2-2.3 4.27-2.12 3.99 1.42 3.88 2.77z" fill="#ea8577"/><path d="m161 61c-.08.5-1.16.74-2.43.55s-2.22-.76-2.15-1.26 1.1-.29 2.36-.1 2.33.34 2.22.81z" fill="#ea8577"/><path d="m170.71 49.22c.13.51-1.25 1.31-3.1 1.79s-3.44.45-3.57-.06 1.18-.86 3-1.33 3.54-.91 3.67-.4z" fill="#ea8577"/><path d="m111.38 132s29.27 38.5 55.2 48.54 69.23 4.51 72.63 1.66-5.63-17.38-5.63-17.38 1.34-4.14.48-5-7.13-2.62-9-1.58-5.78 5.52-5.78 5.52a8.52 8.52 0 0 0 -4.36 1.18c-2.21 1.29-3.81 8.48-3.81 8.48s-16.26-9-24.62-12.59a55.54 55.54 0 0 0 -14.22-4.24l-42.61-47.14c-10.8 4.05-16.34 15.06-18.28 22.55z" fill="#f8a68b"/><path d="m168.41 177.9c1.5-2.76-.22-6.57-3.83-8.53s-7.74-1.31-9.23 1.45a4.75 4.75 0 0 0 -.36 3.5 63.69 63.69 0 0 0 10.58 5.83 4.84 4.84 0 0 0 2.84-2.25z" fill="#ea8577"/><path d="m111.63 138.51a.23.23 0 0 1 -.2-.11l-12.67-19.27a.25.25 0 0 1 .07-.34.25.25 0 0 1 .34.07l12.67 19.27a.25.25 0 0 1 -.07.34.23.23 0 0 1 -.14.04z" fill="#6f3d47"/><path d="m186.16 149.12a.25.25 0 0 1 -.24-.16c-2.13-6-2.42-12.71-2.19-21-.29-13.41-13.78-31.68-13.92-31.87a.24.24 0 0 1 .05-.34.25.25 0 0 1 .35.05c.13.18 13.72 18.58 14 32.16-.23 8.28.06 15 2.17 20.87a.24.24 0 0 1 -.15.31z" fill="#6f3d47"/><path d="m117.29 71.14-.77-.2c1.94 2.52 8.58 11 16 19.28 11 12.23 18.66 18.41 22.87 18.41a3.7 3.7 0 0 0 .9-.11 3.27 3.27 0 0 0 2.36-2.07c2.33-5.85-6.59-21.87-10.45-28.35l-.81-.39c3.53 5.91 13.11 22.79 10.81 28.56a2.8 2.8 0 0 1 -2 1.77c-8.2 2.07-33.69-30.15-38.91-36.9z" fill="#6f3d47"/><path d="m111.38 132s1.29 1.69 3.56 4.46c1.31-8.1 6.47-17.15 14.32-26.86-10.54 4.19-15.96 15.01-17.88 22.4z" fill="#ea8577"/><path d="m233.58 164.84-3.68-3.71s2.75-.89 3.55 0 .13 3.71.13 3.71z" fill="#ea8577"/><path d="m133.62 77.15c2.86 1.79 5.15 2.21 6.53.41a1.92 1.92 0 0 1 -1.79 2.71c-2.67.23-4.74-3.12-4.74-3.12z" fill="#ea8577"/><path d="m219.29 163.76-4.76 5.62s-.05-3.32 1.47-4.54a5.11 5.11 0 0 1 3.29-1.08z" fill="#ea8577"/><path d="m183.61 103.24a6.68 6.68 0 0 1 -3.71-4.24 4 4 0 0 1 .57-3l-.53-.29a5 5 0 0 0 0 5.08c1.83 3.12 5.54 3.9 8.73 4.89.48.14 1 .3 1.42.48l.32-.52c-2.23-.89-4.68-1.32-6.8-2.4z" fill="#d4a488"/><path d="m129.68 109.45-16.78-21.45a.25.25 0 0 0 -.35-.05.26.26 0 0 0 0 .35l16.68 21.32z" fill="#6f3d47"/><path d="m196 236.1h83s-1.35 23.47-38.72 23.47-44.28-23.47-44.28-23.47z" fill="#ff9c40"/><path d="m281.18 251.81c0 4.29-17.25 7.76-38.55 7.76s-38.55-3.47-38.55-7.76 17.26.57 38.55.57 38.55-4.86 38.55-.57z" fill="#ffc339"/><path d="m141.84 190.65s143-27.92 153.77-26.86-53.6 68.79-96.44 75.14-57.33-48.28-57.33-48.28z" fill="#ffeddd"/><path d="m296.42 164.09 89 91.82s-31 38.94-31 38.13-87.84-93.87-87.84-93.87z" fill="#ffeddd"/><path d="m296.42 164.09 89 91.82s-31 38.94-31 38.13-87.84-93.87-87.84-93.87z" fill="#ffeddd"/><path d="m170.86 213.52 62.98-7.55-34.87-6.57 94.47-9.04-94.47 51.49z" fill="#ffd9b8"/><path d="m293.44 190.36-26.3 11.13c23.65 25.09 84.4 88.87 87.16 92.37l-37-54.42 50.09 39 .16-.2-53.44-57.5 54.55 24.88z" fill="#ffd9b8"/><path d="m296.81 195.06c7.83 13.13 40.92 124.52 40.92 124.52l-43 21.8-33.62-97.38s-40.22 13.12-69 .42 96.89-62.48 104.7-49.36z" fill="#ffeddd"/><path d="m417.7 326.41s-15.48-14.92-19.7-28.41c8.39-1.66 10.58-8.58 9.77-18.07 20.12-14 39.73-24.77 58-27.49z" fill="#9f6363"/><path d="m314.35 379.74s4.14-19.6 8.38-24.63c10.19 4.47 18 2.28 23.06-7.53 28.67 9.95 70.07 17.79 71.91 32.16z" fill="#9f6363"/><path d="m90.1 382.26 53.26-130.4a1.47 1.47 0 1 1 2.72 1.11l-53.15 130.17s-3.14-.14-2.83-.88z" fill="#3e2e53"/><path d="m245.14 383.19-33-127.11a1.47 1.47 0 0 1 2.85-.74l33 127.11c.21.78-2.85.74-2.85.74z" fill="#3e2e53"/><path d="m222.63 295.73h-94.77a1.47 1.47 0 1 1 0-2.94h94.77a1.47 1.47 0 1 1 0 2.94z" fill="#3e2e53"/><path d="m371.91 273.08a.23.23 0 0 1 -.2-.1c-.61-.82-61-82.45-79.86-86.85s-122.87 26.73-123.91 27a.24.24 0 0 1 -.31-.16.25.25 0 0 1 .16-.31c1.05-.32 105.14-31.48 124.17-27 8 1.87 23.94 17.09 47.33 45.23 17.41 20.94 32.67 41.61 32.82 41.81a.25.25 0 0 1 -.05.34.23.23 0 0 1 -.15.04z" fill="#e29570"/><path d="m308.78 334.27-31.6-71.39 55 58.33-65.59-85.11 25-16.38-38 10.44 25.41-21.67-51.68 23 13.85-12.66-42.17 16.05 13.12 14.59c24.46 2.55 49-5.46 49-5.46l33.65 97.37-3.2-25.76z" fill="#ffd9b8"/><path d="m417.7 326.41 3.66 2.18 46.93-73.22-2.52-2.95z" fill="#ffd9b8"/><path d="m314.35 379.74h103.35v3.08h-103.35z" fill="#ffd9b8"/><path d="m269.44 217.78c-6.3-5.52-45.05 12.23-70.6 27.15a.25.25 0 0 0 -.08.34.23.23 0 0 0 .33.09c24.78-14.48 64-32.5 70-27.21s44.18 112.51 44.57 113.6l.43-.22c-1.66-4.77-38.46-108.33-44.65-113.75z" fill="#e29570"/><path d="m10.73 382.33h571.11v.98h-571.11z" fill="#3e2e53"/><path d="m87.35 177.67 15.65 35.05a79.18 79.18 0 0 0 70.84 46l66.36.87s-17.38-2.74-35.67-31.7-60.78-57.84-117.18-50.22z" fill="#ffc339"/><path d="m206.3 241.22a335.35 335.35 0 0 0 -24.3-29.59c-16.58-17.85-41.44-24.77-59.38-27.43a173.74 173.74 0 0 0 -33.09-1.66l.21.48a174.07 174.07 0 0 1 32.82 1.67c32.35 4.8 50 17.48 59.08 27.28a333.54 333.54 0 0 1 24.27 29.54c6 8 10.36 13.85 15.55 17.81h.86c-5.4-3.92-9.86-9.87-16.02-18.1z" fill="#3e2e53"/><path d="m160.66 34.73s-7.58 1.42-7.72 2.46 7.51 2.11 7.51 2.11.74-3.17.21-4.57z" fill="#fff"/><path d="m153.06 37.79a.22.22 0 0 1 -.13 0 .25.25 0 0 1 -.08-.34c1.85-2.86 8.36-2.95 8.64-2.95a.25.25 0 0 1 0 .49c-.07 0-6.52.09-8.22 2.73a.26.26 0 0 1 -.21.07z" fill="#503c6b"/><path d="m160.66 34.73s-.84.16-2 .41a6 6 0 0 0 -.13 1.24 4.11 4.11 0 0 0 .83 2.75l1.06.17s.77-3.17.24-4.57z" fill="#503c6b"/><path d="m161.22 39.82h-.05l-9-2a.25.25 0 0 1 -.19-.3.24.24 0 0 1 .29-.18l9 2a.24.24 0 0 1 .19.29.26.26 0 0 1 -.24.19z" fill="#ea8577"/><path d="m109.27 20.74c-1.17 5.68-4.85 10.36-6.63 15.82a16 16 0 0 0 -.75 7.95 11.87 11.87 0 0 0 10.75 9.56c.39 0 .49-.58.09-.61a11.37 11.37 0 0 1 -10.25-9.13c-1-5.39 1.81-10.5 4.15-15.13a33.31 33.31 0 0 0 3.24-8.37c.08-.38-.52-.48-.6-.09z" fill="#503c6b"/><path d="m134.14 11.32a9.58 9.58 0 0 0 -7.81-4 15.88 15.88 0 0 0 -9.45 3.33c-1.45 1-2.83 2.5-2.88 4.39 0 .39.59.49.6.1.06-2.14 1.9-3.57 3.56-4.62a16.63 16.63 0 0 1 5.56-2.34c3.64-.74 7.77.28 9.92 3.5.22.33.72 0 .5-.36z" fill="#503c6b"/><path d="m133.28 10c2.33 20.49 4.57 44 10.48 50.5-.91 2.93-17 1.32-32.15-6.35s-4.66-38.07 5.58-42.9 16.09-1.25 16.09-1.25z" fill="#503c6b"/><path d="m136.75 50.17c-1.66 2.75-30.52-4.68-23.85-28.32 5.22-15.85 20.38-11.85 20.38-11.85s14.08-14 28.24-7.37 13.48 21.86 10.77 27.6-6.16 6.24-6.16 6.24 1.1-4.95-2-8.61-3.72-3.26-3.72-3.26 2.45 4.23-.76 9.44-15.39 2.83-15.39 2.83l3.52-1.63a28.32 28.32 0 0 1 -8.73-2.42c-4.35 6.64-4.63 10.78-2.3 17.35z" fill="#503c6b"/><path d="m115.67 43.09c-6.86-1-10-4.74-11.32-8.46-1.15 8.19.51 16.13 7.26 19.56 15.13 7.67 31.24 9.28 32.15 6.35-3.17-3.47-5.29-11.88-6.93-22.1a31.24 31.24 0 0 1 -21.16 4.65z" fill="#44335b"/><rect fill="#ffc339" height="18.58" rx="6.28" transform="matrix(.97 -.25 .25 .97 -6.27 35.11)" width="15.75" x="126.62" y="32.86"/><path d="m131.48 51a2.24 2.24 0 0 1 -.84-.3 2.36 2.36 0 0 1 -1.09-1.45l-2.46-9.49a2.34 2.34 0 0 1 .25-1.79 2.36 2.36 0 0 1 1.45-1.1l6.26-1.62a2.35 2.35 0 0 1 1.8.25 2.29 2.29 0 0 1 1.09 1.5l2.47 9.49a2.38 2.38 0 0 1 -1.7 2.89l-6.27 1.62a2.39 2.39 0 0 1 -.96 0zm4.46-15.32a2.16 2.16 0 0 0 -.76 0l-6.27 1.63a1.88 1.88 0 0 0 -1.15.86 1.93 1.93 0 0 0 -.2 1.43l2.44 9.56a1.87 1.87 0 0 0 2.29 1.35l6.26-1.62a1.88 1.88 0 0 0 1.35-2.3l-2.46-9.49a1.87 1.87 0 0 0 -.84-1.1 2 2 0 0 0 -.66-.29z" fill="#503c6b"/><path d="m131.56 34.39a.73.73 0 0 1 -.61-.59s-1.07-5.62-1.64-11.66c-.79-8.27-.34-13.47 1.35-15.47 1.06-1.26 2.18-1.78 3.31-1.54a4.52 4.52 0 0 1 2.61 2.14l-1.17.91a3.25 3.25 0 0 0 -1.74-1.61c-.56-.12-1.2.24-1.88 1-2.89 3.42-.55 19.86.6 25.91a.73.73 0 0 1 -.58.86z" fill="#ffc339"/><path d="m129.08 39.33a31.11 31.11 0 0 0 1.3 4.32.31.31 0 0 0 .57-.22 29 29 0 0 1 -1.26-4.17.32.32 0 0 0 -.34-.27.31.31 0 0 0 -.27.34z" fill="#fff"/><path d="m131 45.56.39 1.52a.31.31 0 1 0 .57-.22l-.39-1.53a.26.26 0 0 0 -.15-.16.33.33 0 0 0 -.24 0 .32.32 0 0 0 -.18.4z" fill="#fff"/><path d="m132.6 11.48a23.65 23.65 0 0 1 8.54-8.38c3.79-2.17 8.86-3.74 12.86-1.2.33.21.72-.27.39-.48-3.21-2-7.12-1.65-10.51-.32a24.19 24.19 0 0 0 -11.88 10.13c-.21.34.36.59.56.25z" fill="#503c6b"/><path d="m318.17 255.48a.26.26 0 0 1 -.23-.17l-15.95-48a.25.25 0 0 1 .16-.31.25.25 0 0 1 .31.15l16 48a.26.26 0 0 1 -.16.32z" fill="#e29570"/><path d="m429.1 115.38h34.79v30.18h-34.79z" fill="#ffc339" transform="matrix(0 1 -1 0 576.96 -316.02)"/><path d="m434.86 125.43h34.79v10.08h-34.79z" fill="#ff9c40" transform="matrix(0 1 -1 0 582.73 -321.78)"/><path d="m419.87 128.91h34.79v3.13h-34.79z" fill="#fff" transform="matrix(0 1 -1 0 567.74 -306.79)"/><path d="m465 146.81h-4a2.46 2.46 0 1 1 0-4.91h4a10.68 10.68 0 1 0 0-21.36h-5a2.46 2.46 0 1 1 0-4.91h5a15.59 15.59 0 0 1 0 31.18z" fill="#ffc339"/><path d="m259.11 144.61h51.05v3.26h-51.05z" fill="#ffc339"/><path d="m251.24 38.79a.2.2 0 0 1 -.15-.06.24.24 0 0 1 -.05-.34l9-11.69a.23.23 0 0 1 .34 0 .24.24 0 0 1 .05.34l-9 11.69a.26.26 0 0 1 -.19.06z" fill="#503c6b"/><path d="m257.7 37.2a.22.22 0 0 1 -.21-.12.25.25 0 0 1 .09-.34l7.63-4.27a.25.25 0 0 1 .34.09.25.25 0 0 1 -.1.34l-7.63 4.27a.27.27 0 0 1 -.12.03z" fill="#503c6b"/><path d="m418.26 17.76a.24.24 0 0 1 -.22-.26l.64-7.59a.26.26 0 0 1 .27-.22.24.24 0 0 1 .22.26l-.64 7.59a.26.26 0 0 1 -.27.22z" fill="#503c6b"/><path d="m427 23.79a.25.25 0 0 1 -.23-.15.25.25 0 0 1 .13-.32l9-3.87a.24.24 0 1 1 .19.45l-9 3.87a.18.18 0 0 1 -.09.02z" fill="#503c6b"/><path d="m421.77 21.86h-.12a.26.26 0 0 1 -.1-.34l9-15.79a.25.25 0 0 1 .34-.09.23.23 0 0 1 .09.33l-9 15.79a.24.24 0 0 1 -.21.1z" fill="#503c6b"/><g fill="#ffd9b8"><path d="m357.07 362.65c1.22-3.45 2.61-6.83 4.14-10.15l-.59-.18q-2.3 5-4.15 10.17c-.13.37.46.51.6.16z"/><path d="m319.68 360.94a20.52 20.52 0 0 0 13.44 2.58 31.74 31.74 0 0 0 9.26-2.83 27 27 0 0 0 7.63-5.17 18.87 18.87 0 0 0 3.78-5.3l-.59-.19c-2.06 4.25-5.88 7.47-10.08 9.62-5.4 2.76-11.76 4.37-17.78 3a18 18 0 0 1 -5.43-2.24c-.07.15-.15.34-.23.53z"/><path d="m379.32 366.77c.61-2.75 1.36-5.47 2.21-8.16l-.58-.18c-.86 2.69-1.61 5.42-2.23 8.18-.08.39.51.54.6.16z"/><path d="m370.91 367.05c.71-3.66 1.59-7.29 2.59-10.89l-.59-.17c-1 3.59-1.88 7.23-2.59 10.9-.07.38.52.55.59.16z"/><path d="m364.18 365.18a63.31 63.31 0 0 1 3.18-10.85l-.58-.17a64.12 64.12 0 0 0 -3.2 10.86c-.07.38.52.55.6.16z"/><path d="m439.31 267.82c.21.34.74 0 .53-.31a23 23 0 0 1 -2.47-5.53l-.56.28a23.74 23.74 0 0 0 2.5 5.56z"/><path d="m413.3 286.67c-1.08 6.29-4.18 12.33-9.58 15.95a19 19 0 0 1 -3.07 1.67l.3.54a20.9 20.9 0 0 0 8.68-7.21c4-5.74 5.17-13 4.61-19.84-.05-.71-.13-1.42-.22-2.12l-.58.38a36.08 36.08 0 0 1 -.14 10.63z"/><path d="m424 279.87c-1-2.94-1.88-5.91-2.69-8.9l-.54.33q1.19 4.41 2.63 8.73c.14.38.73.22.6-.16z"/><path d="m428.18 277.06c.14.37.73.21.59-.16a65.16 65.16 0 0 1 -2.57-8.9l-.56.33a63.76 63.76 0 0 0 2.54 8.73z"/><path d="m434.2 272.14c.14.37.73.21.59-.16q-1.35-3.66-2.44-7.41l-.55.3c.72 2.45 1.51 4.88 2.4 7.27z"/></g></svg>