<svg viewBox="0 0 149.79 148.49" xmlns="http://www.w3.org/2000/svg"><path d="m46.61 101.23a24.18 24.18 0 0 1 -3.2.49c-2.5.27-6.12.55-10 .75-3.7.19-7.61.3-11 .25h-.88c-3.13-.08-5.54-.21-7.35-.34-.71-.06-1.33-.11-1.87-.17-2.07-.2-2.88-.37-2.88-.37-.43-2.14 3.85-28.29 5.21-32.93s6.24-11.35 6.24-11.35c0-.7.11-1.49.2-2.35.21-2.06.53-4.47.84-6.69.53-3.73 1.08-6.92 1.08-6.92 8.87.26 12.89-.82 12.9-.83s.41.87.89 2c.73 1.7 1.61 4 1.43 4.68a9.07 9.07 0 0 1 -1.92 2.81l-.4.42c.14 1.94 2.56 18.52 4.44 25s6.27 25.55 6.27 25.55z" fill="#a6ddeb"/><path d="m38.2 47.45a9.07 9.07 0 0 1 -1.92 2.81c-2.53.8-2.91.06-2.91.06 3.55-1 3.47-6.37 3.4-7.55.73 1.7 1.61 3.97 1.43 4.68z" fill="#66c8ce"/><path d="m26.89 50.32s-2 2.43-4.44 1.34c0 0-.22 6.42-.7 7.63a84.67 84.67 0 0 0 -6.7 21.71c-1.64 9.45-2.41 17.54-2.7 21.16-2.07-.2-2.88-.37-2.88-.37-.47-2.09 3.81-28.24 5.17-32.88s6.24-11.35 6.24-11.35c0-.7.11-1.49.2-2.35.21-2.06.53-4.47.84-6.69a5.87 5.87 0 0 0 4.97 1.8z" fill="#66c8ce"/><path d="m16.05 66.08s-.42 1.65-1 1.82-3.71-2.9-7.59-6.9a79.46 79.46 0 0 1 -7.46-9.14c.88-3.11 8.64-12.4 8.64-12.4a12.5 12.5 0 0 1 3.47 2.94 15.06 15.06 0 0 1 .9 1.22 7.86 7.86 0 0 1 1.21 2.54 28.13 28.13 0 0 1 -5.74 5.11s2.73 4.78 4.26 7.6a0 0 0 0 1 0 0l.18.33a71.64 71.64 0 0 1 3.13 6.88z" fill="#f1b5ab"/><path d="m35.88 40.77a19.47 19.47 0 0 1 -2.34.42l-.46.06a65.16 65.16 0 0 1 -8.26.39h-.47l-1.35-.04s-.53 3.21-1.07 7c-.28 2-.55 4.08-.76 6 0 .23 0 .45-.07.67 0-.14-.07-.29-.11-.46-1-4.42-3-12.7-3-12.7a48.69 48.69 0 0 1 -3.75 4.11s-.43-1-1.05-2.12a15.34 15.34 0 0 0 -1.06-1.64 12.6 12.6 0 0 0 -3.63-2.75c.42-.5 5.86-7.83 8.48-9.42a37.36 37.36 0 0 1 4-2l.44-.2a23.44 23.44 0 0 1 3.83-1.35s2.39.19 3.57.42a8.92 8.92 0 0 1 1.28.35c.17.06.35.13.52.21a4.15 4.15 0 0 1 2 1.68c.85 1.48 1.46 1.69 1.55 3.76a53.49 53.49 0 0 0 1.71 7.61z" fill="#235daa"/><path d="m24.82 41.64a.23.23 0 0 1 -.18.22h-.05a.23.23 0 0 1 -.23-.18v-.06l-3.36-13.43.44-.2 3.42 13.58z" fill="#90d6e9"/><path d="m36.79 22.53c-1.59 1.65-4.71 2.12-7.44 1.31-.25-.08-.51-.16-.75-.26l-.39-.17a11.5 11.5 0 0 1 -4.21-3.67c-.37-.51-.57-.85-.57-.85a2.17 2.17 0 0 1 -1.43-.55c-1.51-1.34-1.54-4.76-.31-5.34 1.52-.71 1.76 1.18 1.76 1.18a14.11 14.11 0 0 1 2-4.72c.13-.16.25-.31.39-.46 1.32-1.33 3.36-3.2 4.16-3.91.2-.2.33-.31.33-.31 4.52 1 6.11.35 6.11.35s.06.17.15.46c0 .13.1.29.16.48.57 1.65 1.72 5.12 2.34 7.18.81 2.75-.47 7.4-2.3 9.28z" fill="#f1b5ab"/><path d="m21.33 117.75c-.29 7.4 0 29 0 29h-1.41c-.17 0-7.4-24-7.69-29.79a16.89 16.89 0 0 1 3.17-10.22l-1.18-4.4 1.85.12c1.52.08 3.33.16 5.5.22h.88c-.21 2.06-.87 8.85-1.12 15.07z" fill="#263b7f"/><path d="m52.78 145.19-1.64.34h-.06s-5.88-9.8-9.17-14.53-6.59-10.58-7.12-14.93.77-10.17.77-10.17l-2.14-3.46 2.87-.16c2.75-.18 5.25-.39 7.12-.59.33 2.16 1.5 9.81 2.55 16.14 1.23 7.5 6.82 27.36 6.82 27.36z" fill="#263b7f"/><path d="m20.81 66.32c-.42.23-2.18-1.06-3.47-.65 0 0 2.35 1.23 2.06 1.94s-2.25-.3-2.77-.58c.4.35 1.56 1.86 1.3 2.22s-2.18-1.34-2.18-1.34.77 1.58.3 2-1-2.06-1-2.06a11.3 11.3 0 0 1 1-1.82c.67-.9 1.52-2.41 2.52-2s2.66 2.05 2.24 2.29z" fill="#f1b5ab"/><path d="m47.9 51.92c-.28 2.58-1.28 3.74-2.76 4a6 6 0 0 1 -2.41-.14c-2.73-.63-3.82-4.27-4.73-7.78s-3.24-10.76-3.65-13.46a18.59 18.59 0 0 1 -.23-4.35 2.2 2.2 0 0 1 -1.12-.43.17.17 0 0 1 -.08-.12c0-.23.47-.49.91-.68-.69.24-1.73.54-2 .27s1.58-2 1.69-2.05c-.12 0-2.35 1-2.64.7s2-1.7 2.27-1.87c-.29.12-2.84 1.2-3.1.75s2.51-2.18 3.42-2.53a1.74 1.74 0 0 1 1.7.54s1.3-.24 1.24.76a1.84 1.84 0 0 1 .94 1.94 12.89 12.89 0 0 1 -.88 2.76c.11.18 5.23 8.17 7.4 11.28s4.44 6.59 4.03 10.41z" fill="#f1b5ab"/><path d="m51.07 145.54.65 1.83h7.94s-3.94-4.12-8.59-1.83z" fill="#d24c27"/><path d="m29.35 23.84-.1 1.42-.25 3.32c-1.29.65-3.76-1-3.76-1.58 0-.27-.26-1.79-.54-3.37-.34-1.9-.71-3.89-.71-3.89a11.5 11.5 0 0 0 4.19 3.67 9.2 9.2 0 0 0 1.17.43z" fill="#f1b5ab"/><path d="m39.85 3.49a.28.28 0 0 1 0 .09c-.07 1.16-1.68 1.9-3.25 2-.09-.29-.15-.46-.15-.46s-1.59.65-6.11-.35c0 0-2.82 2.53-4.47 4.23a10.36 10.36 0 0 0 -2 3.7c-.28.86-.42 1.48-.42 1.48s-.2-1.64-1.47-1.29a2.12 2.12 0 0 0 -.29.11c-.63.29-.92 1.3-.86 2.42a4.58 4.58 0 0 0 .78 2.43 2.83 2.83 0 0 0 .43.48 9.32 9.32 0 0 0 -.58 1.4c-1.12 3.2 2.35 5.91 4.17 7.61 1.38 1.3 2.74 4.41 1.87 6.75a3.75 3.75 0 0 1 -1.5 1.91 7 7 0 0 1 -6.29.77c1.82-1.41.65-4.59-1.94-6.06s-3.77-2.6-3.84-6.55 4.64-7.16 4.64-7.16l1.27-2.46s0 0 0 0v-.06l.62-1.2c-.32-1.52-1.11-5.36.3-8.47s5.63-5.26 11.15-4.73 7.94 2.06 7.94 3.41z" fill="#721813"/><path d="m23.87 12.71c-.28.86-.42 1.48-.42 1.48s-.24-1.89-1.76-1.19c-1.1.51-1.19 3.31-.08 4.85-1.18-.69-2.49-1.84-1.77-3.31v-.06a3.55 3.55 0 0 1 4.03-1.77z" fill="#983222"/><path d="m33.54 41.17s0 0 0 0a.22.22 0 0 1 -.18.26.23.23 0 0 1 -.23-.18l-3-13.84c.17.06.35.13.52.21z" fill="#90d6e9"/><path d="m8.48 51.27s2.73 4.78 4.26 7.6a87.38 87.38 0 0 0 -5.57-6.87c1.66-1.23 4.68-6.35 5.84-8.42a7.86 7.86 0 0 1 1.21 2.54 28.13 28.13 0 0 1 -5.74 5.15z" fill="#f5948d"/><path d="m20.81 66.32c-.42.23-2.18-1.06-3.47-.65 0 0 2.35 1.23 2.06 1.94s-2.25-.3-2.77-.58c.4.35 1.56 1.86 1.3 2.22s-2.18-1.34-2.18-1.34.77 1.58.3 2-1-2.06-1-2.06a11.3 11.3 0 0 1 1-1.82c.67-.9 1.52-2.41 2.52-2s2.66 2.05 2.24 2.29z" fill="#f5948d"/><path d="m45.14 55.94a6 6 0 0 1 -2.41-.14c-2.73-.65-3.82-4.29-4.73-7.8s-3.24-10.76-3.65-13.46a18.59 18.59 0 0 1 -.23-4.35 2.2 2.2 0 0 1 -1.12-.43.17.17 0 0 1 -.08-.12 2.68 2.68 0 0 0 2.56-.56 16 16 0 0 0 0 6.19c.66 3.4 3 8.61 5.48 12.47a53.79 53.79 0 0 1 4.18 8.2z" fill="#f5948d"/><path d="m29.35 23.84-.1 1.42a7.58 7.58 0 0 1 -4.52-1.63c-.34-1.9-.71-3.89-.71-3.89a11.5 11.5 0 0 0 4.19 3.67 9.2 9.2 0 0 0 1.14.43z" fill="#f5948d"/><path d="m28.6 23.58-.39-.17a11.5 11.5 0 0 1 -4.21-3.67c-.37-.51-.57-.85-.57-.85a2.17 2.17 0 0 1 -1.43-.55c-1.51-1.34-1.54-4.76-.31-5.34 1.52-.71 1.76 1.18 1.76 1.18a14.11 14.11 0 0 1 2-4.72 13.59 13.59 0 0 0 -.43 8.2 12.54 12.54 0 0 0 3.58 5.92z" fill="#f5948d"/><path d="m36.75 6.07a18.39 18.39 0 0 1 -6.75-1c.2-.2.33-.31.33-.31 4.52 1 6.11.35 6.11.35s.06.17.15.46c.05.15.1.31.16.5z" fill="#f5948d"/><path d="m32.9 17.41h-.38a.12.12 0 0 1 -.12-.12.13.13 0 0 1 .13-.12 4.17 4.17 0 0 0 2.47-.43 33.84 33.84 0 0 1 -1.61-4.87.11.11 0 0 1 .12-.11.1.1 0 0 1 .11.11 33.94 33.94 0 0 0 1.63 4.84.12.12 0 0 1 0 .14s-.48.56-2.35.56z" fill="#983222"/><path d="m25.63 10.94a4.12 4.12 0 0 1 4.78-1.68s-.25.37-2.39.87-2.39.81-2.39.81z" fill="#721813"/><path d="m33.48 9.58a3.84 3.84 0 0 1 2.73-.69c1.53.25 1.66 1.09 1.66 1.09a24.66 24.66 0 0 0 -4.39-.4z" fill="#721813"/><path d="m28 18.77a9.06 9.06 0 0 0 4.1 1 9.64 9.64 0 0 0 3.93-.66 5.18 5.18 0 0 1 -4 3c-2.81.15-4.03-3.34-4.03-3.34z" fill="#fff"/><path d="m22.65 17.41a.12.12 0 0 1 -.1-.13 6.54 6.54 0 0 0 -.88-3.13.13.13 0 0 1 .03-.15.11.11 0 0 1 .15 0 6.5 6.5 0 0 1 .91 3.27.11.11 0 0 1 -.11.14z" fill="#983222"/><path d="m22.2 16.4a.57.57 0 0 1 -.56-.29c-.17-.42.42-.95.49-1a.12.12 0 0 1 .17 0 .14.14 0 0 1 0 .17c-.14.12-.52.52-.43.74s.54.14.69.1a.11.11 0 0 1 .14.08.11.11 0 0 1 -.08.14 1.36 1.36 0 0 1 -.42.06z" fill="#983222"/><path d="m29.16 12.42c0 .66-.24 1.19-.53 1.19s-.52-.53-.52-1.19.23-1.2.52-1.2.53.54.53 1.2z" fill="#1e1724"/><path d="m35.88 12.18c0 .79-.24 1.43-.53 1.43s-.53-.64-.53-1.43.24-1.43.53-1.43.53.64.53 1.43z" fill="#1e1724"/><path d="m21.91 48.57c-.28 2-.55 4.08-.76 6l-.18.21c-1-4.42-3-12.7-3-12.7a48.69 48.69 0 0 1 -3.75 4.11s-.43-1-1.05-2.12c1.5-1.21 4.86-4.14 5.4-6.48 0-.03.26 7.41 3.34 10.98z" fill="#05509c"/><path d="m25.63 27.35c1.38 1.3 2.74 4.41 1.87 6.75-.09-1.78-.67-4.77-3.48-6.11-4.15-2-6-8.06-3.68-11.71.17-.28.33-.57.49-.85a4.58 4.58 0 0 0 .78 2.43 2.83 2.83 0 0 0 .43.48 9.32 9.32 0 0 0 -.58 1.4c-1.12 3.2 2.35 5.91 4.17 7.61z" fill="#661513"/><path d="m39.84 3.58c-.07 1.16-1.68 1.9-3.25 2-.09-.29-.15-.46-.15-.46s-1.59.65-6.11-.35c0 0-2.82 2.53-4.47 4.23a10.36 10.36 0 0 0 -2 3.7c-.28.86-.42 1.48-.42 1.48s-.2-1.64-1.47-1.29c1-2.58 1.82-5.07 4-6.8a14 14 0 0 1 13.87-2.51z" fill="#661513"/><path d="m43.1 128.32c3.28 6.45 6.44 13.8 8 17.21h-.06s-5.84-9.8-9.13-14.53-6.59-10.58-7.12-14.93.77-10.17.77-10.17l-2.14-3.46 2.87-.16.86 3.8c-1.3 4.73 1.52 13.55 5.95 22.24z" fill="#212a60"/><path d="m52.19 146.09s0 0-.07-.05z" fill="#7a1715"/><path d="m20.41 146.77h-.49c-.17 0-7.4-24-7.69-29.79a16.89 16.89 0 0 1 3.17-10.22l-1.18-4.4 1.85.12v5.86s-2.18 2.71-1 12.23c1.02 8.43 4.52 22.91 5.34 26.2z" fill="#212a60"/><path d="m19 144.1c-.55 1.74-.82 3.1-.82 3.1a34.44 34.44 0 0 0 4.7-.3l-1.59-3z" fill="#d24c27"/><rect fill="#f1f2f2" height="66.21" rx="3.7" width="61.27" x="73.24" y="82.28"/><rect fill="#f1f2f2" height="66.21" rx="3.7" width="56.71" x="77.79" y="82.28"/><rect fill="#fff" height="66.21" rx="3.7" width="52.1" x="77.79" y="82.28"/><path d="m145.79 148.49h-15.41v-66.21h15.41a4 4 0 0 1 4 4v58.21a4 4 0 0 1 -4 4z" fill="#f1f2f2"/><path d="m96.46 114.57h66.21v1.63h-66.21z" fill="#e6e7e8" transform="matrix(0 1 -1 0 244.95 -14.18)"/><path d="m134.9 130.68h9.1a1.86 1.86 0 0 1 1.86 1.86v3.89a0 0 0 0 1 0 0h-12.86a0 0 0 0 1 0 0v-3.89a1.86 1.86 0 0 1 1.9-1.86z" fill="#e6e7e8"/><path d="m133 136.43h12.9a0 0 0 0 1 0 0v.64a1.86 1.86 0 0 1 -1.86 1.86h-9.15a1.86 1.86 0 0 1 -1.86-1.86v-.64a0 0 0 0 1 -.03 0z" fill="#fff"/><path d="m141.12 92.27a1 1 0 1 1 1-1 1 1 0 0 1 -1 1z" fill="#ffe340"/><path d="m138.13 92.27a1 1 0 1 1 1-1 1 1 0 0 1 -1 1z" fill="#464747"/><path d="m139.46 106a4 4 0 1 1 4-4 4 4 0 0 1 -4 4z" fill="#fff"/><path d="m139.46 104.9a2.86 2.86 0 1 1 2.86-2.86 2.86 2.86 0 0 1 -2.86 2.86z" fill="#fff"/><path d="m140.45 99.52h.44v5.05h-.44z" fill="#fff" transform="matrix(0 1 -1 0 242.71 -38.62)"/><path d="m134.1 101.9h.91v.28h-.91z" fill="#464747"/><path d="m143.9 101.9h.73v.28h-.73z" fill="#464747"/><path d="m139.23 96.78h.28v.82h-.28z" fill="#464747"/><path d="m139.23 106.48h.28v.82h-.28z" fill="#464747"/><path d="m135.82 98.19h.28v.89h-.28z" fill="#464747" transform="matrix(.70710678 -.70710678 .70710678 .70710678 -29.92 125.03)"/><path d="m142.68 105.12h.28v.76h-.28z" fill="#464747" transform="matrix(.70698336 -.70723018 .70723018 .70698336 -32.76 131.93)"/><path d="m142.44 98.45h.76v.28h-.76z" fill="#464747" transform="matrix(.70710678 -.70710678 .70710678 .70710678 -27.88 129.87)"/><path d="m135.51 105.31h.89v.28h-.89z" fill="#464747" transform="matrix(.70723018 -.70698336 .70698336 .70723018 -34.75 127)"/><path d="m137.43 97.12h.28v.86h-.28z" fill="#464747" transform="matrix(.928421 -.37152988 .37152988 .928421 -26.4 58.1)"/><path d="m141.04 106.17h.28v.79h-.28z" fill="#464747" transform="matrix(.9286154 -.37104371 .37104371 .9286154 -29.46 59.98)"/><path d="m143.54 100.09h.74v.28h-.74z" fill="#464747" transform="matrix(.92822634 -.37201595 .37201595 .92822634 -26.96 60.73)"/><path d="m134.45 103.69h.9v.28h-.9z" fill="#464747" transform="matrix(.9286154 -.37104371 .37104371 .9286154 -28.89 57.45)"/><path d="m140.83 97.4h.79v.28h-.79z" fill="#464747" transform="matrix(.38155442 -.92434638 .92434638 .38155442 -2.81 190.87)"/><path d="m137.1 106.38h.86v.28h-.86z" fill="#464747" transform="matrix(.38107038 -.92454603 .92454603 .38107038 -13.37 193.06)"/><path d="m143.76 103.54h.28v.74h-.28z" fill="#464747" transform="matrix(.38139308 -.92441296 .92441296 .38139308 -7.04 197.29)"/><path d="m134.78 99.76h.28v.91h-.28z" fill="#464747" transform="matrix(.38026341 -.92487823 .92487823 .38026341 -9.07 186.88)"/><g fill="#fff"><path d="m143 115.06a1 1 0 1 1 1-1 1 1 0 0 1 -1 1z"/><path d="m143 117.88a1 1 0 1 1 1-1 1 1 0 0 1 -1 1z"/><path d="m143 120.7a1 1 0 1 1 1-1 1 1 0 0 1 -1 1z"/><circle cx="142.96" cy="122.54" r=".98"/><path d="m143 126.35a1 1 0 1 1 1-1 1 1 0 0 1 -1 1z"/><path d="m138.65 113.88h2.63v1.06h-2.63z" transform="matrix(0 1 -1 0 254.38 -25.56)"/><path d="m138.65 117.42h2.63v1.06h-2.63z" transform="matrix(0 1 -1 0 257.92 -22.02)"/><path d="m138.65 120.96h2.63v1.06h-2.63z" transform="matrix(0 1 -1 0 261.46 -18.48)"/><path d="m138.65 124.5h2.63v1.06h-2.63z" transform="matrix(0 1 -1 0 265 -14.93)"/><path d="m136.87 113.88h2.63v1.06h-2.63z" transform="matrix(0 1 -1 0 252.6 -23.78)"/><path d="m136.87 117.42h2.63v1.06h-2.63z" transform="matrix(0 1 -1 0 256.14 -20.24)"/><path d="m136.87 120.96h2.63v1.06h-2.63z" transform="matrix(0 1 -1 0 259.68 -16.7)"/><path d="m136.87 124.5h2.63v1.06h-2.63z" transform="matrix(0 1 -1 0 263.22 -13.16)"/><path d="m135.1 113.88h2.63v1.06h-2.63z" transform="matrix(0 1 -1 0 250.82 -22)"/><path d="m135.1 117.42h2.63v1.06h-2.63z" transform="matrix(0 1 -1 0 254.36 -18.46)"/><path d="m135.1 120.96h2.63v1.06h-2.63z" transform="matrix(0 1 -1 0 257.9 -14.92)"/><path d="m135.1 124.5h2.63v1.06h-2.63z" transform="matrix(0 1 -1 0 261.44 -11.38)"/><circle cx="103.87" cy="115.48" r="21.42" transform="matrix(.98730315 -.15884737 .15884737 .98730315 -17.02 17.96)"/></g><path d="m120 115.48a16 16 0 1 1 -.81-5.07 16.08 16.08 0 0 1 .81 5.07z" fill="#93f2f9"/><path d="m120 115.48a16.08 16.08 0 0 1 -30.61 6.91s3.61-10.39 12.88-6.91c9 3.39 14.38-2.45 16.87-5.07a16 16 0 0 1 .86 5.07z" fill="#80e0f9"/><circle cx="103.87" cy="115.48" fill="#f1f2f2" opacity=".71" r="12.15" transform="matrix(.38864157 -.92138902 .92138902 .38864157 -42.91 166.3)"/><path d="m95.91 111.71h10.91v.48h-10.91z" fill="#fff" transform="matrix(.84 -.55 .55 .84 -44.66 73.44)"/><path d="m99.79 111.71h10.91v.48h-10.91z" fill="#fff" transform="matrix(.83809976 -.54551699 .54551699 .83809976 -44.03 75.53)"/><path d="m97.94 116.52h10.91v.48h-10.91z" fill="#fff" transform="matrix(.83809976 -.54551699 .54551699 .83809976 -46.95 75.3)"/><path d="m121.74 107.69a0 0 0 0 1 0 0v15.58a0 0 0 0 1 0 0 7.34 7.34 0 0 1 -7.34-7.34v-.93a7.34 7.34 0 0 1 7.34-7.31z" fill="#fff"/><path d="m76.08 88.2h8v7.3h-8z" fill="#0b2a82"/><path d="m81.56 94.06h-3.28v-.69l1.18-1.19a9 9 0 0 0 .68-.74 1.36 1.36 0 0 0 .23-.39.86.86 0 0 0 .08-.36.54.54 0 0 0 -.16-.42.61.61 0 0 0 -.42-.14 1.15 1.15 0 0 0 -.53.13 2.54 2.54 0 0 0 -.53.35l-.54-.61a3.79 3.79 0 0 1 .57-.41 1.78 1.78 0 0 1 .5-.19 2.25 2.25 0 0 1 .6-.07 1.87 1.87 0 0 1 .78.16 1.21 1.21 0 0 1 .52.45 1.14 1.14 0 0 1 .19.66 1.74 1.74 0 0 1 -.11.61 2.29 2.29 0 0 1 -.36.58 7.93 7.93 0 0 1 -.84.85l-.6.57h2z" fill="#ffe340"/><rect fill="#f1f2f2" height="66.21" rx="3.7" width="61.27" x="73.24" y="12.97"/><rect fill="#f1f2f2" height="66.21" rx="3.7" width="56.71" x="77.79" y="12.97"/><rect fill="#fff" height="66.21" rx="3.7" width="52.1" x="77.79" y="12.97"/><path d="m145.79 79.18h-15.41v-66.18h15.41a4 4 0 0 1 4 4v58.18a4 4 0 0 1 -4 4z" fill="#f1f2f2"/><path d="m96.46 45.26h66.21v1.63h-66.21z" fill="#e6e7e8" transform="matrix(0 1 -1 0 175.64 -83.49)"/><path d="m134.89 61.37h9.11a1.86 1.86 0 0 1 1.86 1.86v3.89a0 0 0 0 1 0 0h-12.86a0 0 0 0 1 0 0v-3.89a1.86 1.86 0 0 1 1.89-1.86z" fill="#e6e7e8"/><path d="m133 67.12h12.9a0 0 0 0 1 0 0v.64a1.86 1.86 0 0 1 -1.9 1.85h-9.15a1.86 1.86 0 0 1 -1.85-1.85v-.64a0 0 0 0 1 0 0z" fill="#fff"/><path d="m141.12 23a1 1 0 1 1 1-1 1 1 0 0 1 -1 1z" fill="#ffe340"/><path d="m138.13 23a1 1 0 1 1 1-1 1 1 0 0 1 -1 1z" fill="#464747"/><path d="m139.46 36.7a4 4 0 1 1 4-4 4 4 0 0 1 -4 4z" fill="#fff"/><path d="m139.46 35.59a2.86 2.86 0 1 1 2.86-2.86 2.86 2.86 0 0 1 -2.86 2.86z" fill="#fff"/><path d="m140.45 30.21h.44v5.05h-.44z" fill="#fff" transform="matrix(0 1 -1 0 173.39 -107.94)"/><path d="m134.1 32.59h.91v.28h-.91z" fill="#464747"/><path d="m143.9 32.59h.73v.28h-.73z" fill="#464747"/><path d="m139.23 27.46h.28v.82h-.28z" fill="#464747"/><path d="m139.23 37.17h.28v.82h-.28z" fill="#464747"/><path d="m135.82 28.88h.28v.89h-.28z" fill="#464747" transform="matrix(.70710678 -.70710678 .70710678 .70710678 19.09 104.72)"/><path d="m142.68 35.8h.28v.76h-.28z" fill="#464747" transform="matrix(.70710678 -.70710678 .70710678 .70710678 16.24 111.59)"/><path d="m142.44 29.14h.76v.28h-.76z" fill="#464747" transform="matrix(.70710678 -.70710678 .70710678 .70710678 21.12 109.55)"/><path d="m135.51 36h.89v.28h-.89z" fill="#464747" transform="matrix(.70710678 -.70710678 .70710678 .70710678 14.26 106.71)"/><path d="m137.43 27.81h.28v.86h-.28z" fill="#464747" transform="matrix(.928421 -.37152988 .37152988 .928421 -.64 53.14)"/><path d="m141.04 36.86h.28v.79h-.28z" fill="#464747" transform="matrix(.92855063 -.37120578 .37120578 .92855063 -3.74 55.08)"/><path d="m143.54 30.77h.74v.28h-.74z" fill="#464747" transform="matrix(.92829125 -.37185394 .37185394 .92829125 -1.18 55.73)"/><path d="m134.45 34.38h.9v.28h-.9z" fill="#464747" transform="matrix(.9286154 -.37104371 .37104371 .9286154 -3.18 52.51)"/><path d="m140.83 28.09h.79v.28h-.79z" fill="#464747" transform="matrix(.38139308 -.92441296 .92441296 .38139308 61.26 148)"/><path d="m137.1 37.06h.86v.28h-.86z" fill="#464747" transform="matrix(.38107038 -.92454603 .92454603 .38107038 50.72 150.17)"/><path d="m143.76 34.23h.28v.74h-.28z" fill="#464747" transform="matrix(.38171574 -.92427977 .92427977 .38171574 57 154.4)"/><path d="m134.78 30.44h.28v.91h-.28z" fill="#464747" transform="matrix(.38 -.92 .92 .38 55.03 143.93)"/><path d="m143 45.74a1 1 0 1 1 1-1 1 1 0 0 1 -1 1z" fill="#fff"/><path d="m143 48.57a1 1 0 1 1 1-1 1 1 0 0 1 -1 1z" fill="#fff"/><circle cx="142.96" cy="50.41" fill="#fff" r=".98"/><path d="m143 54.21a1 1 0 1 1 1-1 1 1 0 0 1 -1 1z" fill="#fff"/><path d="m143 57a1 1 0 1 1 1-1 1 1 0 0 1 -1 1z" fill="#fff"/><path d="m138.65 44.57h2.63v1.06h-2.63z" fill="#fff" transform="matrix(0 1 -1 0 185.06 -94.87)"/><path d="m138.65 48.11h2.63v1.06h-2.63z" fill="#fff" transform="matrix(0 1 -1 0 188.6 -91.33)"/><path d="m138.65 51.65h2.63v1.06h-2.63z" fill="#fff" transform="matrix(0 1 -1 0 192.14 -87.79)"/><path d="m138.65 55.19h2.63v1.06h-2.63z" fill="#fff" transform="matrix(0 1 -1 0 195.68 -84.25)"/><path d="m136.87 44.57h2.63v1.06h-2.63z" fill="#fff" transform="matrix(0 1 -1 0 183.28 -93.09)"/><path d="m136.87 48.11h2.63v1.06h-2.63z" fill="#fff" transform="matrix(0 1 -1 0 186.83 -89.55)"/><path d="m136.87 51.65h2.63v1.06h-2.63z" fill="#fff" transform="matrix(0 1 -1 0 190.37 -86.01)"/><path d="m136.87 55.19h2.63v1.06h-2.63z" fill="#fff" transform="matrix(0 1 -1 0 193.91 -82.47)"/><path d="m135.1 44.57h2.63v1.06h-2.63z" fill="#fff" transform="matrix(0 1 -1 0 181.51 -91.31)"/><path d="m135.1 48.11h2.63v1.06h-2.63z" fill="#fff" transform="matrix(0 1 -1 0 185.05 -87.77)"/><path d="m135.1 51.65h2.63v1.06h-2.63z" fill="#fff" transform="matrix(0 1 -1 0 188.59 -84.23)"/><path d="m135.1 55.19h2.63v1.06h-2.63z" fill="#fff" transform="matrix(0 1 -1 0 192.13 -80.69)"/><path d="m123 46.17a19.1 19.1 0 1 1 -1-6 19.12 19.12 0 0 1 1 6z" fill="#464747"/><circle cx="66.53" cy="46.17" fill="#e6e7e8" r="21.42" transform="matrix(.98195871 -.18909544 .18909544 .98195871 -7.53 13.41)"/><path d="m50.45 46.17a16 16 0 1 0 .81-5.07 16.08 16.08 0 0 0 -.81 5.07z" fill="#93f2f9"/><path d="m54.38 46.17a12.15 12.15 0 1 0 12.15-12.17 12.15 12.15 0 0 0 -12.15 12.17z" fill="#f1f2f2" opacity=".71"/><path d="m68.79 37.18h.48v10.91h-.48z" fill="#fff" transform="matrix(.54551699 -.83809976 .83809976 .54551699 -4.36 77.23)"/><path d="m64.91 37.18h.48v10.91h-.48z" fill="#fff" transform="matrix(.54551699 -.83809976 .83809976 .54551699 -6.12 73.98)"/><path d="m66.77 41.99h.48v10.91h-.48z" fill="#fff" transform="matrix(.54551699 -.83809976 .83809976 .54551699 -9.31 77.72)"/><path d="m118.91 46.17a14.88 14.88 0 0 1 -1.91 7.38 15 15 0 0 1 -13.1 7.66 15.34 15.34 0 0 1 -2.05-.14 14.77 14.77 0 0 1 -2.85-.67 15 15 0 0 1 -8.7-7.77 7.84 7.84 0 0 1 -.32-.72 15 15 0 1 1 28.94-5.74z" fill="#282828"/><path d="m117 53.55a15 15 0 0 1 -13.1 7.66 15.34 15.34 0 0 1 -2.05-.14l-1.15-.92-5.32-4.26-.21-.17s.9-.72 2.32-1.72c3-2.08 8.1-5.16 11.52-4.54 2.27.38 5.3 2.2 7.99 4.09z" fill="#f25b74"/><path d="m103.87 59.66-3.2.49-1.67.25a15 15 0 0 1 -8.7-7.77 7.84 7.84 0 0 1 -.32-.72 2.54 2.54 0 0 1 2.36-1c1.22.21 3.19 1.54 5.16 3.11.47.37.94.76 1.4 1.14 2.65 2.2 4.97 4.5 4.97 4.5z" fill="#fff"/><path d="m112.87 58.22a15 15 0 0 1 -9 3 15.34 15.34 0 0 1 -2.05-.14 14.77 14.77 0 0 1 -2.82-.68 15 15 0 0 1 -5.89-3.73 19.4 19.4 0 0 1 2.25-.78 25.06 25.06 0 0 1 3.54-.78 16.7 16.7 0 0 1 7.92.61c1.96.71 4.07 1.6 6.05 2.5z" fill="#ffd31a"/><path d="m76.08 18.88h8v7.3h-8z" fill="#0b2a82"/><path d="m80.73 24.75h-1v-3.16-.49c-.17.16-.28.27-.35.32l-.53.44-.48-.6 1.51-1.2h.81z" fill="#ffe340"/><path d="m76.94 79.18h68.85v3.1h-68.85z" fill="#464747"/></svg>